<svg xmlns="http://www.w3.org/2000/svg" xmlns:xlink="http://www.w3.org/1999/xlink" viewBox="0 0 430 430" width="430" height="430" preserveAspectRatio="xMidYMid meet" style="width: 100%; height: 100%; transform: translate3d(0px, 0px, 0px); content-visibility: visible;"><defs><clipPath id="__lottie_element_163"><rect width="430" height="430" x="0" y="0"/></clipPath><clipPath id="__lottie_element_165"><path d="M0,0 L430,0 L430,430 L0,430z"/></clipPath></defs><g clip-path="url(#__lottie_element_163)"><g clip-path="url(#__lottie_element_165)" transform="matrix(1,0,0,1,0,0)" opacity="1" style="display: block;"><g transform="matrix(1,0,0,1,207.8300018310547,215)" opacity="1" style="display: block;"><g opacity="1" transform="matrix(1,0,0,1,0,0)"><path stroke-linecap="butt" stroke-linejoin="round" fill-opacity="0" class="secondary" stroke="rgb(75,179,253)" stroke-opacity="1" stroke-width="7" d=" M149.6820068359375,-107.06199645996094 C106.6500015258789,-107.06199645996094 71.76499938964844,-141.95599365234375 71.76499938964844,-185 C71.76499938964844,-185 -2.049999952316284,-185 -2.049999952316284,-185 C-2.049999952316284,-185 -2.049999952316284,70.14399719238281 -2.049999952316284,70.14399719238281 C-2.049999952316284,71.54199981689453 -2.0510001182556152,72.74299621582031 -2.049999952316284,74.23200225830078 C-2.049999952316284,74.23200225830078 -2.049999952316284,74.26000213623047 -2.049999952316284,74.26000213623047 C-2.058000087738037,94.64299774169922 -18.57900047302246,111.16400146484375 -38.95800018310547,111.16400146484375 C-59.34199905395508,111.16400146484375 -75.86599731445312,94.63500213623047 -75.86599731445312,74.24600219726562 C-75.86599731445312,55.24300003051758 -61.51300048828125,39.59299850463867 -43.058998107910156,37.553001403808594 C-43.058998107910156,37.553001403808594 -43.058998107910156,-36.43299865722656 -43.058998107910156,-36.43299865722656 C-102.30999755859375,-34.275001525878906 -149.6820068359375,14.45199966430664 -149.6820068359375,74.24600219726562 C-149.6820068359375,135.41400146484375 -100.10900115966797,185 -38.95800018310547,185 C21.645000457763672,185 70.8759994506836,136.29800415039062 71.75299835205078,75.88700103759766 C71.75299835205078,75.88700103759766 71.76499938964844,75.88700103759766 71.76499938964844,75.88700103759766 C71.76499938964844,75.88700103759766 71.76499938964844,-54.73899841308594 71.76499938964844,-54.73899841308594 C94.54000091552734,-41.07899856567383 121.19400024414062,-33.22600173950195 149.6820068359375,-33.22600173950195 C149.6820068359375,-33.22600173950195 149.6820068359375,-107.06199645996094 149.6820068359375,-107.06199645996094z"/><path class="secondary" fill="rgb(75,179,253)" fill-opacity="1" d=" M149.6820068359375,-107.06199645996094 C106.6500015258789,-107.06199645996094 71.76499938964844,-141.95599365234375 71.76499938964844,-185 C71.76499938964844,-185 -2.049999952316284,-185 -2.049999952316284,-185 C-2.049999952316284,-185 -2.049999952316284,70.14399719238281 -2.049999952316284,70.14399719238281 C-2.049999952316284,71.54199981689453 -2.0510001182556152,72.74299621582031 -2.049999952316284,74.23200225830078 C-2.049999952316284,74.23200225830078 -2.049999952316284,74.26000213623047 -2.049999952316284,74.26000213623047 C-2.058000087738037,94.64299774169922 -18.57900047302246,111.16400146484375 -38.95800018310547,111.16400146484375 C-59.34199905395508,111.16400146484375 -75.86599731445312,94.63500213623047 -75.86599731445312,74.24600219726562 C-75.86599731445312,55.24300003051758 -61.51300048828125,39.59299850463867 -43.058998107910156,37.553001403808594 C-43.058998107910156,37.553001403808594 -43.058998107910156,-36.43299865722656 -43.058998107910156,-36.43299865722656 C-102.30999755859375,-34.275001525878906 -149.6820068359375,14.45199966430664 -149.6820068359375,74.24600219726562 C-149.6820068359375,135.41400146484375 -100.10900115966797,185 -38.95800018310547,185 C21.645000457763672,185 70.8759994506836,136.29800415039062 71.75299835205078,75.88700103759766 C71.75299835205078,75.88700103759766 71.76499938964844,75.88700103759766 71.76499938964844,75.88700103759766 C71.76499938964844,75.88700103759766 71.76499938964844,-54.73899841308594 71.76499938964844,-54.73899841308594 C94.54000091552734,-41.07899856567383 121.19400024414062,-33.22600173950195 149.6820068359375,-33.22600173950195 C149.6820068359375,-33.22600173950195 149.6820068359375,-107.06199645996094 149.6820068359375,-107.06199645996094z"/></g></g><g transform="matrix(1,0,0,1,219.28773498535156,215)" opacity="1" style="display: block;"><g opacity="1" transform="matrix(1,0,0,1,0,0)"><path stroke-linecap="butt" stroke-linejoin="round" fill-opacity="0" class="tertiary" stroke="rgb(242,76,0)" stroke-opacity="1" stroke-width="7" d=" M149.6820068359375,-107.06199645996094 C106.6500015258789,-107.06199645996094 71.76499938964844,-141.95599365234375 71.76499938964844,-185 C71.76499938964844,-185 -2.049999952316284,-185 -2.049999952316284,-185 C-2.049999952316284,-185 -2.049999952316284,70.14399719238281 -2.049999952316284,70.14399719238281 C-2.049999952316284,71.54199981689453 -2.0510001182556152,72.74299621582031 -2.049999952316284,74.23200225830078 C-2.049999952316284,74.23200225830078 -2.049999952316284,74.26000213623047 -2.049999952316284,74.26000213623047 C-2.058000087738037,94.64299774169922 -18.57900047302246,111.16400146484375 -38.95800018310547,111.16400146484375 C-59.34199905395508,111.16400146484375 -75.86599731445312,94.63500213623047 -75.86599731445312,74.24600219726562 C-75.86599731445312,55.24300003051758 -61.51300048828125,39.59299850463867 -43.058998107910156,37.553001403808594 C-43.058998107910156,37.553001403808594 -43.058998107910156,-36.43299865722656 -43.058998107910156,-36.43299865722656 C-102.30999755859375,-34.275001525878906 -149.6820068359375,14.45199966430664 -149.6820068359375,74.24600219726562 C-149.6820068359375,135.41400146484375 -100.10900115966797,185 -38.95800018310547,185 C21.645000457763672,185 70.8759994506836,136.29800415039062 71.75299835205078,75.88700103759766 C71.75299835205078,75.88700103759766 71.76499938964844,75.88700103759766 71.76499938964844,75.88700103759766 C71.76499938964844,75.88700103759766 71.76499938964844,-54.73899841308594 71.76499938964844,-54.73899841308594 C94.54000091552734,-41.07899856567383 121.19400024414062,-33.22600173950195 149.6820068359375,-33.22600173950195 C149.6820068359375,-33.22600173950195 149.6820068359375,-107.06199645996094 149.6820068359375,-107.06199645996094z"/><path class="tertiary" fill="rgb(242,76,0)" fill-opacity="1" d=" M149.6820068359375,-107.06199645996094 C106.6500015258789,-107.06199645996094 71.76499938964844,-141.95599365234375 71.76499938964844,-185 C71.76499938964844,-185 -2.049999952316284,-185 -2.049999952316284,-185 C-2.049999952316284,-185 -2.049999952316284,70.14399719238281 -2.049999952316284,70.14399719238281 C-2.049999952316284,71.54199981689453 -2.0510001182556152,72.74299621582031 -2.049999952316284,74.23200225830078 C-2.049999952316284,74.23200225830078 -2.049999952316284,74.26000213623047 -2.049999952316284,74.26000213623047 C-2.058000087738037,94.64299774169922 -18.57900047302246,111.16400146484375 -38.95800018310547,111.16400146484375 C-59.34199905395508,111.16400146484375 -75.86599731445312,94.63500213623047 -75.86599731445312,74.24600219726562 C-75.86599731445312,55.24300003051758 -61.51300048828125,39.59299850463867 -43.058998107910156,37.553001403808594 C-43.058998107910156,37.553001403808594 -43.058998107910156,-36.43299865722656 -43.058998107910156,-36.43299865722656 C-102.30999755859375,-34.275001525878906 -149.6820068359375,14.45199966430664 -149.6820068359375,74.24600219726562 C-149.6820068359375,135.41400146484375 -100.10900115966797,185 -38.95800018310547,185 C21.645000457763672,185 70.8759994506836,136.29800415039062 71.75299835205078,75.88700103759766 C71.75299835205078,75.88700103759766 71.76499938964844,75.88700103759766 71.76499938964844,75.88700103759766 C71.76499938964844,75.88700103759766 71.76499938964844,-54.73899841308594 71.76499938964844,-54.73899841308594 C94.54000091552734,-41.07899856567383 121.19400024414062,-33.22600173950195 149.6820068359375,-33.22600173950195 C149.6820068359375,-33.22600173950195 149.6820068359375,-107.06199645996094 149.6820068359375,-107.06199645996094z"/></g></g><g transform="matrix(1,0,0,1,213.95359802246094,215)" opacity="1" style="display: block;"><g opacity="1" transform="matrix(1,0,0,1,0,0)"><path class="primary" fill="rgb(58,51,71)" fill-opacity="1" d=" M71.8219985961914,-181.99600219726562 C71.75900268554688,-183.65199279785156 70.4219970703125,-185 68.76499938964844,-185 C68.76499938964844,-185 0.949999988079071,-185 0.949999988079071,-185 C-0.7070000171661377,-185 -2.049999952316284,-183.65699768066406 -2.049999952316284,-182 C-2.049999952316284,-182 -2.049999952316284,70.14399719238281 -2.049999952316284,70.14399719238281 C-2.049999952316284,71.54199981689453 -2.0510001182556152,72.74299621582031 -2.049999952316284,74.23200225830078 C-2.049999952316284,74.23200225830078 -2.049999952316284,74.26000213623047 -2.049999952316284,74.26000213623047 C-2.058000087738037,94.64299774169922 -18.57900047302246,111.16400146484375 -38.95800018310547,111.16400146484375 C-59.34199905395508,111.16400146484375 -75.86599731445312,94.63500213623047 -75.86599731445312,74.24600219726562 C-75.86599731445312,56.16600036621094 -62.87300109863281,41.12200164794922 -45.71799850463867,37.94599914550781 C-44.2140007019043,37.667999267578125 -43.058998107910156,36.395999908447266 -43.058998107910156,34.867000579833984 C-43.058998107910156,34.867000579833984 -43.058998107910156,-33.321998596191406 -43.058998107910156,-33.321998596191406 C-43.058998107910156,-35.02199935913086 -44.47800064086914,-36.3849983215332 -46.17399978637695,-36.2760009765625 C-103.96199798583984,-32.55799865722656 -149.6820068359375,15.503000259399414 -149.6820068359375,74.24600219726562 C-149.6820068359375,135.41400146484375 -100.10900115966797,185 -38.95800018310547,185 C21.645000457763672,185 70.8759994506836,136.29800415039062 71.75299835205078,75.88700103759766 C71.75299835205078,75.88700103759766 71.76499938964844,75.88700103759766 71.76499938964844,75.88700103759766 C71.76499938964844,75.88700103759766 71.76499938964844,-54.73899841308594 71.76499938964844,-54.73899841308594 C93.73799896240234,-41.560001373291016 119.322998046875,-33.7859992980957 146.68099975585938,-33.255001068115234 C148.33799743652344,-33.222999572753906 149.6820068359375,-34.569000244140625 149.6820068359375,-36.22600173950195 C149.6820068359375,-36.22600173950195 149.6820068359375,-104.06199645996094 149.6820068359375,-104.06199645996094 C149.6820068359375,-105.71900177001953 148.33399963378906,-107.05599975585938 146.67799377441406,-107.11900329589844 C106.03399658203125,-108.66000366210938 73.36199951171875,-141.34100341796875 71.8219985961914,-181.99600219726562z"/></g></g><g transform="matrix(1,0,0,1,155.5876007080078,215)" opacity="0.5" style="mix-blend-mode: multiply; display: block;"><g opacity="1" transform="matrix(1,0,0,1,0,0)"><path class="primary" fill="rgb(58,51,71)" fill-opacity="1" d=" M15.307000160217285,-33.321998596191406 C15.307000160217285,-33.321998596191406 15.307000160217285,-29.40399932861328 15.307000160217285,-29.40399932861328 C-26.54800033569336,-13.597999572753906 -56.316001892089844,26.847000122070312 -56.316001892089844,74.24600219726562 C-56.316001892089844,129.45700073242188 -15.927000045776367,175.23199462890625 36.90800094604492,183.62399291992188 C31.20800018310547,184.5290069580078 25.363000869750977,185 19.408000946044922,185 C-41.74300003051758,185 -91.31600189208984,135.41400146484375 -91.31600189208984,74.24600219726562 C-91.31600189208984,15.503000259399414 -45.595001220703125,-32.55799865722656 12.192999839782715,-36.2760009765625 C13.888999938964844,-36.3849983215332 15.307000160217285,-35.02199935913086 15.307000160217285,-33.321998596191406z M59.316001892089844,-185 C59.316001892089844,-185 91.31600189208984,-185 91.31600189208984,-185 C91.31600189208984,-98.58899688720703 91.28299713134766,-12.178999900817871 91.31600189208984,74.23200225830078 C91.31600189208984,74.23200225830078 91.31600189208984,74.26000213623047 91.31600189208984,74.26000213623047 C91.30799865722656,94.64299774169922 74.78700256347656,111.16400146484375 54.40800094604492,111.16400146484375 C48.07600021362305,111.16400146484375 42.11600112915039,109.56900024414062 36.90800094604492,106.75800323486328 C48.459999084472656,100.52400207519531 56.31100082397461,88.30899810791016 56.316001892089844,74.26000213623047 C56.316001892089844,74.26000213623047 56.316001892089844,74.23200225830078 56.316001892089844,74.23200225830078 C56.284000396728516,-11.178999900817871 56.314998626708984,-96.58899688720703 56.316001892089844,-182 C56.316001892089844,-183.65699768066406 57.659000396728516,-185 59.316001892089844,-185z"/></g></g></g></g></svg>