<svg xmlns="http://www.w3.org/2000/svg" xmlns:xlink="http://www.w3.org/1999/xlink" viewBox="0 0 430 430" width="430" height="430" preserveAspectRatio="xMidYMid meet" style="width: 100%; height: 100%; transform: translate3d(0px, 0px, 0px); content-visibility: visible;"><defs><clipPath id="__lottie_element_7"><rect width="430" height="430" x="0" y="0"/></clipPath><clipPath id="__lottie_element_9"><path d="M0,0 L430,0 L430,430 L0,430z"/></clipPath><g id="__lottie_element_22"><g transform="matrix(1,0,0,1,214.99600219726562,215)" opacity="1" style="display: none;"><g opacity="1" transform="matrix(1,0,0,1,0,0)"><path class="primary" fill="rgb(58,51,71)" fill-opacity="1" d=" M87.23955535888672,146.03179931640625 C87.23955535888672,146.03179931640625 -132.03382873535156,-145.99569702148438 -132.03382873535156,-145.99569702148438 C-132.03382873535156,-145.99569702148438 -87.18685150146484,-145.99569702148438 -87.18685150146484,-145.99569702148438 C-87.18685150146484,-145.99569702148438 132.08395385742188,146.03179931640625 132.08395385742188,146.03179931640625 C132.08395385742188,146.03179931640625 87.23955535888672,146.03179931640625 87.23955535888672,146.03179931640625z"/></g></g></g><filter id="__lottie_element_28" filterUnits="objectBoundingBox" x="0%" y="0%" width="100%" height="100%"><feComponentTransfer in="SourceGraphic"><feFuncA type="table" tableValues="1.0 0.0"/></feComponentTransfer></filter><mask id="__lottie_element_22_2" mask-type="alpha"><g filter="url(#__lottie_element_28)"><rect width="430" height="430" x="0" y="0" fill="#ffffff" opacity="0"/><use xmlns:ns1="http://www.w3.org/1999/xlink" ns1:href="#__lottie_element_22"/></g></mask><g id="__lottie_element_55"><g transform="matrix(1,0,0,1,214.99600219726562,215)" opacity="1" style="display: none;"><g opacity="1" transform="matrix(1,0,0,1,0,0)"><path fill="rgb(58,51,71)" fill-opacity="1" d=" M136.96499633789062,155.24899291992188 C136.96499633789062,155.24899291992188 -148.11000061035156,-153.5 -148.11000061035156,-153.5 C-148.11000061035156,-153.5 -130.8679962158203,-153.5 -130.8679962158203,-153.5 C-130.8679962158203,-153.5 153.73899841308594,155.24899291992188 153.73899841308594,155.24899291992188 C153.73899841308594,155.24899291992188 136.96499633789062,155.24899291992188 136.96499633789062,155.24899291992188z"/></g></g></g><g id="__lottie_element_61"><g style="display: none;" transform="matrix(-1,0,0,1,214.99600219726562,215)" opacity="1"><g opacity="1" transform="matrix(1,0,0,1,0,0)"><path fill="rgb(58,51,71)" fill-opacity="1" d=" M116.03929138183594,147.6099395751953 C116.03929138183594,147.6099395751953 -140.32020568847656,-149.2176513671875 -140.32020568847656,-149.2176513671875 C-140.32020568847656,-149.2176513671875 -115.34330749511719,-149.2176513671875 -115.34330749511719,-149.2176513671875 C-115.34330749511719,-149.2176513671875 140.67872619628906,147.6094970703125 140.67872619628906,147.6094970703125 C140.67872619628906,147.6094970703125 116.03929138183594,147.6099395751953 116.03929138183594,147.6099395751953z"/></g></g></g><filter id="__lottie_element_64" filterUnits="objectBoundingBox" x="0%" y="0%" width="100%" height="100%"><feComponentTransfer in="SourceGraphic"><feFuncA type="table" tableValues="1.0 0.0"/></feComponentTransfer></filter><mask id="__lottie_element_61_2" mask-type="alpha"><g filter="url(#__lottie_element_64)"><rect width="430" height="430" x="0" y="0" fill="#ffffff" opacity="0"/><use xmlns:ns2="http://www.w3.org/1999/xlink" ns2:href="#__lottie_element_61"/></g></mask><filter id="__lottie_element_65" filterUnits="objectBoundingBox" x="0%" y="0%" width="100%" height="100%"><feComponentTransfer in="SourceGraphic"><feFuncA type="table" tableValues="1.0 0.0"/></feComponentTransfer></filter><mask id="__lottie_element_55_2" mask-type="alpha"><g filter="url(#__lottie_element_65)"><rect width="430" height="430" x="0" y="0" fill="#ffffff" opacity="0"/><use xmlns:ns3="http://www.w3.org/1999/xlink" ns3:href="#__lottie_element_55"/></g></mask><g id="__lottie_element_69"><g style="display: block;" transform="matrix(1,0,0,1,214.99600219726562,215)" opacity="1"><g opacity="1" transform="matrix(1,0,0,1,0,0)"><path fill="rgb(58,51,71)" fill-opacity="1" d=" M87.00399780273438,146 C87.00399780273438,146 -131.99600219726562,-146 -131.99600219726562,-146 C-131.99600219726562,-146 -86.99600219726562,-146 -86.99600219726562,-146 C-86.99600219726562,-146 132.00399780273438,146 132.00399780273438,146 C132.00399780273438,146 87.00399780273438,146 87.00399780273438,146z"/></g></g></g><filter id="__lottie_element_72" filterUnits="objectBoundingBox" x="0%" y="0%" width="100%" height="100%"><feComponentTransfer in="SourceGraphic"><feFuncA type="table" tableValues="1.0 0.0"/></feComponentTransfer></filter><mask id="__lottie_element_69_2" mask-type="alpha"><g filter="url(#__lottie_element_72)"><rect width="430" height="430" x="0" y="0" fill="#ffffff" opacity="0"/><use xmlns:ns4="http://www.w3.org/1999/xlink" ns4:href="#__lottie_element_69"/></g></mask></defs><g clip-path="url(#__lottie_element_7)"><g clip-path="url(#__lottie_element_9)" transform="matrix(1,0,0,1,0,0)" opacity="1" style="display: block;"><g transform="matrix(1,0,0,1,214.99600219726562,215)" opacity="1" style="display: none;"><g opacity="1" transform="matrix(1,0,0,1,0,0)"><path class="primary" fill="rgb(58,51,71)" fill-opacity="1" d=" M150.98300170898438,-165.12100219726562 C150.98300170898438,-165.12100219726562 21.086000442504883,-35.2239990234375 21.086000442504883,-35.2239990234375 C21.086000442504883,-35.2239990234375 33.20800018310547,-19.062000274658203 33.20800018310547,-19.062000274658203 C33.20800018310547,-19.062000274658203 174.14599609375,-160 174.14599609375,-160 C174.14599609375,-160 175.02000427246094,-160.85400390625 175.02000427246094,-160.85400390625 C176.9429931640625,-162.73399353027344 175.61300659179688,-166 172.9239959716797,-166 C172.9239959716797,-166 153.10400390625,-166 153.10400390625,-166 C152.30799865722656,-166 151.54600524902344,-165.6840057373047 150.98300170898438,-165.12100219726562z"/></g><g opacity="1" transform="matrix(1,0,0,1,0,0)"><path class="primary" fill="rgb(58,51,71)" fill-opacity="1" d=" M-33.20000076293945,19.062000274658203 C-33.20000076293945,19.062000274658203 -174.13800048828125,160 -174.13800048828125,160 C-174.13800048828125,160 -175.01100158691406,160.84500122070312 -175.01100158691406,160.84500122070312 C-176.94700622558594,162.7209930419922 -175.6199951171875,166 -172.9239959716797,166 C-172.9239959716797,166 -153.0970001220703,166 -153.0970001220703,166 C-152.30099487304688,166 -151.53799438476562,165.6840057373047 -150.97500610351562,165.12100219726562 C-150.97500610351562,165.12100219726562 -21.077999114990234,35.2239990234375 -21.077999114990234,35.2239990234375 C-21.077999114990234,35.2239990234375 -33.20000076293945,19.062000274658203 -33.20000076293945,19.062000274658203z"/></g><g opacity="1" transform="matrix(1,0,0,1,-25.687999725341797,0)" style="mix-blend-mode: multiply;"><path class="primary" fill="rgb(58,51,71)" fill-opacity="0.5" d=" M4.635000228881836,35.2239990234375 C4.635000228881836,35.2239990234375 -7.486999988555908,19.062000274658203 -7.486999988555908,19.062000274658203 C-7.486999988555908,19.062000274658203 -148.4250030517578,160 -148.4250030517578,160 C-148.4250030517578,160 -149.29800415039062,160.84500122070312 -149.29800415039062,160.84500122070312 C-151.23399353027344,162.7209930419922 -149.90699768066406,166 -147.21099853515625,166 C-147.21099853515625,166 -127.38400268554688,166 -127.38400268554688,166 C-126.58799743652344,166 -125.82499694824219,165.6840057373047 -125.26200103759766,165.12100219726562 C-125.26200103759766,165.12100219726562 4.635000228881836,35.2239990234375 4.635000228881836,35.2239990234375z"/></g></g><g transform="matrix(1,0,0,1,214.99600219726562,215)" opacity="1" style="display: none;"><g opacity="1" transform="matrix(1,0,0,1,0,0)"><path class="primary" fill="rgb(58,51,71)" fill-opacity="1" d=" M150.98300170898438,-165.12100219726562 C150.98300170898438,-165.12100219726562 21.086000442504883,-35.2239990234375 21.086000442504883,-35.2239990234375 C21.086000442504883,-35.2239990234375 33.20800018310547,-19.062000274658203 33.20800018310547,-19.062000274658203 C33.20800018310547,-19.062000274658203 174.14599609375,-160 174.14599609375,-160 C174.14599609375,-160 175.02000427246094,-160.85400390625 175.02000427246094,-160.85400390625 C176.9429931640625,-162.73399353027344 175.61300659179688,-166 172.9239959716797,-166 C172.9239959716797,-166 153.10400390625,-166 153.10400390625,-166 C152.30799865722656,-166 151.54600524902344,-165.6840057373047 150.98300170898438,-165.12100219726562z"/></g><g opacity="1" transform="matrix(1,0,0,1,0,0)"><path class="primary" fill="rgb(58,51,71)" fill-opacity="1" d=" M-33.20000076293945,19.062000274658203 C-33.20000076293945,19.062000274658203 -174.13800048828125,160 -174.13800048828125,160 C-174.13800048828125,160 -175.01100158691406,160.84500122070312 -175.01100158691406,160.84500122070312 C-176.94700622558594,162.7209930419922 -175.6199951171875,166 -172.9239959716797,166 C-172.9239959716797,166 -153.0970001220703,166 -153.0970001220703,166 C-152.30099487304688,166 -151.53799438476562,165.6840057373047 -150.97500610351562,165.12100219726562 C-150.97500610351562,165.12100219726562 -21.077999114990234,35.2239990234375 -21.077999114990234,35.2239990234375 C-21.077999114990234,35.2239990234375 -33.20000076293945,19.062000274658203 -33.20000076293945,19.062000274658203z"/></g><g opacity="1" transform="matrix(1,0,0,1,-25.687999725341797,0)" style="mix-blend-mode: multiply;"><path class="primary" fill="rgb(58,51,71)" fill-opacity="0.5" d=" M4.635000228881836,35.2239990234375 C4.635000228881836,35.2239990234375 -7.486999988555908,19.062000274658203 -7.486999988555908,19.062000274658203 C-7.486999988555908,19.062000274658203 -148.4250030517578,160 -148.4250030517578,160 C-148.4250030517578,160 -149.29800415039062,160.84500122070312 -149.29800415039062,160.84500122070312 C-151.23399353027344,162.7209930419922 -149.90699768066406,166 -147.21099853515625,166 C-147.21099853515625,166 -127.38400268554688,166 -127.38400268554688,166 C-126.58799743652344,166 -125.82499694824219,165.6840057373047 -125.26200103759766,165.12100219726562 C-125.26200103759766,165.12100219726562 4.635000228881836,35.2239990234375 4.635000228881836,35.2239990234375z"/></g></g><g mask="url(#__lottie_element_22_2)" style="display: none;"><g transform="matrix(-1,0,0,1,214.99600219726562,215)" opacity="1"><g opacity="1" transform="matrix(1,0,0,1,0,0)"><path class="primary" fill="rgb(58,51,71)" fill-opacity="1" d=" M151.5330047607422,149.5780029296875 C151.5330047607422,149.5780029296875 -150.49600219726562,-153.1510009765625 -150.49600219726562,-153.1510009765625 C-150.49600219726562,-153.1510009765625 -149.99600219726562,-153.1510009765625 -149.99600219726562,-153.1510009765625 C-149.99600219726562,-153.1510009765625 151.2830047607422,149.57699584960938 151.2830047607422,149.57699584960938 C151.2830047607422,149.57699584960938 151.5330047607422,149.5780029296875 151.5330047607422,149.5780029296875z M-150.8459930419922,-164.6020050048828 C-151.41299438476562,-165.35699462890625 -152.302001953125,-165.802001953125 -153.24600219726562,-165.802001953125 C-153.24600219726562,-165.802001953125 -171.99600219726562,-165.9499969482422 -171.99600219726562,-165.9499969482422 C-174.46800231933594,-165.9499969482422 -175.87899780273438,-163.1280059814453 -174.39599609375,-161.14999389648438 C-174.39599609375,-161.14999389648438 150.60400390625,164.5989990234375 150.60400390625,164.5989990234375 C151.17100524902344,165.35400390625 152.05999755859375,165.7989959716797 153.00399780273438,165.7989959716797 C153.00399780273438,165.7989959716797 172.50399780273438,165.8470001220703 172.50399780273438,165.8470001220703 C174.9759979248047,165.8470001220703 176.38699340820312,163.02499389648438 174.9040069580078,161.0469970703125 C174.9040069580078,161.0469970703125 -150.8459930419922,-164.6020050048828 -150.8459930419922,-164.6020050048828z"/></g><g opacity="1" transform="matrix(-1,0,0,-1,-25.687999725341797,0)" style="mix-blend-mode: multiply;"><path class="primary" fill="rgb(58,51,71)" fill-opacity="0.5" d=" M124.25399780273438,164.5 C124.82099914550781,165.2550048828125 125.70999908447266,165.6999969482422 126.65399932861328,165.6999969482422 C126.65399932861328,165.6999969482422 146.9040069580078,165.74899291992188 146.9040069580078,165.74899291992188 C146.9040069580078,165.74899291992188 126.80513763427734,165.31362915039062 126.80513763427734,165.31362915039062 C126.80513763427734,165.31362915039062 126.30513763427734,165.31362915039062 126.30513763427734,165.31362915039062 C126.30513763427734,165.31362915039062 -11.791509628295898,27.864315032958984 -11.791509628295898,27.864315032958984 C-11.791509628295898,27.864315032958984 -36.55891418457031,-12.418538093566895 -36.55891418457031,-12.418538093566895 C-36.55891418457031,-12.418538093566895 -170.8612518310547,-158.984375 -170.8612518310547,-158.984375 C-170.8612518310547,-158.984375 -174.85108947753906,-162.97520446777344 -174.85108947753906,-162.97520446777344 C-174.85108947753906,-162.97520446777344 -179.12078857421875,-165.5019073486328 -179.12078857421875,-165.5019073486328 C-179.12078857421875,-165.5019073486328 -198.3459930419922,-166.0489959716797 -198.3459930419922,-166.0489959716797 C-200.8179931640625,-166.0489959716797 -202.22900390625,-163.2270050048828 -200.74600219726562,-161.24899291992188 C-200.74600219726562,-161.24899291992188 124.25399780273438,164.5 124.25399780273438,164.5z"/></g></g></g><g transform="matrix(1,0,0,1,214.99600219726562,215)" opacity="1" style="display: none;"><g opacity="1" transform="matrix(1,0,0,1,0,0)"><path class="primary" fill="rgb(58,51,71)" fill-opacity="1" d=" M87.46105194091797,146.05117797851562 C87.46105194091797,146.05117797851562 -131.97801208496094,-145.99319458007812 -131.97801208496094,-145.99319458007812 C-131.97801208496094,-145.99319458007812 -87.38147735595703,-145.99319458007812 -87.38147735595703,-145.99319458007812 C-87.38147735595703,-145.99319458007812 132.0535888671875,146.05117797851562 132.0535888671875,146.05117797851562 C132.0535888671875,146.05117797851562 87.46105194091797,146.05117797851562 87.46105194091797,146.05117797851562z M-76.3503189086914,-164.7996063232422 C-76.91732025146484,-165.55459594726562 -77.80632019042969,-165.99960327148438 -78.75032043457031,-165.99960327148438 C-78.75032043457031,-165.99960327148438 -165.99600219726562,-166 -165.99600219726562,-166 C-168.46800231933594,-166 -169.87899780273438,-163.17799377441406 -168.39599609375,-161.1999969482422 C-168.39599609375,-161.1999969482422 76.35352325439453,164.8000030517578 76.35352325439453,164.8000030517578 C76.92051696777344,165.55499267578125 77.80951690673828,166 78.7535171508789,166 C78.7535171508789,166 166.01759338378906,166 166.01759338378906,166 C168.48959350585938,166 169.9005889892578,163.17799377441406 168.4176025390625,161.1999969482422 C168.4176025390625,161.1999969482422 -76.3503189086914,-164.7996063232422 -76.3503189086914,-164.7996063232422z"/></g><g opacity="1" transform="matrix(1,0,0,1,-25.687999725341797,0)" style="mix-blend-mode: multiply;"><path class="primary" fill="rgb(58,51,71)" fill-opacity="0.5" d=" M102.24925994873047,164.8000030517578 C102.8162612915039,165.55499267578125 103.70526123046875,166 104.64926147460938,166 C104.64926147460938,166 150.44772338867188,165.99600219726562 150.44772338867188,165.99600219726562 C150.44772338867188,165.99600219726562 135.47012329101562,146.05117797851562 135.47012329101562,146.05117797851562 C135.47012329101562,146.05117797851562 113.17405700683594,146.05117797851562 113.17405700683594,146.05117797851562 C113.17405700683594,146.05117797851562 -106.2654037475586,-145.99319458007812 -106.2654037475586,-145.99319458007812 C-106.2654037475586,-145.99319458007812 -83.9669418334961,-145.99319458007812 -83.9669418334961,-145.99319458007812 C-83.9669418334961,-145.99319458007812 -98.99573516845703,-165.99440002441406 -98.99573516845703,-165.99440002441406 C-98.99573516845703,-165.99440002441406 -140.2830047607422,-166 -140.2830047607422,-166 C-142.7550048828125,-166 -144.16600036621094,-163.17799377441406 -142.68299865722656,-161.1999969482422 C-142.68299865722656,-161.1999969482422 102.24925994873047,164.8000030517578 102.24925994873047,164.8000030517578z"/></g></g><g mask="url(#__lottie_element_55_2)" style="display: none;"><g transform="matrix(-1,0,0,1,214.99600219726562,215)" opacity="1"><g opacity="1" transform="matrix(1,0,0,1,0,0)"><path class="primary" fill="rgb(58,51,71)" fill-opacity="1" d=" M122.73319244384766,147.98106384277344 C122.73319244384766,147.98106384277344 -142.24000549316406,-149.95941162109375 -142.24000549316406,-149.95941162109375 C-142.24000549316406,-149.95941162109375 -121.87902069091797,-149.95941162109375 -121.87902069091797,-149.95941162109375 C-121.87902069091797,-149.95941162109375 142.67835998535156,147.98106384277344 142.67835998535156,147.98106384277344 C142.67835998535156,147.98106384277344 122.73319244384766,147.98106384277344 122.73319244384766,147.98106384277344z M-117.48513793945312,-164.6901397705078 C-118.05213928222656,-165.4451446533203 -118.9411392211914,-165.89013671875 -119.88513946533203,-165.89013671875 C-119.88513946533203,-165.89013671875 -169.3180694580078,-165.97276306152344 -169.3180694580078,-165.97276306152344 C-171.79006958007812,-165.97276306152344 -173.20106506347656,-163.1507568359375 -171.7180633544922,-161.17276000976562 C-171.7180633544922,-161.17276000976562 117.3542251586914,164.68832397460938 117.3542251586914,164.68832397460938 C117.92122650146484,165.44332885742188 118.81022644042969,165.88832092285156 119.75422668457031,165.88832092285156 C119.75422668457031,165.88832092285156 169.6029815673828,165.91555786132812 169.6029815673828,165.91555786132812 C172.07498168945312,165.91555786132812 173.48597717285156,163.09356689453125 172.0029754638672,161.11557006835938 C172.0029754638672,161.11557006835938 -117.48513793945312,-164.6901397705078 -117.48513793945312,-164.6901397705078z"/></g><g opacity="1" transform="matrix(-1,0,0,-1,-25.687999725341797,0)" style="mix-blend-mode: multiply;"><path class="primary" fill="rgb(58,51,71)" fill-opacity="0.5" d=" M91.38156127929688,164.63385009765625 C91.94856262207031,165.38885498046875 92.83756256103516,165.83384704589844 93.78156280517578,165.83384704589844 C93.78156280517578,165.83384704589844 119.7356948852539,165.91737365722656 119.7356948852539,165.91737365722656 C119.7356948852539,165.91737365722656 106.56877899169922,149.91220092773438 106.56877899169922,149.91220092773438 C106.56877899169922,149.91220092773438 96.2493667602539,149.91220092773438 96.2493667602539,149.91220092773438 C96.2493667602539,149.91220092773438 -168.326171875,-148.08457946777344 -168.326171875,-148.08457946777344 C-168.326171875,-148.08457946777344 -157.26318359375,-148.1417694091797 -157.26318359375,-148.1417694091797 C-157.26318359375,-148.1417694091797 -171.50961303710938,-166.13800048828125 -171.50961303710938,-166.13800048828125 C-171.50961303710938,-166.13800048828125 -195.29164123535156,-166.02723693847656 -195.29164123535156,-166.02723693847656 C-197.76364135742188,-166.02723693847656 -199.1746368408203,-163.20523071289062 -197.69163513183594,-161.22723388671875 C-197.69163513183594,-161.22723388671875 91.38156127929688,164.63385009765625 91.38156127929688,164.63385009765625z"/></g></g></g><g mask="url(#__lottie_element_61_2)" style="display: none;"><g transform="matrix(1,0,0,1,214.99600219726562,215)" opacity="1"><g opacity="1" transform="matrix(1,0,0,1,0,0)"><path class="primary" fill="rgb(58,51,71)" fill-opacity="1" d=" M128.9871368408203,149.8984375 C128.9871368408203,149.8984375 -122.9996109008789,-145.47320556640625 -122.9996109008789,-145.47320556640625 C-122.9996109008789,-145.47320556640625 -124.02213287353516,-145.47320556640625 -124.02213287353516,-145.47320556640625 C-124.02213287353516,-145.47320556640625 128.6923370361328,149.8984375 128.6923370361328,149.8984375 C128.6923370361328,149.8984375 128.9871368408203,149.8984375 128.9871368408203,149.8984375z M-109.71050262451172,-164.75901794433594 C-110.27750396728516,-165.51402282714844 -111.16650390625,-165.95901489257812 -112.11050415039062,-165.95901489257812 C-112.11050415039062,-165.95901489257812 -165.99600219726562,-166 -165.99600219726562,-166 C-168.46800231933594,-166 -169.87899780273438,-163.17799377441406 -168.39599609375,-161.1999969482422 C-168.39599609375,-161.1999969482422 109.08576202392578,164.7989959716797 109.08576202392578,164.7989959716797 C109.6517562866211,165.5540008544922 110.54175567626953,165.99899291992188 111.48575592041016,165.99899291992188 C111.48575592041016,165.99899291992188 167.7952880859375,166 167.7952880859375,166 C170.2672882080078,166 171.67828369140625,163.17799377441406 170.19528198242188,161.1999969482422 C170.19528198242188,161.1999969482422 -109.71050262451172,-164.75901794433594 -109.71050262451172,-164.75901794433594z"/></g><g opacity="1" transform="matrix(1,0,0,1,-25.687999725341797,0)" style="mix-blend-mode: multiply;"><path class="primary" fill="rgb(58,51,71)" fill-opacity="0.5" d=" M134.7987518310547,164.7989959716797 C135.36575317382812,165.5540008544922 136.2547607421875,165.99899291992188 137.19876098632812,165.99899291992188 C137.19876098632812,165.99899291992188 167.81393432617188,165.68312072753906 167.81393432617188,165.68312072753906 C167.81393432617188,165.68312072753906 154.52325439453125,149.8984375 154.52325439453125,149.8984375 C154.52325439453125,149.8984375 154.6741485595703,149.8984375 154.6741485595703,149.8984375 C154.6741485595703,149.8984375 -97.3135986328125,-145.47320556640625 -97.3135986328125,-145.47320556640625 C-97.3135986328125,-145.47320556640625 -97.82036590576172,-145.47320556640625 -97.82036590576172,-145.47320556640625 C-97.82036590576172,-145.47320556640625 -115.01048278808594,-165.5781707763672 -115.01048278808594,-165.5781707763672 C-115.01048278808594,-165.5781707763672 -140.2830047607422,-166 -140.2830047607422,-166 C-142.7550048828125,-166 -144.16600036621094,-163.17799377441406 -142.68299865722656,-161.1999969482422 C-142.68299865722656,-161.1999969482422 134.7987518310547,164.7989959716797 134.7987518310547,164.7989959716797z"/></g></g></g><g mask="url(#__lottie_element_69_2)" style="display: block;"><g transform="matrix(-1,0,0,1,214.99600219726562,215)" opacity="1"><g opacity="1" transform="matrix(1,0,0,1,0,0)"><path class="primary" fill="rgb(58,51,71)" fill-opacity="1" d=" M149.4080047607422,150.7030029296875 C149.4080047607422,150.7030029296875 -150.87100219726562,-149.5260009765625 -150.87100219726562,-149.5260009765625 C-150.87100219726562,-149.5260009765625 -150.8090057373047,-149.46400451660156 -150.8090057373047,-149.46400451660156 C-150.8090057373047,-149.46400451660156 149.1580047607422,150.70199584960938 149.1580047607422,150.70199584960938 C149.1580047607422,150.70199584960938 149.4080047607422,150.7030029296875 149.4080047607422,150.7030029296875z M-150.8459930419922,-164.6020050048828 C-151.41299438476562,-165.35699462890625 -152.302001953125,-165.802001953125 -153.24600219726562,-165.802001953125 C-153.24600219726562,-165.802001953125 -171.99600219726562,-165.9499969482422 -171.99600219726562,-165.9499969482422 C-174.46800231933594,-165.9499969482422 -175.87899780273438,-163.1280059814453 -174.39599609375,-161.14999389648438 C-174.39599609375,-161.14999389648438 150.60400390625,164.5989990234375 150.60400390625,164.5989990234375 C151.17100524902344,165.35400390625 152.05999755859375,165.7989959716797 153.00399780273438,165.7989959716797 C153.00399780273438,165.7989959716797 172.50399780273438,165.8470001220703 172.50399780273438,165.8470001220703 C174.9759979248047,165.8470001220703 176.38699340820312,163.02499389648438 174.9040069580078,161.0469970703125 C174.9040069580078,161.0469970703125 -150.8459930419922,-164.6020050048828 -150.8459930419922,-164.6020050048828z"/></g><g opacity="1" transform="matrix(-1,0,0,-1,-25.687999725341797,0)" style="mix-blend-mode: multiply;"><path class="primary" fill="rgb(58,51,71)" fill-opacity="0.5" d=" M124.25399780273438,164.5 C124.82099914550781,165.2550048828125 125.70999908447266,165.6999969482422 126.65399932861328,165.6999969482422 C126.65399932861328,165.6999969482422 146.9040069580078,165.74899291992188 146.9040069580078,165.74899291992188 C146.9040069580078,165.74899291992188 125.68299865722656,149.47900390625 125.68299865722656,149.47900390625 C125.68299865722656,149.47900390625 125.18299865722656,149.47900390625 125.18299865722656,149.47900390625 C125.18299865722656,149.47900390625 -174.8459930419922,-150.87399291992188 -174.8459930419922,-150.87399291992188 C-174.8459930419922,-150.87399291992188 -174.8459930419922,-150.875 -174.8459930419922,-150.875 C-174.8459930419922,-150.875 -188.8459930419922,-166.25 -188.8459930419922,-166.25 C-188.8459930419922,-166.25 -198.3459930419922,-166.0489959716797 -198.3459930419922,-166.0489959716797 C-200.8179931640625,-166.0489959716797 -202.22900390625,-163.2270050048828 -200.74600219726562,-161.24899291992188 C-200.74600219726562,-161.24899291992188 124.25399780273438,164.5 124.25399780273438,164.5z"/></g></g></g><g mask="url(#__lottie_element_61_2)" style="display: block;"><g transform="matrix(1,0,0,1,214.99600219726562,215)" opacity="1"><g opacity="1" transform="matrix(1,0,0,1,0,0)"><path class="primary" fill="rgb(58,51,71)" fill-opacity="1" d=" M87.00399780273438,146 C87.00399780273438,146 -131.99600219726562,-146 -131.99600219726562,-146 C-131.99600219726562,-146 -86.99600219726562,-146 -86.99600219726562,-146 C-86.99600219726562,-146 132.00399780273438,146 132.00399780273438,146 C132.00399780273438,146 87.00399780273438,146 87.00399780273438,146z M-76.09600067138672,-164.8000030517578 C-76.66300201416016,-165.55499267578125 -77.552001953125,-166 -78.49600219726562,-166 C-78.49600219726562,-166 -165.99600219726562,-166 -165.99600219726562,-166 C-168.46800231933594,-166 -169.87899780273438,-163.17799377441406 -168.39599609375,-161.1999969482422 C-168.39599609375,-161.1999969482422 76.10399627685547,164.8000030517578 76.10399627685547,164.8000030517578 C76.6709976196289,165.55499267578125 77.55999755859375,166 78.50399780273438,166 C78.50399780273438,166 166.00399780273438,166 166.00399780273438,166 C168.4759979248047,166 169.88699340820312,163.17799377441406 168.4040069580078,161.1999969482422 C168.4040069580078,161.1999969482422 -76.09600067138672,-164.8000030517578 -76.09600067138672,-164.8000030517578z"/></g><g opacity="1" transform="matrix(1,0,0,1,-25.687999725341797,0)" style="mix-blend-mode: multiply;"><path class="primary" fill="rgb(58,51,71)" fill-opacity="0.5" d=" M101.81700134277344,164.8000030517578 C102.38400268554688,165.55499267578125 103.27300262451172,166 104.21700286865234,166 C104.21700286865234,166 150.2169952392578,166 150.2169952392578,166 C150.2169952392578,166 135.2169952392578,146 135.2169952392578,146 C135.2169952392578,146 112.71700286865234,146 112.71700286865234,146 C112.71700286865234,146 -106.28299713134766,-146 -106.28299713134766,-146 C-106.28299713134766,-146 -83.78299713134766,-146 -83.78299713134766,-146 C-83.78299713134766,-146 -98.78299713134766,-166 -98.78299713134766,-166 C-98.78299713134766,-166 -140.2830047607422,-166 -140.2830047607422,-166 C-142.7550048828125,-166 -144.16600036621094,-163.17799377441406 -142.68299865722656,-161.1999969482422 C-142.68299865722656,-161.1999969482422 101.81700134277344,164.8000030517578 101.81700134277344,164.8000030517578z"/></g></g></g><g transform="matrix(1,0,0,1,214.99600219726562,215)" opacity="1" style="display: block;"><g opacity="1" transform="matrix(1,0,0,1,0,0)"><path class="primary" fill="rgb(58,51,71)" fill-opacity="1" d=" M150.98300170898438,-165.12100219726562 C150.98300170898438,-165.12100219726562 21.086000442504883,-35.2239990234375 21.086000442504883,-35.2239990234375 C21.086000442504883,-35.2239990234375 33.20800018310547,-19.062000274658203 33.20800018310547,-19.062000274658203 C33.20800018310547,-19.062000274658203 174.14599609375,-160 174.14599609375,-160 C174.14599609375,-160 175.02000427246094,-160.85400390625 175.02000427246094,-160.85400390625 C176.9429931640625,-162.73399353027344 175.61300659179688,-166 172.9239959716797,-166 C172.9239959716797,-166 153.10400390625,-166 153.10400390625,-166 C152.30799865722656,-166 151.54600524902344,-165.6840057373047 150.98300170898438,-165.12100219726562z"/></g><g opacity="1" transform="matrix(1,0,0,1,0,0)"><path class="primary" fill="rgb(58,51,71)" fill-opacity="1" d=" M-33.20000076293945,19.062000274658203 C-33.20000076293945,19.062000274658203 -174.13800048828125,160 -174.13800048828125,160 C-174.13800048828125,160 -175.01100158691406,160.84500122070312 -175.01100158691406,160.84500122070312 C-176.94700622558594,162.7209930419922 -175.6199951171875,166 -172.9239959716797,166 C-172.9239959716797,166 -153.0970001220703,166 -153.0970001220703,166 C-152.30099487304688,166 -151.53799438476562,165.6840057373047 -150.97500610351562,165.12100219726562 C-150.97500610351562,165.12100219726562 -21.077999114990234,35.2239990234375 -21.077999114990234,35.2239990234375 C-21.077999114990234,35.2239990234375 -33.20000076293945,19.062000274658203 -33.20000076293945,19.062000274658203z"/></g><g opacity="1" transform="matrix(1,0,0,1,-25.687999725341797,0)" style="mix-blend-mode: multiply;"><path class="primary" fill="rgb(58,51,71)" fill-opacity="0.5" d=" M4.635000228881836,35.2239990234375 C4.635000228881836,35.2239990234375 -7.486999988555908,19.062000274658203 -7.486999988555908,19.062000274658203 C-7.486999988555908,19.062000274658203 -148.4250030517578,160 -148.4250030517578,160 C-148.4250030517578,160 -149.29800415039062,160.84500122070312 -149.29800415039062,160.84500122070312 C-151.23399353027344,162.7209930419922 -149.90699768066406,166 -147.21099853515625,166 C-147.21099853515625,166 -127.38400268554688,166 -127.38400268554688,166 C-126.58799743652344,166 -125.82499694824219,165.6840057373047 -125.26200103759766,165.12100219726562 C-125.26200103759766,165.12100219726562 4.635000228881836,35.2239990234375 4.635000228881836,35.2239990234375z"/></g></g><g transform="matrix(1,0,0,1,214.99600219726562,215)" opacity="1" style="display: block;"><g opacity="1" transform="matrix(1,0,0,1,0,0)"><path class="primary" fill="rgb(58,51,71)" fill-opacity="1" d=" M150.98300170898438,-165.12100219726562 C150.98300170898438,-165.12100219726562 21.086000442504883,-35.2239990234375 21.086000442504883,-35.2239990234375 C21.086000442504883,-35.2239990234375 33.20800018310547,-19.062000274658203 33.20800018310547,-19.062000274658203 C33.20800018310547,-19.062000274658203 174.14599609375,-160 174.14599609375,-160 C174.14599609375,-160 175.02000427246094,-160.85400390625 175.02000427246094,-160.85400390625 C176.9429931640625,-162.73399353027344 175.61300659179688,-166 172.9239959716797,-166 C172.9239959716797,-166 153.10400390625,-166 153.10400390625,-166 C152.30799865722656,-166 151.54600524902344,-165.6840057373047 150.98300170898438,-165.12100219726562z"/></g><g opacity="1" transform="matrix(1,0,0,1,0,0)"><path class="primary" fill="rgb(58,51,71)" fill-opacity="1" d=" M-33.20000076293945,19.062000274658203 C-33.20000076293945,19.062000274658203 -174.13800048828125,160 -174.13800048828125,160 C-174.13800048828125,160 -175.01100158691406,160.84500122070312 -175.01100158691406,160.84500122070312 C-176.94700622558594,162.7209930419922 -175.6199951171875,166 -172.9239959716797,166 C-172.9239959716797,166 -153.0970001220703,166 -153.0970001220703,166 C-152.30099487304688,166 -151.53799438476562,165.6840057373047 -150.97500610351562,165.12100219726562 C-150.97500610351562,165.12100219726562 -21.077999114990234,35.2239990234375 -21.077999114990234,35.2239990234375 C-21.077999114990234,35.2239990234375 -33.20000076293945,19.062000274658203 -33.20000076293945,19.062000274658203z"/></g><g opacity="1" transform="matrix(1,0,0,1,-25.687999725341797,0)" style="mix-blend-mode: multiply;"><path class="primary" fill="rgb(58,51,71)" fill-opacity="0.5" d=" M4.635000228881836,35.2239990234375 C4.635000228881836,35.2239990234375 -7.486999988555908,19.062000274658203 -7.486999988555908,19.062000274658203 C-7.486999988555908,19.062000274658203 -148.4250030517578,160 -148.4250030517578,160 C-148.4250030517578,160 -149.29800415039062,160.84500122070312 -149.29800415039062,160.84500122070312 C-151.23399353027344,162.7209930419922 -149.90699768066406,166 -147.21099853515625,166 C-147.21099853515625,166 -127.38400268554688,166 -127.38400268554688,166 C-126.58799743652344,166 -125.82499694824219,165.6840057373047 -125.26200103759766,165.12100219726562 C-125.26200103759766,165.12100219726562 4.635000228881836,35.2239990234375 4.635000228881836,35.2239990234375z"/></g></g></g></g></svg>