<svg xmlns="http://www.w3.org/2000/svg" xmlns:xlink="http://www.w3.org/1999/xlink" viewBox="0 0 430 430" width="430" height="430" preserveAspectRatio="xMidYMid meet" style="width: 100%; height: 100%; transform: translate3d(0px, 0px, 0px); content-visibility: visible;"><defs><clipPath id="__lottie_element_2090"><rect width="430" height="430" x="0" y="0"/></clipPath><clipPath id="__lottie_element_2092"><path d="M0,0 L430,0 L430,430 L0,430z"/></clipPath><g id="__lottie_element_2105"><g transform="matrix(1,0,0,1,128.5,339)" opacity="1" style="display: block;"><path fill="rgb(255,0,0)" fill-opacity="1" d=" M34.5,0 C34.5,0 34.5,0 34.5,0 C34.5,19.040550231933594 19.040550231933594,34.5 0,34.5 C0,34.5 0,34.5 0,34.5 C-19.040550231933594,34.5 -34.5,19.040550231933594 -34.5,0 C-34.5,0 -34.5,0 -34.5,0 C-34.5,-19.040550231933594 -19.040550231933594,-34.5 0,-34.5 C0,-34.5 0,-34.5 0,-34.5 C19.040550231933594,-34.5 34.5,-19.040550231933594 34.5,0z"/><g opacity="1" transform="matrix(1,0,0,1,0,0)"/></g></g><g id="__lottie_element_2117"><g transform="matrix(1,0,0,1,295.5,256)" opacity="1" style="display: block;"><g opacity="1" transform="matrix(1,0,0,1,0,0)"><path fill="rgb(255,0,0)" fill-opacity="1" d=" M34.5,0 C34.5,0 34.5,0 34.5,0 C34.5,19.040550231933594 19.040550231933594,34.5 0,34.5 C0,34.5 0,34.5 0,34.5 C-19.040550231933594,34.5 -34.5,19.040550231933594 -34.5,0 C-34.5,0 -34.5,0 -34.5,0 C-34.5,-19.040550231933594 -19.040550231933594,-34.5 0,-34.5 C0,-34.5 0,-34.5 0,-34.5 C19.040550231933594,-34.5 34.5,-19.040550231933594 34.5,0z"/></g></g></g><mask id="__lottie_element_2117_1" mask-type="alpha"><use xmlns:ns1="http://www.w3.org/1999/xlink" ns1:href="#__lottie_element_2117"/></mask><mask id="__lottie_element_2105_1" mask-type="alpha"><use xmlns:ns2="http://www.w3.org/1999/xlink" ns2:href="#__lottie_element_2105"/></mask></defs><g clip-path="url(#__lottie_element_2090)"><g clip-path="url(#__lottie_element_2092)" transform="matrix(1,0,0,1,0,0)" opacity="1" style="display: block;"><g transform="matrix(1,0,0,1,159.5,268.25)" opacity="1" style="display: block;"><g opacity="1" transform="matrix(1,0,0,1,0,0)"><path stroke-linecap="round" stroke-linejoin="miter" fill-opacity="0" stroke-miterlimit="4" class="primary" stroke="rgb(58,51,71)" stroke-opacity="1" stroke-width="7" d=" M0,-99.25 C0,-99.25 0,69.25 0,69.25"/></g></g><g transform="matrix(1,0,0,1,128.5,339)" opacity="1" style="display: block;"><path class="primary" fill="rgb(58,51,71)" fill-opacity="1" d=" M34.5,0 C34.5,0 34.5,0 34.5,0 C34.5,19.040550231933594 19.040550231933594,34.5 0,34.5 C0,34.5 0,34.5 0,34.5 C-19.040550231933594,34.5 -34.5,19.040550231933594 -34.5,0 C-34.5,0 -34.5,0 -34.5,0 C-34.5,-19.040550231933594 -19.040550231933594,-34.5 0,-34.5 C0,-34.5 0,-34.5 0,-34.5 C19.040550231933594,-34.5 34.5,-19.040550231933594 34.5,0z"/><path class="primary" fill="rgb(58,51,71)" fill-opacity="0.5" d=" M34.5,0 C34.5,0 34.5,0 34.5,0 C34.5,19.040550231933594 19.040550231933594,34.5 0,34.5 C0,34.5 0,34.5 0,34.5 C-19.040550231933594,34.5 -34.5,19.040550231933594 -34.5,0 C-34.5,0 -34.5,0 -34.5,0 C-34.5,-19.040550231933594 -19.040550231933594,-34.5 0,-34.5 C0,-34.5 0,-34.5 0,-34.5 C19.040550231933594,-34.5 34.5,-19.040550231933594 34.5,0z" style="mix-blend-mode: multiply;"/><g opacity="1" transform="matrix(1,0,0,1,0,0)"/></g><g mask="url(#__lottie_element_2105_1)" style="display: block;"><g transform="matrix(1,0,0,1,149.43800354003906,339)" opacity="1"><path class="primary" fill="rgb(58,51,71)" fill-opacity="1" d=" M34.5,0 C34.5,0 34.5,0 34.5,0 C34.5,19.040550231933594 19.040550231933594,34.5 0,34.5 C0,34.5 0,34.5 0,34.5 C-19.040550231933594,34.5 -34.5,19.040550231933594 -34.5,0 C-34.5,0 -34.5,0 -34.5,0 C-34.5,-19.040550231933594 -19.040550231933594,-34.5 0,-34.5 C0,-34.5 0,-34.5 0,-34.5 C19.040550231933594,-34.5 34.5,-19.040550231933594 34.5,0z"/><g opacity="1" transform="matrix(1,0,0,1,0,0)"/></g></g><g transform="matrix(1,0,0,1,326.5,193)" opacity="1" style="display: block;"><g opacity="1" transform="matrix(1,0,0,1,0,0)"><path stroke-linecap="round" stroke-linejoin="miter" fill-opacity="0" stroke-miterlimit="4" class="primary" stroke="rgb(58,51,71)" stroke-opacity="1" stroke-width="7" d=" M0,-92 C0,-92 0,64.5 0,64.5"/></g></g><g transform="matrix(1,0,0,1,295.5,256)" opacity="1" style="display: block;"><g opacity="1" transform="matrix(1,0,0,1,0,0)"><path class="primary" fill="rgb(58,51,71)" fill-opacity="1" d=" M34.5,0 C34.5,0 34.5,0 34.5,0 C34.5,19.040550231933594 19.040550231933594,34.5 0,34.5 C0,34.5 0,34.5 0,34.5 C-19.040550231933594,34.5 -34.5,19.040550231933594 -34.5,0 C-34.5,0 -34.5,0 -34.5,0 C-34.5,-19.040550231933594 -19.040550231933594,-34.5 0,-34.5 C0,-34.5 0,-34.5 0,-34.5 C19.040550231933594,-34.5 34.5,-19.040550231933594 34.5,0z"/><path class="primary" fill="rgb(58,51,71)" fill-opacity="0.5" d=" M34.5,0 C34.5,0 34.5,0 34.5,0 C34.5,19.040550231933594 19.040550231933594,34.5 0,34.5 C0,34.5 0,34.5 0,34.5 C-19.040550231933594,34.5 -34.5,19.040550231933594 -34.5,0 C-34.5,0 -34.5,0 -34.5,0 C-34.5,-19.040550231933594 -19.040550231933594,-34.5 0,-34.5 C0,-34.5 0,-34.5 0,-34.5 C19.040550231933594,-34.5 34.5,-19.040550231933594 34.5,0z" style="mix-blend-mode: multiply;"/></g></g><g mask="url(#__lottie_element_2117_1)" style="display: block;"><g transform="matrix(1,0,0,1,316.375,256)" opacity="1"><g opacity="1" transform="matrix(1,0,0,1,0,0)"><path class="primary" fill="rgb(58,51,71)" fill-opacity="1" d=" M34.5,0 C34.5,0 34.5,0 34.5,0 C34.5,19.040550231933594 19.040550231933594,34.5 0,34.5 C0,34.5 0,34.5 0,34.5 C-19.040550231933594,34.5 -34.5,19.040550231933594 -34.5,0 C-34.5,0 -34.5,0 -34.5,0 C-34.5,-19.040550231933594 -19.040550231933594,-34.5 0,-34.5 C0,-34.5 0,-34.5 0,-34.5 C19.040550231933594,-34.5 34.5,-19.040550231933594 34.5,0z"/></g></g></g><g transform="matrix(1,0,0,1,243.0019989013672,247.98599243164062)" opacity="1" style="display: block;"><g opacity="1" transform="matrix(1,0,0,1,0,0)"><path class="primary" fill="rgb(58,51,71)" fill-opacity="1" d=" M-86.76899719238281,-70.23600006103516 C-86.76899719238281,-70.23600006103516 87.11499786376953,-141.74899291992188 87.11499786376953,-141.74899291992188 C87.11499786376953,-141.74899291992188 86.88999938964844,-206.76600646972656 86.88999938964844,-206.76600646972656 C86.88600158691406,-208.8990020751953 84.72100067138672,-210.3470001220703 82.7490005493164,-209.53599548339844 C82.7490005493164,-209.53599548339844 -85.13899993896484,-140.48899841308594 -85.13899993896484,-140.48899841308594 C-86.26499938964844,-140.0260009765625 -87,-138.927001953125 -86.99800109863281,-137.70899963378906 C-86.99800109863281,-137.70899963378906 -86.76899719238281,-70.23600006103516 -86.76899719238281,-70.23600006103516z"/></g><g opacity="0.5" transform="matrix(1,0,0,1,0,0)" style="mix-blend-mode: multiply;"><path class="primary" fill="rgb(58,51,71)" fill-opacity="1" d=" M-86.76699829101562,-70.22899627685547 C-86.76699829101562,-70.22899627685547 -44.882999420166016,-87.45500183105469 -44.882999420166016,-87.45500183105469 C-44.882999420166016,-87.45500183105469 -45,-156.99000549316406 -45,-156.99000549316406 C-45,-156.99000549316406 -87,-139.71600341796875 -87,-139.71600341796875 C-87,-139.71600341796875 -86.76699829101562,-70.22899627685547 -86.76699829101562,-70.22899627685547z"/></g></g></g></g></svg>