<svg xmlns="http://www.w3.org/2000/svg" xmlns:xlink="http://www.w3.org/1999/xlink" viewBox="0 0 480 480" width="480" height="480" preserveAspectRatio="xMidYMid meet" style="width: 100%; height: 100%; transform: translate3d(0px, 0px, 0px); content-visibility: visible;"><defs><clipPath id="__lottie_element_278"><rect width="480" height="480" x="0" y="0"></rect></clipPath><g id="__lottie_element_297"><g style="display: none;" transform="matrix(1,0,0,1,237,247)" opacity="1"><g opacity="1" transform="matrix(1,0,0,1,0,0)"><path fill="rgb(36,21,38)" fill-opacity="1" d=" M3,-107 C-52.22800064086914,-107 -97,-62.229000091552734 -97,-7 C-97,48.22800064086914 -52.22800064086914,93 3,93 C58.22800064086914,93 103,48.22800064086914 103,-7 C103,-62.229000091552734 58.22800064086914,-107 3,-107z M3,73 C-41.18299865722656,73 -77,37.18299865722656 -77,-7 C-77,-51.18299865722656 -41.18299865722656,-87 3,-87 C47.18299865722656,-87 83,-51.18299865722656 83,-7 C83,37.18299865722656 47.18299865722656,73 3,73z"></path></g><g opacity="1" transform="matrix(1,0,0,1,0,0)"><path fill="rgb(36,21,38)" fill-opacity="1" d=" M3,-79.5 C-37.04100036621094,-79.5 -69.5,-47.04100036621094 -69.5,-7 C-69.5,33.04100036621094 -37.04100036621094,65.5 3,65.5 C43.04100036621094,65.5 75.5,33.04100036621094 75.5,-7 C75.5,-47.04100036621094 43.04100036621094,-79.5 3,-79.5z"></path></g></g></g><mask id="__lottie_element_297_1" mask-type="alpha"><use xlink:href="#__lottie_element_297"></use></mask><g id="__lottie_element_303"><g transform="matrix(1,0,0,1,237,247)" opacity="1" style="display: block;"><g opacity="1" transform="matrix(1,0,0,1,0,0)"><path fill="rgb(36,21,38)" fill-opacity="1" d=" M3,-107 C-52.22800064086914,-107 -97,-62.229000091552734 -97,-7 C-97,48.22800064086914 -52.22800064086914,93 3,93 C58.22800064086914,93 103,48.22800064086914 103,-7 C103,-62.229000091552734 58.22800064086914,-107 3,-107z M3,73 C-41.18299865722656,73 -77,37.18299865722656 -77,-7 C-77,-51.18299865722656 -41.18299865722656,-87 3,-87 C47.18299865722656,-87 83,-51.18299865722656 83,-7 C83,37.18299865722656 47.18299865722656,73 3,73z"></path></g><g opacity="1" transform="matrix(1,0,0,1,0,0)"><path fill="rgb(36,21,38)" fill-opacity="1" d=" M3,-79.5 C-37.04100036621094,-79.5 -69.5,-47.04100036621094 -69.5,-7 C-69.5,33.04100036621094 -37.04100036621094,65.5 3,65.5 C43.04100036621094,65.5 75.5,33.04100036621094 75.5,-7 C75.5,-47.04100036621094 43.04100036621094,-79.5 3,-79.5z"></path></g></g></g><mask id="__lottie_element_303_1" mask-type="alpha"><use xlink:href="#__lottie_element_303"></use></mask><linearGradient id="__lottie_element_313" spreadMethod="pad" gradientUnits="userSpaceOnUse" x1="-50.06999969482422" y1="-91.03900146484375" x2="70.08200073242188" y2="67.8030014038086"><stop offset="0%" stop-color="rgb(255,234,0)"></stop><stop offset="50%" stop-color="rgb(255,228,0)"></stop><stop offset="100%" stop-color="rgb(255,221,0)"></stop></linearGradient><linearGradient id="__lottie_element_319" spreadMethod="pad" gradientUnits="userSpaceOnUse" x1="-36.17599868774414" y1="-68.43900299072266" x2="52.7599983215332" y2="47.957000732421875"><stop offset="0%" stop-color="rgb(255,234,0)"></stop><stop offset="50%" stop-color="rgb(255,228,0)"></stop><stop offset="100%" stop-color="rgb(255,221,0)"></stop></linearGradient></defs><g clip-path="url(#__lottie_element_278)"><g transform="matrix(1,0,0,1,237,247)" opacity="1" style="display: block;"><g opacity="1" transform="matrix(1,0,0,1,0,0)"><path fill="rgb(255,158,0)" fill-opacity="1" d=" M9.005040168762207,93.96979522705078 C9.005040168762207,93.96979522705078 -10.280946731567383,93.67057037353516 -12.540767669677734,93.67057037353516 C-33.03400802612305,93.67057037353516 -67.72489929199219,60.2053337097168 -67.72489929199219,-7.068664073944092 C-67.72489929199219,-74.20532989501953 -33.03400802612305,-107.9757308959961 -12.540767669677734,-107.9757308959961 C-10.591440200805664,-107.9757308959961 9.005040168762207,-107.98201751708984 9.005040168762207,-107.98201751708984 C9.005040168762207,-107.98201751708984 9.005040168762207,-7.377336025238037 9.005040168762207,-7.377336025238037 C9.005040168762207,-7.377336025238037 9.005040168762207,93.96979522705078 9.005040168762207,93.96979522705078z"></path></g></g><g transform="matrix(0.5639724731445312,0,0,1,250.88864135742188,247)" opacity="1" style="display: block;"><g opacity="1" transform="matrix(1,0,0,1,0,0)"><path fill="url(#__lottie_element_313)" fill-opacity="1" d=" M103,-7 C103,48.22800064086914 58.22800064086914,93 3,93 C-52.22800064086914,93 -97,48.22800064086914 -97,-7 C-97,-62.22800064086914 -52.22800064086914,-107 3,-107 C58.22800064086914,-107 103,-62.22800064086914 103,-7z"></path></g></g><g transform="matrix(0.5639724731445312,0,0,1,250.88864135742188,247)" opacity="1" style="display: block;"><g opacity="1" transform="matrix(1,0,0,1,0,0)"><path fill="rgb(255,188,0)" fill-opacity="1" d=" M83,-7 C83,37.18299865722656 47.18299865722656,73 3,73 C-41.18299865722656,73 -77,37.18299865722656 -77,-7 C-77,-51.18299865722656 -41.18299865722656,-87 3,-87 C47.18299865722656,-87 83,-51.18299865722656 83,-7z"></path></g></g><g transform="matrix(0.5639724731445312,0,0,1,250.88864135742188,247)" opacity="1" style="display: block;"><g opacity="1" transform="matrix(1,0,0,1,0,0)"><path fill="url(#__lottie_element_319)" fill-opacity="1" d=" M75.5,-7 C75.5,33.04100036621094 43.04100036621094,65.5 3,65.5 C-37.04100036621094,65.5 -69.5,33.04100036621094 -69.5,-7 C-69.5,-47.04100036621094 -37.04100036621094,-79.5 3,-79.5 C43.04100036621094,-79.5 75.5,-47.04100036621094 75.5,-7z"></path></g></g><g mask="url(#__lottie_element_303_1)" style="display: block;"><g transform="matrix(0.6427876353263855,-0.7660444378852844,0.9651317000389099,0.8098416328430176,-3.0871734619140625,520.4098510742188)" opacity="0.5"><g opacity="1" transform="matrix(1,0,0,1,0,0)"><path fill="rgb(255,255,255)" fill-opacity="1" d=" M242,93 C242,93 162,93 162,93 C162,93 162,-107 162,-107 C162,-107 242,-107 242,-107 C242,-107 242,93 242,93z"></path></g></g></g><g mask="url(#__lottie_element_297_1)" style="display: none;"><g transform="matrix(0.6427876353263855,-0.7660444378852844,0.9651317000389099,0.8098416328430176,226.91282653808594,290.40985107421875)" opacity="0.5"><g opacity="1" transform="matrix(1,0,0,1,0,0)"><path fill="rgb(255,255,255)" fill-opacity="1" d=" M242,93 C242,93 162,93 162,93 C162,93 162,-107 162,-107 C162,-107 242,-107 242,-107 C242,-107 242,93 242,93z"></path></g></g></g><g transform="matrix(0.3217112123966217,1.2421760559082031,-1.2421760559082031,0.3217112123966217,55.96965026855469,191.52297973632812)" opacity="1" style="display: block;"><g opacity="1" transform="matrix(1,0,0,1,-3,-151)"><path fill="rgb(255,255,255)" fill-opacity="1" d=" M1.0481139102512613e-15,-17.117000579833984 C1.0481139102512613e-15,-17.117000579833984 2.5165929794311523,-2.5165929794311523 2.5165929794311523,-2.5165929794311523 C2.5165929794311523,-2.5165929794311523 17.117000579833984,0 17.117000579833984,0 C17.117000579833984,0 2.5165929794311523,2.5165929794311523 2.5165929794311523,2.5165929794311523 C2.5165929794311523,2.5165929794311523 1.0481139102512613e-15,17.117000579833984 1.0481139102512613e-15,17.117000579833984 C1.0481139102512613e-15,17.117000579833984 -2.5165929794311523,2.5165929794311523 -2.5165929794311523,2.5165929794311523 C-2.5165929794311523,2.5165929794311523 -17.117000579833984,2.0962278205025227e-15 -17.117000579833984,2.0962278205025227e-15 C-17.117000579833984,2.0962278205025227e-15 -2.5165929794311523,-2.5165929794311523 -2.5165929794311523,-2.5165929794311523 C-2.5165929794311523,-2.5165929794311523 1.0481139102512613e-15,-17.117000579833984 1.0481139102512613e-15,-17.117000579833984z"></path><path stroke-linecap="butt" stroke-linejoin="miter" fill-opacity="0" stroke-miterlimit="4" stroke="rgb(168,168,168)" stroke-opacity="1" stroke-width="0" d=" M1.0481139102512613e-15,-17.117000579833984 C1.0481139102512613e-15,-17.117000579833984 2.5165929794311523,-2.5165929794311523 2.5165929794311523,-2.5165929794311523 C2.5165929794311523,-2.5165929794311523 17.117000579833984,0 17.117000579833984,0 C17.117000579833984,0 2.5165929794311523,2.5165929794311523 2.5165929794311523,2.5165929794311523 C2.5165929794311523,2.5165929794311523 1.0481139102512613e-15,17.117000579833984 1.0481139102512613e-15,17.117000579833984 C1.0481139102512613e-15,17.117000579833984 -2.5165929794311523,2.5165929794311523 -2.5165929794311523,2.5165929794311523 C-2.5165929794311523,2.5165929794311523 -17.117000579833984,2.0962278205025227e-15 -17.117000579833984,2.0962278205025227e-15 C-17.117000579833984,2.0962278205025227e-15 -2.5165929794311523,-2.5165929794311523 -2.5165929794311523,-2.5165929794311523 C-2.5165929794311523,-2.5165929794311523 1.0481139102512613e-15,-17.117000579833984 1.0481139102512613e-15,-17.117000579833984z"></path></g></g><g style="display: block;" transform="matrix(0.4911641776561737,0.35008537769317627,-0.35008537769317627,0.4911641776561737,324.8309020996094,269.0750732421875)" opacity="1"><g opacity="1" transform="matrix(1,0,0,1,-3,-151)"><path fill="rgb(255,226,0)" fill-opacity="1" d=" M1.0481139102512613e-15,-17.117000579833984 C1.0481139102512613e-15,-17.117000579833984 2.5165929794311523,-2.5165929794311523 2.5165929794311523,-2.5165929794311523 C2.5165929794311523,-2.5165929794311523 17.117000579833984,0 17.117000579833984,0 C17.117000579833984,0 2.5165929794311523,2.5165929794311523 2.5165929794311523,2.5165929794311523 C2.5165929794311523,2.5165929794311523 1.0481139102512613e-15,17.117000579833984 1.0481139102512613e-15,17.117000579833984 C1.0481139102512613e-15,17.117000579833984 -2.5165929794311523,2.5165929794311523 -2.5165929794311523,2.5165929794311523 C-2.5165929794311523,2.5165929794311523 -17.117000579833984,2.0962278205025227e-15 -17.117000579833984,2.0962278205025227e-15 C-17.117000579833984,2.0962278205025227e-15 -2.5165929794311523,-2.5165929794311523 -2.5165929794311523,-2.5165929794311523 C-2.5165929794311523,-2.5165929794311523 1.0481139102512613e-15,-17.117000579833984 1.0481139102512613e-15,-17.117000579833984z"></path><path stroke-linecap="butt" stroke-linejoin="miter" fill-opacity="0" stroke-miterlimit="4" stroke="rgb(168,168,168)" stroke-opacity="1" stroke-width="0" d=" M1.0481139102512613e-15,-17.117000579833984 C1.0481139102512613e-15,-17.117000579833984 2.5165929794311523,-2.5165929794311523 2.5165929794311523,-2.5165929794311523 C2.5165929794311523,-2.5165929794311523 17.117000579833984,0 17.117000579833984,0 C17.117000579833984,0 2.5165929794311523,2.5165929794311523 2.5165929794311523,2.5165929794311523 C2.5165929794311523,2.5165929794311523 1.0481139102512613e-15,17.117000579833984 1.0481139102512613e-15,17.117000579833984 C1.0481139102512613e-15,17.117000579833984 -2.5165929794311523,2.5165929794311523 -2.5165929794311523,2.5165929794311523 C-2.5165929794311523,2.5165929794311523 -17.117000579833984,2.0962278205025227e-15 -17.117000579833984,2.0962278205025227e-15 C-17.117000579833984,2.0962278205025227e-15 -2.5165929794311523,-2.5165929794311523 -2.5165929794311523,-2.5165929794311523 C-2.5165929794311523,-2.5165929794311523 1.0481139102512613e-15,-17.117000579833984 1.0481139102512613e-15,-17.117000579833984z"></path></g></g><g style="display: none;" transform="matrix(-0.0073156943544745445,0.04598582535982132,-0.04598582535982132,-0.0073156943544745445,234.560302734375,338.2498779296875)" opacity="1"><g opacity="1" transform="matrix(1,0,0,1,-3,-151)"><path fill="rgb(255,255,255)" fill-opacity="1" d=" M1.0481139102512613e-15,-17.117000579833984 C1.0481139102512613e-15,-17.117000579833984 2.5165929794311523,-2.5165929794311523 2.5165929794311523,-2.5165929794311523 C2.5165929794311523,-2.5165929794311523 17.117000579833984,0 17.117000579833984,0 C17.117000579833984,0 2.5165929794311523,2.5165929794311523 2.5165929794311523,2.5165929794311523 C2.5165929794311523,2.5165929794311523 1.0481139102512613e-15,17.117000579833984 1.0481139102512613e-15,17.117000579833984 C1.0481139102512613e-15,17.117000579833984 -2.5165929794311523,2.5165929794311523 -2.5165929794311523,2.5165929794311523 C-2.5165929794311523,2.5165929794311523 -17.117000579833984,2.0962278205025227e-15 -17.117000579833984,2.0962278205025227e-15 C-17.117000579833984,2.0962278205025227e-15 -2.5165929794311523,-2.5165929794311523 -2.5165929794311523,-2.5165929794311523 C-2.5165929794311523,-2.5165929794311523 1.0481139102512613e-15,-17.117000579833984 1.0481139102512613e-15,-17.117000579833984z"></path><path stroke-linecap="butt" stroke-linejoin="miter" fill-opacity="0" stroke-miterlimit="4" stroke="rgb(168,168,168)" stroke-opacity="1" stroke-width="0" d=" M1.0481139102512613e-15,-17.117000579833984 C1.0481139102512613e-15,-17.117000579833984 2.5165929794311523,-2.5165929794311523 2.5165929794311523,-2.5165929794311523 C2.5165929794311523,-2.5165929794311523 17.117000579833984,0 17.117000579833984,0 C17.117000579833984,0 2.5165929794311523,2.5165929794311523 2.5165929794311523,2.5165929794311523 C2.5165929794311523,2.5165929794311523 1.0481139102512613e-15,17.117000579833984 1.0481139102512613e-15,17.117000579833984 C1.0481139102512613e-15,17.117000579833984 -2.5165929794311523,2.5165929794311523 -2.5165929794311523,2.5165929794311523 C-2.5165929794311523,2.5165929794311523 -17.117000579833984,2.0962278205025227e-15 -17.117000579833984,2.0962278205025227e-15 C-17.117000579833984,2.0962278205025227e-15 -2.5165929794311523,-2.5165929794311523 -2.5165929794311523,-2.5165929794311523 C-2.5165929794311523,-2.5165929794311523 1.0481139102512613e-15,-17.117000579833984 1.0481139102512613e-15,-17.117000579833984z"></path></g></g><g style="display: none;" transform="matrix(0,0,0,0,134.50900268554688,135.25)" opacity="1"><g opacity="1" transform="matrix(1,0,0,1,-3,-151)"><path fill="rgb(255,213,0)" fill-opacity="1" d=" M1.0481139102512613e-15,-17.117000579833984 C1.0481139102512613e-15,-17.117000579833984 2.5165929794311523,-2.5165929794311523 2.5165929794311523,-2.5165929794311523 C2.5165929794311523,-2.5165929794311523 17.117000579833984,0 17.117000579833984,0 C17.117000579833984,0 2.5165929794311523,2.5165929794311523 2.5165929794311523,2.5165929794311523 C2.5165929794311523,2.5165929794311523 1.0481139102512613e-15,17.117000579833984 1.0481139102512613e-15,17.117000579833984 C1.0481139102512613e-15,17.117000579833984 -2.5165929794311523,2.5165929794311523 -2.5165929794311523,2.5165929794311523 C-2.5165929794311523,2.5165929794311523 -17.117000579833984,2.0962278205025227e-15 -17.117000579833984,2.0962278205025227e-15 C-17.117000579833984,2.0962278205025227e-15 -2.5165929794311523,-2.5165929794311523 -2.5165929794311523,-2.5165929794311523 C-2.5165929794311523,-2.5165929794311523 1.0481139102512613e-15,-17.117000579833984 1.0481139102512613e-15,-17.117000579833984z"></path><path stroke-linecap="butt" stroke-linejoin="miter" fill-opacity="0" stroke-miterlimit="4" stroke="rgb(168,168,168)" stroke-opacity="1" stroke-width="0" d=" M1.0481139102512613e-15,-17.117000579833984 C1.0481139102512613e-15,-17.117000579833984 2.5165929794311523,-2.5165929794311523 2.5165929794311523,-2.5165929794311523 C2.5165929794311523,-2.5165929794311523 17.117000579833984,0 17.117000579833984,0 C17.117000579833984,0 2.5165929794311523,2.5165929794311523 2.5165929794311523,2.5165929794311523 C2.5165929794311523,2.5165929794311523 1.0481139102512613e-15,17.117000579833984 1.0481139102512613e-15,17.117000579833984 C1.0481139102512613e-15,17.117000579833984 -2.5165929794311523,2.5165929794311523 -2.5165929794311523,2.5165929794311523 C-2.5165929794311523,2.5165929794311523 -17.117000579833984,2.0962278205025227e-15 -17.117000579833984,2.0962278205025227e-15 C-17.117000579833984,2.0962278205025227e-15 -2.5165929794311523,-2.5165929794311523 -2.5165929794311523,-2.5165929794311523 C-2.5165929794311523,-2.5165929794311523 1.0481139102512613e-15,-17.117000579833984 1.0481139102512613e-15,-17.117000579833984z"></path></g></g><g style="display: none;" transform="matrix(-0.0073156943544745445,0.04598582535982132,-0.04598582535982132,-0.0073156943544745445,331.560302734375,379.2498779296875)" opacity="1"><g opacity="1" transform="matrix(1,0,0,1,-3,-151)"><path fill="rgb(255,213,0)" fill-opacity="1" d=" M1.0481139102512613e-15,-17.117000579833984 C1.0481139102512613e-15,-17.117000579833984 2.5165929794311523,-2.5165929794311523 2.5165929794311523,-2.5165929794311523 C2.5165929794311523,-2.5165929794311523 17.117000579833984,0 17.117000579833984,0 C17.117000579833984,0 2.5165929794311523,2.5165929794311523 2.5165929794311523,2.5165929794311523 C2.5165929794311523,2.5165929794311523 1.0481139102512613e-15,17.117000579833984 1.0481139102512613e-15,17.117000579833984 C1.0481139102512613e-15,17.117000579833984 -2.5165929794311523,2.5165929794311523 -2.5165929794311523,2.5165929794311523 C-2.5165929794311523,2.5165929794311523 -17.117000579833984,2.0962278205025227e-15 -17.117000579833984,2.0962278205025227e-15 C-17.117000579833984,2.0962278205025227e-15 -2.5165929794311523,-2.5165929794311523 -2.5165929794311523,-2.5165929794311523 C-2.5165929794311523,-2.5165929794311523 1.0481139102512613e-15,-17.117000579833984 1.0481139102512613e-15,-17.117000579833984z"></path><path stroke-linecap="butt" stroke-linejoin="miter" fill-opacity="0" stroke-miterlimit="4" stroke="rgb(168,168,168)" stroke-opacity="1" stroke-width="0" d=" M1.0481139102512613e-15,-17.117000579833984 C1.0481139102512613e-15,-17.117000579833984 2.5165929794311523,-2.5165929794311523 2.5165929794311523,-2.5165929794311523 C2.5165929794311523,-2.5165929794311523 17.117000579833984,0 17.117000579833984,0 C17.117000579833984,0 2.5165929794311523,2.5165929794311523 2.5165929794311523,2.5165929794311523 C2.5165929794311523,2.5165929794311523 1.0481139102512613e-15,17.117000579833984 1.0481139102512613e-15,17.117000579833984 C1.0481139102512613e-15,17.117000579833984 -2.5165929794311523,2.5165929794311523 -2.5165929794311523,2.5165929794311523 C-2.5165929794311523,2.5165929794311523 -17.117000579833984,2.0962278205025227e-15 -17.117000579833984,2.0962278205025227e-15 C-17.117000579833984,2.0962278205025227e-15 -2.5165929794311523,-2.5165929794311523 -2.5165929794311523,-2.5165929794311523 C-2.5165929794311523,-2.5165929794311523 1.0481139102512613e-15,-17.117000579833984 1.0481139102512613e-15,-17.117000579833984z"></path></g></g><g style="display: none;" transform="matrix(0,0,0,0,136.50900268554688,359.25)" opacity="1"><g opacity="1" transform="matrix(1,0,0,1,-3,-151)"><path fill="rgb(255,213,0)" fill-opacity="1" d=" M1.0481139102512613e-15,-17.117000579833984 C1.0481139102512613e-15,-17.117000579833984 2.5165929794311523,-2.5165929794311523 2.5165929794311523,-2.5165929794311523 C2.5165929794311523,-2.5165929794311523 17.117000579833984,0 17.117000579833984,0 C17.117000579833984,0 2.5165929794311523,2.5165929794311523 2.5165929794311523,2.5165929794311523 C2.5165929794311523,2.5165929794311523 1.0481139102512613e-15,17.117000579833984 1.0481139102512613e-15,17.117000579833984 C1.0481139102512613e-15,17.117000579833984 -2.5165929794311523,2.5165929794311523 -2.5165929794311523,2.5165929794311523 C-2.5165929794311523,2.5165929794311523 -17.117000579833984,2.0962278205025227e-15 -17.117000579833984,2.0962278205025227e-15 C-17.117000579833984,2.0962278205025227e-15 -2.5165929794311523,-2.5165929794311523 -2.5165929794311523,-2.5165929794311523 C-2.5165929794311523,-2.5165929794311523 1.0481139102512613e-15,-17.117000579833984 1.0481139102512613e-15,-17.117000579833984z"></path><path stroke-linecap="butt" stroke-linejoin="miter" fill-opacity="0" stroke-miterlimit="4" stroke="rgb(168,168,168)" stroke-opacity="1" stroke-width="0" d=" M1.0481139102512613e-15,-17.117000579833984 C1.0481139102512613e-15,-17.117000579833984 2.5165929794311523,-2.5165929794311523 2.5165929794311523,-2.5165929794311523 C2.5165929794311523,-2.5165929794311523 17.117000579833984,0 17.117000579833984,0 C17.117000579833984,0 2.5165929794311523,2.5165929794311523 2.5165929794311523,2.5165929794311523 C2.5165929794311523,2.5165929794311523 1.0481139102512613e-15,17.117000579833984 1.0481139102512613e-15,17.117000579833984 C1.0481139102512613e-15,17.117000579833984 -2.5165929794311523,2.5165929794311523 -2.5165929794311523,2.5165929794311523 C-2.5165929794311523,2.5165929794311523 -17.117000579833984,2.0962278205025227e-15 -17.117000579833984,2.0962278205025227e-15 C-17.117000579833984,2.0962278205025227e-15 -2.5165929794311523,-2.5165929794311523 -2.5165929794311523,-2.5165929794311523 C-2.5165929794311523,-2.5165929794311523 1.0481139102512613e-15,-17.117000579833984 1.0481139102512613e-15,-17.117000579833984z"></path></g></g></g></svg>