<svg xmlns="http://www.w3.org/2000/svg" xmlns:xlink="http://www.w3.org/1999/xlink" viewBox="0 0 430 430" width="430" height="430" preserveAspectRatio="xMidYMid meet" style="width: 100%; height: 100%; transform: translate3d(0px, 0px, 0px); content-visibility: visible;"><defs><clipPath id="__lottie_element_4583"><rect width="430" height="430" x="0" y="0"/></clipPath><clipPath id="__lottie_element_4585"><path d="M0,0 L430,0 L430,430 L0,430z"/></clipPath><g id="__lottie_element_4592"><g style="display: none;" transform="matrix(1,0,0,1,215,214.5)" opacity="1"><g opacity="1" transform="matrix(1,0,0,1,-0.7710000276565552,-0.30000001192092896)"><path fill="rgb(255,199,56)" fill-opacity="1" d=" M1.4618266820907593,-167.6999969482422 C1.4618266820907593,-167.6999969482422 163.7141876220703,-165.78302001953125 164.4411163330078,0.7169856429100037 C165.15097045898438,163.21697998046875 1.5807794332504272,167.6999969482422 1.5807794332504272,167.6999969482422 C1.5807794332504272,167.6999969482422 -0.4268271028995514,167.6999969482422 -0.4268271028995514,167.6999969482422 C-0.4268271028995514,167.6999969482422 160.5311737060547,164.72926330566406 161.31544494628906,0.1919267177581787 C162.10037231445312,-164.2006072998047 -0.4268271028995514,-167.6999969482422 -0.4268271028995514,-167.6999969482422 C-0.4268271028995514,-167.6999969482422 1.4618266820907593,-167.6999969482422 1.4618266820907593,-167.6999969482422z"/><path style="mix-blend-mode: multiply;" fill="rgb(255,199,56)" fill-opacity="0" d=" M1.4618266820907593,-167.6999969482422 C1.4618266820907593,-167.6999969482422 163.7141876220703,-165.78302001953125 164.4411163330078,0.7169856429100037 C165.15097045898438,163.21697998046875 1.5807794332504272,167.6999969482422 1.5807794332504272,167.6999969482422 C1.5807794332504272,167.6999969482422 -0.4268271028995514,167.6999969482422 -0.4268271028995514,167.6999969482422 C-0.4268271028995514,167.6999969482422 160.5311737060547,164.72926330566406 161.31544494628906,0.1919267177581787 C162.10037231445312,-164.2006072998047 -0.4268271028995514,-167.6999969482422 -0.4268271028995514,-167.6999969482422 C-0.4268271028995514,-167.6999969482422 1.4618266820907593,-167.6999969482422 1.4618266820907593,-167.6999969482422z"/></g></g></g><g id="__lottie_element_4601"><g transform="matrix(1,0,0,1,214.99000549316406,215)" opacity="1" style="display: none;"><g opacity="1" transform="matrix(1,0,0,1,0,0)"><path fill="rgb(255,199,56)" fill-opacity="1" d=" M88.77999877929688,172.9499969482422 C120.46199798583984,159.3560028076172 142.10400390625,133.26699829101562 159.4600067138672,103.4800033569336 C159.4600067138672,103.4800033569336 -91.44999694824219,-180.27999877929688 -91.44999694824219,-180.27999877929688 C-123.13200378417969,-166.68600463867188 -149.60400390625,-143.26699829101562 -166.9600067138672,-113.4800033569336 C-166.9600067138672,-113.4800033569336 88.77999877929688,172.9499969482422 88.77999877929688,172.9499969482422z"/></g></g></g><filter id="__lottie_element_4613" filterUnits="objectBoundingBox" x="0%" y="0%" width="100%" height="100%"><feComponentTransfer in="SourceGraphic"><feFuncA type="table" tableValues="1.0 0.0"/></feComponentTransfer></filter><mask id="__lottie_element_4601_2" mask-type="alpha"><g filter="url(#__lottie_element_4613)"><rect width="430" height="430" x="0" y="0" fill="#ffffff" opacity="0"/><use xmlns:ns1="http://www.w3.org/1999/xlink" ns1:href="#__lottie_element_4601"/></g></mask><mask id="__lottie_element_4592_1" mask-type="alpha"><use xmlns:ns2="http://www.w3.org/1999/xlink" ns2:href="#__lottie_element_4592"/></mask><g id="__lottie_element_4655"><g style="display: none;" transform="matrix(1,0,0,1,214.99000549316406,215)" opacity="1"><g opacity="1" transform="matrix(1,0,0,1,0,0)"><path fill="rgb(255,199,56)" fill-opacity="1" d=" M88.77999877929688,172.9499969482422 C120.46199798583984,159.3560028076172 142.10400390625,133.26699829101562 159.4600067138672,103.4800033569336 C159.4600067138672,103.4800033569336 -91.44999694824219,-180.27999877929688 -91.44999694824219,-180.27999877929688 C-123.13200378417969,-166.68600463867188 -149.60400390625,-143.26699829101562 -166.9600067138672,-113.4800033569336 C-166.9600067138672,-113.4800033569336 88.77999877929688,172.9499969482422 88.77999877929688,172.9499969482422z"/></g></g></g><filter id="__lottie_element_4661" filterUnits="objectBoundingBox" x="0%" y="0%" width="100%" height="100%"><feComponentTransfer in="SourceGraphic"><feFuncA type="table" tableValues="1.0 0.0"/></feComponentTransfer></filter><mask id="__lottie_element_4655_2" mask-type="alpha"><g filter="url(#__lottie_element_4661)"><rect width="430" height="430" x="0" y="0" fill="#ffffff" opacity="0"/><use xmlns:ns3="http://www.w3.org/1999/xlink" ns3:href="#__lottie_element_4655"/></g></mask><g id="__lottie_element_4668"><g transform="matrix(1,0,0,1,214.99000549316406,215)" opacity="1" style="display: none;"><g opacity="1" transform="matrix(1,0,0,1,0,0)"><path fill="rgb(255,199,56)" fill-opacity="1" d=" M39.28000259399414,301.5950012207031 C45.010005950927734,299 45.56200408935547,303.9909973144531 58.510005950927734,281.76898193359375 C58.510005950927734,281.76898193359375 -231.17698669433594,-78.42500305175781 -231.17698669433594,-78.42500305175781 C-254.81199645996094,-68.28300476074219 -254.989990234375,-60.00100326538086 -259.5099792480469,-58.09100341796875 C-259.5099792480469,-58.09100341796875 39.28000259399414,301.5950012207031 39.28000259399414,301.5950012207031z"/></g></g></g><filter id="__lottie_element_4674" filterUnits="objectBoundingBox" x="0%" y="0%" width="100%" height="100%"><feComponentTransfer in="SourceGraphic"><feFuncA type="table" tableValues="1.0 0.0"/></feComponentTransfer></filter><mask id="__lottie_element_4668_2" mask-type="alpha"><g filter="url(#__lottie_element_4674)"><rect width="430" height="430" x="0" y="0" fill="#ffffff" opacity="0"/><use xmlns:ns4="http://www.w3.org/1999/xlink" ns4:href="#__lottie_element_4668"/></g></mask><g id="__lottie_element_4681"><g transform="matrix(1,0,0,1,215,214.5)" opacity="1" style="display: none;"><g opacity="1" transform="matrix(1,0,0,1,-0.7710000276565552,-0.30000001192092896)"><path fill="rgb(255,199,56)" fill-opacity="1" d=" M0.2671181559562683,-167.6999969482422 C59.15702438354492,-160.2191925048828 167.16188049316406,-125.79688262939453 165.4058074951172,-0.29834362864494324 C163.6606903076172,124.39865112304688 37.7120475769043,171.29078674316406 0.2671181559562683,167.6999969482422 C0.11550712585449219,167.68504333496094 0.4953981935977936,167.68504333496094 0.6470091938972473,167.6999969482422 C41.12715148925781,171.7895050048828 161.6837921142578,130.40826416015625 165.26898193359375,-0.8972514867782593 C168.538330078125,-120.78900146484375 58.08364486694336,-161.71534729003906 0.6470091938972473,-167.6999969482422 C0.4953981935977936,-167.71595764160156 0.11650457233190536,-167.7189483642578 0.2671181559562683,-167.6999969482422z"/><path fill="rgb(255,199,56)" fill-opacity="0" d=" M0.2671181559562683,-167.6999969482422 C59.15702438354492,-160.2191925048828 167.16188049316406,-125.79688262939453 165.4058074951172,-0.29834362864494324 C163.6606903076172,124.39865112304688 37.7120475769043,171.29078674316406 0.2671181559562683,167.6999969482422 C0.11550712585449219,167.68504333496094 0.4953981935977936,167.68504333496094 0.6470091938972473,167.6999969482422 C41.12715148925781,171.7895050048828 161.6837921142578,130.40826416015625 165.26898193359375,-0.8972514867782593 C168.538330078125,-120.78900146484375 58.08364486694336,-161.71534729003906 0.6470091938972473,-167.6999969482422 C0.4953981935977936,-167.71595764160156 0.11650457233190536,-167.7189483642578 0.2671181559562683,-167.6999969482422z" style="mix-blend-mode: multiply;"/></g></g></g><mask id="__lottie_element_4681_1" mask-type="alpha"><use xmlns:ns5="http://www.w3.org/1999/xlink" ns5:href="#__lottie_element_4681"/></mask><g id="__lottie_element_4696"><g style="display: block;" transform="matrix(1,0,0,1,214.99000549316406,215)" opacity="1"><g opacity="1" transform="matrix(1,0,0,1,0,0)"><path fill="rgb(255,199,56)" fill-opacity="1" d=" M88.77999877929688,172.9499969482422 C120.46199798583984,159.3560028076172 142.10400390625,133.26699829101562 159.4600067138672,103.4800033569336 C159.4600067138672,103.4800033569336 -91.44999694824219,-180.27999877929688 -91.44999694824219,-180.27999877929688 C-123.13200378417969,-166.68600463867188 -149.60400390625,-143.26699829101562 -166.9600067138672,-113.4800033569336 C-166.9600067138672,-113.4800033569336 88.77999877929688,172.9499969482422 88.77999877929688,172.9499969482422z"/></g></g></g><filter id="__lottie_element_4702" filterUnits="objectBoundingBox" x="0%" y="0%" width="100%" height="100%"><feComponentTransfer in="SourceGraphic"><feFuncA type="table" tableValues="1.0 0.0"/></feComponentTransfer></filter><mask id="__lottie_element_4696_2" mask-type="alpha"><g filter="url(#__lottie_element_4702)"><rect width="430" height="430" x="0" y="0" fill="#ffffff" opacity="0"/><use xmlns:ns6="http://www.w3.org/1999/xlink" ns6:href="#__lottie_element_4696"/></g></mask></defs><g clip-path="url(#__lottie_element_4583)"><g clip-path="url(#__lottie_element_4585)" transform="matrix(1,0,0,1,0,0)" opacity="1" style="display: block;"><g transform="matrix(1,0,0,1,215,214.5)" opacity="1" style="display: none;"><g opacity="1" transform="matrix(1,0,0,1,-0.7710000276565552,-0.30000001192092896)"><path class="primary" fill="rgb(255,199,56)" fill-opacity="1" d=" M1.4618266820907593,-167.6999969482422 C1.4618266820907593,-167.6999969482422 163.7141876220703,-165.78302001953125 164.4411163330078,0.7169856429100037 C165.15097045898438,163.21697998046875 1.5807794332504272,167.6999969482422 1.5807794332504272,167.6999969482422 C1.5807794332504272,167.6999969482422 -0.4268271028995514,167.6999969482422 -0.4268271028995514,167.6999969482422 C-0.4268271028995514,167.6999969482422 160.5311737060547,164.72926330566406 161.31544494628906,0.1919267177581787 C162.10037231445312,-164.2006072998047 -0.4268271028995514,-167.6999969482422 -0.4268271028995514,-167.6999969482422 C-0.4268271028995514,-167.6999969482422 1.4618266820907593,-167.6999969482422 1.4618266820907593,-167.6999969482422z"/><path class="primary" fill="rgb(255,199,56)" fill-opacity="0" d=" M1.4618266820907593,-167.6999969482422 C1.4618266820907593,-167.6999969482422 163.7141876220703,-165.78302001953125 164.4411163330078,0.7169856429100037 C165.15097045898438,163.21697998046875 1.5807794332504272,167.6999969482422 1.5807794332504272,167.6999969482422 C1.5807794332504272,167.6999969482422 -0.4268271028995514,167.6999969482422 -0.4268271028995514,167.6999969482422 C-0.4268271028995514,167.6999969482422 160.5311737060547,164.72926330566406 161.31544494628906,0.1919267177581787 C162.10037231445312,-164.2006072998047 -0.4268271028995514,-167.6999969482422 -0.4268271028995514,-167.6999969482422 C-0.4268271028995514,-167.6999969482422 1.4618266820907593,-167.6999969482422 1.4618266820907593,-167.6999969482422z" style="mix-blend-mode: multiply;"/></g></g><g mask="url(#__lottie_element_4592_1)" style="display: none;"><g transform="matrix(1,0,0,1,215,214.5)" opacity="1"><g opacity="1" transform="matrix(1,0,0,1,0,0)"><path stroke-linecap="round" stroke-linejoin="miter" fill-opacity="0" stroke-miterlimit="4" class="primary" stroke="rgb(255,199,56)" stroke-opacity="1" stroke-width="7" d=" M-1,165 C-1,165 -0.5,165 -0.5,165 M-100.5,134.5 C-100.5,134.5 -100,134.5 -100,134.5 M-134.5,100.5 C-134.5,100.5 -134,100.5 -134,100.5 M-154,66.5 C-154,66.5 -153.5,66.5 -153.5,66.5 M-165,33.5 C-165,33.5 -164.5,33.5 -164.5,33.5 M-168.5,-0.5 C-168.5,-0.5 -168,-0.5 -168,-0.5 M-165,-33.5 C-165,-33.5 -164.5,-33.5 -164.5,-33.5 M-154,-67.5 C-154,-67.5 -153.5,-67.5 -153.5,-67.5 M-134.5,-100.5 C-134.5,-100.5 -134,-100.5 -134,-100.5 M-100.5,-134.5 C-100.5,-134.5 -100,-134.5 -100,-134.5 M-1,-166.875 C-1,-166.875 -0.5,-166.875 -0.5,-166.875"/><path stroke-linecap="round" stroke-linejoin="miter" fill-opacity="0" stroke-miterlimit="4" class="primary" stroke="rgb(255,199,56)" stroke-opacity="0.5" stroke-width="7" d=" M-1,165 C-1,165 -0.5,165 -0.5,165 M-100.5,134.5 C-100.5,134.5 -100,134.5 -100,134.5 M-134.5,100.5 C-134.5,100.5 -134,100.5 -134,100.5 M-154,66.5 C-154,66.5 -153.5,66.5 -153.5,66.5 M-165,33.5 C-165,33.5 -164.5,33.5 -164.5,33.5 M-168.5,-0.5 C-168.5,-0.5 -168,-0.5 -168,-0.5 M-165,-33.5 C-165,-33.5 -164.5,-33.5 -164.5,-33.5 M-154,-67.5 C-154,-67.5 -153.5,-67.5 -153.5,-67.5 M-134.5,-100.5 C-134.5,-100.5 -134,-100.5 -134,-100.5 M-100.5,-134.5 C-100.5,-134.5 -100,-134.5 -100,-134.5 M-1,-166.875 C-1,-166.875 -0.5,-166.875 -0.5,-166.875" style="mix-blend-mode: multiply;"/></g></g></g><g transform="matrix(1,0,0,1,214.5,214.5)" opacity="1" style="display: none;"><g opacity="1" transform="matrix(1,0,0,1,0,0)"><path class="primary" fill="rgb(255,199,56)" fill-opacity="1" d=" M0,-167.5 C92.50800323486328,-167.5 167.5,-92.50800323486328 167.5,0 C167.5,92.50800323486328 92.50800323486328,167.5 0,167.5 C-92.50800323486328,167.5 -167.5,92.50800323486328 -167.5,0 C-167.5,-92.50800323486328 -92.50800323486328,-167.5 0,-167.5z"/></g></g><g mask="url(#__lottie_element_4601_2)" style="display: none;"><g transform="matrix(1,0,0,1,214.5,214.5)" opacity="1"><g opacity="1" transform="matrix(1,0,0,1,0,0)"><path class="primary" fill="rgb(255,199,56)" fill-opacity="1" d=" M0,-167.5 C92.50800323486328,-167.5 167.5,-92.50800323486328 167.5,0 C167.5,92.50800323486328 92.50800323486328,167.5 0,167.5 C-92.50800323486328,167.5 -167.5,92.50800323486328 -167.5,0 C-167.5,-92.50800323486328 -92.50800323486328,-167.5 0,-167.5z"/><path class="primary" fill="rgb(255,199,56)" fill-opacity="0.5" d=" M0,-167.5 C92.50800323486328,-167.5 167.5,-92.50800323486328 167.5,0 C167.5,92.50800323486328 92.50800323486328,167.5 0,167.5 C-92.50800323486328,167.5 -167.5,92.50800323486328 -167.5,0 C-167.5,-92.50800323486328 -92.50800323486328,-167.5 0,-167.5z" style="mix-blend-mode: multiply;"/></g></g></g><g transform="matrix(1,0,0,1,214.5,214.5)" opacity="1" style="display: none;"><g opacity="1" transform="matrix(1,0,0,1,0,0)"/><g opacity="1" transform="matrix(1,0,0,1,0,0)"><path stroke-linecap="round" stroke-linejoin="round" fill-opacity="0" class="secondary" stroke="rgb(178,104,54)" stroke-opacity="1" stroke-width="7" d=" M0,129 C71.24500274658203,129 129,71.24500274658203 129,0 C129,-71.24500274658203 71.24500274658203,-129 0,-129 C-71.24500274658203,-129 -129,-71.24500274658203 -129,0 C-129,71.24500274658203 -71.24500274658203,129 0,129z"/></g></g><g transform="matrix(1,0,0,1,214.5,214.5)" opacity="1" style="display: none;"/><g transform="matrix(1,0,0,1,214.5,214.5)" opacity="1" style="display: none;"><g opacity="1" transform="matrix(1,0,0,1,0,0)"><path class="primary" fill="rgb(255,199,56)" fill-opacity="1" d=" M0,-167.5 C92.50800323486328,-167.5 167.5,-92.50800323486328 167.5,0 C167.5,92.50800323486328 92.50800323486328,167.5 0,167.5 C-92.50800323486328,167.5 -167.5,92.50800323486328 -167.5,0 C-167.5,-92.50800323486328 -92.50800323486328,-167.5 0,-167.5z"/></g></g><g mask="url(#__lottie_element_4655_2)" style="display: none;"><g transform="matrix(1,0,0,1,214.5,214.5)" opacity="1"><g opacity="1" transform="matrix(1,0,0,1,0,0)"><path class="primary" fill="rgb(255,199,56)" fill-opacity="1" d=" M0,-167.5 C92.50800323486328,-167.5 167.5,-92.50800323486328 167.5,0 C167.5,92.50800323486328 92.50800323486328,167.5 0,167.5 C-92.50800323486328,167.5 -167.5,92.50800323486328 -167.5,0 C-167.5,-92.50800323486328 -92.50800323486328,-167.5 0,-167.5z"/><path class="primary" fill="rgb(255,199,56)" fill-opacity="0.5" d=" M0,-167.5 C92.50800323486328,-167.5 167.5,-92.50800323486328 167.5,0 C167.5,92.50800323486328 92.50800323486328,167.5 0,167.5 C-92.50800323486328,167.5 -167.5,92.50800323486328 -167.5,0 C-167.5,-92.50800323486328 -92.50800323486328,-167.5 0,-167.5z" style="mix-blend-mode: multiply;"/></g></g></g><g transform="matrix(1,0,0,1,214.5,214.5)" opacity="1" style="display: none;"><g opacity="1" transform="matrix(1,0,0,1,0,0)"><path stroke-linecap="round" stroke-linejoin="round" fill-opacity="0" class="secondary" stroke="rgb(178,104,54)" stroke-opacity="1" stroke-width="7" d=" M0,129 C71.24500274658203,129 129,71.24500274658203 129,0 C129,-71.24500274658203 71.24500274658203,-129 0,-129 C-71.24500274658203,-129 -129,-71.24500274658203 -129,0 C-129,71.24500274658203 -71.24500274658203,129 0,129z"/></g></g><g transform="matrix(1,0,0,1,215,214.5)" opacity="1" style="display: none;"><g opacity="1" transform="matrix(1,0,0,1,-0.7710000276565552,-0.30000001192092896)"><path class="primary" fill="rgb(255,199,56)" fill-opacity="1" d=" M0.2642703950405121,-167.6999969482422 C59.165523529052734,-160.21775817871094 167.17105102539062,-125.78892517089844 165.41453552246094,-0.29854196310043335 C163.66896057128906,124.39116668701172 37.7164192199707,171.29147338867188 0.2642703950405121,167.6999969482422 C0.11263334006071091,167.68504333496094 0.4983006715774536,167.68502807617188 0.6499377489089966,167.6999969482422 C41.137874603271484,171.790283203125 161.6734619140625,130.4899139404297 165.26016235351562,-0.8149749040603638 C168.5310516357422,-120.69983673095703 58.09764099121094,-161.71420288085938 0.6499377489089966,-167.6999969482422 C0.4983006715774536,-167.71597290039062 0.11363334208726883,-167.7189483642578 0.2642703950405121,-167.6999969482422z"/><path class="primary" fill="rgb(255,199,56)" fill-opacity="0" d=" M0.2642703950405121,-167.6999969482422 C59.165523529052734,-160.21775817871094 167.17105102539062,-125.78892517089844 165.41453552246094,-0.29854196310043335 C163.66896057128906,124.39116668701172 37.7164192199707,171.29147338867188 0.2642703950405121,167.6999969482422 C0.11263334006071091,167.68504333496094 0.4983006715774536,167.68502807617188 0.6499377489089966,167.6999969482422 C41.137874603271484,171.790283203125 161.6734619140625,130.4899139404297 165.26016235351562,-0.8149749040603638 C168.5310516357422,-120.69983673095703 58.09764099121094,-161.71420288085938 0.6499377489089966,-167.6999969482422 C0.4983006715774536,-167.71597290039062 0.11363334208726883,-167.7189483642578 0.2642703950405121,-167.6999969482422z" style="mix-blend-mode: multiply;"/></g></g><g mask="url(#__lottie_element_4681_1)" style="display: none;"><g transform="matrix(1,0,0,1,215,214.5)" opacity="1"><g opacity="1" transform="matrix(1,0,0,1,0,0)"><path stroke-linecap="round" stroke-linejoin="miter" fill-opacity="0" stroke-miterlimit="4" class="primary" stroke="rgb(255,199,56)" stroke-opacity="1" stroke-width="7" d=" M-0.16109836101531982,167.5 C-0.16109836101531982,167.5 -0.3389016389846802,167.5 -0.3389016389846802,167.5 M98.99044036865234,134.5 C98.99044036865234,134.5 98.81263732910156,134.5 98.81263732910156,134.5 M132.87136840820312,100.5 C132.87136840820312,100.5 132.6935577392578,100.5 132.6935577392578,100.5 M152.30307006835938,66.5 C152.30307006835938,66.5 152.12527465820312,66.5 152.12527465820312,66.5 M163.26455688476562,33.5 C163.26455688476562,33.5 163.0867462158203,33.5 163.0867462158203,33.5 M166.75228881835938,-0.5 C166.75228881835938,-0.5 166.57449340820312,-0.5 166.57449340820312,-0.5 M163.26455688476562,-33.5 C163.26455688476562,-33.5 163.0867462158203,-33.5 163.0867462158203,-33.5 M152.30307006835938,-67.5 C152.30307006835938,-67.5 152.12527465820312,-67.5 152.12527465820312,-67.5 M132.87136840820312,-100.5 C132.87136840820312,-100.5 132.6935577392578,-100.5 132.6935577392578,-100.5 M98.99044036865234,-134.5 C98.99044036865234,-134.5 98.81263732910156,-134.5 98.81263732910156,-134.5 M-0.16109836101531982,-167.5 C-0.16109836101531982,-167.5 -0.3389016389846802,-167.5 -0.3389016389846802,-167.5"/><path stroke-linecap="round" stroke-linejoin="miter" fill-opacity="0" stroke-miterlimit="4" class="primary" stroke="rgb(255,199,56)" stroke-opacity="0.5" stroke-width="7" d=" M-0.16109836101531982,167.5 C-0.16109836101531982,167.5 -0.3389016389846802,167.5 -0.3389016389846802,167.5 M98.99044036865234,134.5 C98.99044036865234,134.5 98.81263732910156,134.5 98.81263732910156,134.5 M132.87136840820312,100.5 C132.87136840820312,100.5 132.6935577392578,100.5 132.6935577392578,100.5 M152.30307006835938,66.5 C152.30307006835938,66.5 152.12527465820312,66.5 152.12527465820312,66.5 M163.26455688476562,33.5 C163.26455688476562,33.5 163.0867462158203,33.5 163.0867462158203,33.5 M166.75228881835938,-0.5 C166.75228881835938,-0.5 166.57449340820312,-0.5 166.57449340820312,-0.5 M163.26455688476562,-33.5 C163.26455688476562,-33.5 163.0867462158203,-33.5 163.0867462158203,-33.5 M152.30307006835938,-67.5 C152.30307006835938,-67.5 152.12527465820312,-67.5 152.12527465820312,-67.5 M132.87136840820312,-100.5 C132.87136840820312,-100.5 132.6935577392578,-100.5 132.6935577392578,-100.5 M98.99044036865234,-134.5 C98.99044036865234,-134.5 98.81263732910156,-134.5 98.81263732910156,-134.5 M-0.16109836101531982,-167.5 C-0.16109836101531982,-167.5 -0.3389016389846802,-167.5 -0.3389016389846802,-167.5" style="mix-blend-mode: multiply;"/></g></g></g><g transform="matrix(1,0,0,1,214.5,214.5)" opacity="1" style="display: none;"><g opacity="1" transform="matrix(1,0,0,1,0,0)"><path stroke-linecap="round" stroke-linejoin="round" fill-opacity="0" class="secondary" stroke="rgb(178,104,54)" stroke-opacity="1" stroke-width="7" d=" M0,129 C71.24500274658203,129 129,71.24500274658203 129,0 C129,-71.24500274658203 71.24500274658203,-129 0,-129 C-71.24500274658203,-129 -129,-71.24500274658203 -129,0 C-129,71.24500274658203 -71.24500274658203,129 0,129z"/></g></g><g transform="matrix(1,0,0,1,214.5,214.5)" opacity="1" style="display: block;"><g opacity="1" transform="matrix(1,0,0,1,0,0)"><path class="primary" fill="rgb(255,199,56)" fill-opacity="1" d=" M0,-167.5 C92.50800323486328,-167.5 167.5,-92.50800323486328 167.5,0 C167.5,92.50800323486328 92.50800323486328,167.5 0,167.5 C-92.50800323486328,167.5 -167.5,92.50800323486328 -167.5,0 C-167.5,-92.50800323486328 -92.50800323486328,-167.5 0,-167.5z"/></g></g><g mask="url(#__lottie_element_4696_2)" style="display: block;"><g transform="matrix(1,0,0,1,214.5,214.5)" opacity="1"><g opacity="1" transform="matrix(1,0,0,1,0,0)"><path class="primary" fill="rgb(255,199,56)" fill-opacity="1" d=" M0,-167.5 C92.50800323486328,-167.5 167.5,-92.50800323486328 167.5,0 C167.5,92.50800323486328 92.50800323486328,167.5 0,167.5 C-92.50800323486328,167.5 -167.5,92.50800323486328 -167.5,0 C-167.5,-92.50800323486328 -92.50800323486328,-167.5 0,-167.5z"/><path class="primary" fill="rgb(255,199,56)" fill-opacity="0.5" d=" M0,-167.5 C92.50800323486328,-167.5 167.5,-92.50800323486328 167.5,0 C167.5,92.50800323486328 92.50800323486328,167.5 0,167.5 C-92.50800323486328,167.5 -167.5,92.50800323486328 -167.5,0 C-167.5,-92.50800323486328 -92.50800323486328,-167.5 0,-167.5z" style="mix-blend-mode: multiply;"/></g></g></g><g transform="matrix(1,0,0,1,214.5,214.5)" opacity="1" style="display: block;"><g opacity="1" transform="matrix(1,0,0,1,0,0)"><path stroke-linecap="round" stroke-linejoin="round" fill-opacity="0" class="secondary" stroke="rgb(178,104,54)" stroke-opacity="1" stroke-width="7" d=" M0,129 C71.24500274658203,129 129,71.24500274658203 129,0 C129,-71.24500274658203 71.24500274658203,-129 0,-129 C-71.24500274658203,-129 -129,-71.24500274658203 -129,0 C-129,71.24500274658203 -71.24500274658203,129 0,129z"/></g></g><g transform="matrix(1,0,0,1,251.20498657226562,214.5)" opacity="1" style="display: none;"><g opacity="1" transform="matrix(1,0,0,1,0,0)"><path class="primary" fill="rgb(255,199,56)" fill-opacity="1" d=" M0,-167.5 C17.746225357055664,-167.5 32.13248825073242,-92.50800323486328 32.13248825073242,0 C32.13248825073242,92.50800323486328 17.746225357055664,167.5 0,167.5 C-17.746225357055664,167.5 -32.13248825073242,92.50800323486328 -32.13248825073242,0 C-32.13248825073242,-92.50800323486328 -17.746225357055664,-167.5 0,-167.5z"/></g></g><g mask="url(#__lottie_element_4668_2)" style="display: none;"><g transform="matrix(1,0,0,1,251.20498657226562,214.5)" opacity="1"><g opacity="1" transform="matrix(1,0,0,1,0,0)"><path class="primary" fill="rgb(255,199,56)" fill-opacity="1" d=" M0,-167.5 C17.746225357055664,-167.5 32.13248825073242,-92.50800323486328 32.13248825073242,0 C32.13248825073242,92.50800323486328 17.746225357055664,167.5 0,167.5 C-17.746225357055664,167.5 -32.13248825073242,92.50800323486328 -32.13248825073242,0 C-32.13248825073242,-92.50800323486328 -17.746225357055664,-167.5 0,-167.5z"/><path class="primary" fill="rgb(255,199,56)" fill-opacity="0.01" d=" M0,-167.5 C17.746225357055664,-167.5 32.13248825073242,-92.50800323486328 32.13248825073242,0 C32.13248825073242,92.50800323486328 17.746225357055664,167.5 0,167.5 C-17.746225357055664,167.5 -32.13248825073242,92.50800323486328 -32.13248825073242,0 C-32.13248825073242,-92.50800323486328 -17.746225357055664,-167.5 0,-167.5z" style="mix-blend-mode: multiply;"/></g></g></g><g transform="matrix(1,0,0,1,251.20498657226562,214.5)" opacity="1" style="display: none;"><g opacity="1" transform="matrix(1,0,0,1,0,0)"><path stroke-linecap="round" stroke-linejoin="round" fill-opacity="0" class="secondary" stroke="rgb(178,104,54)" stroke-opacity="1" stroke-width="7" d=" M0,129 C13.667603492736816,129 24.746749877929688,71.24500274658203 24.746749877929688,0 C24.746749877929688,-71.24500274658203 13.667603492736816,-129 0,-129 C-13.667603492736816,-129 -24.746749877929688,-71.24500274658203 -24.746749877929688,0 C-24.746749877929688,71.24500274658203 -13.667603492736816,129 0,129z"/></g></g><g transform="matrix(1,0,0,1,214.5,214.5)" opacity="1" style="display: block;"><g opacity="1" transform="matrix(1,0,0,1,0,0)"><path class="primary" fill="rgb(255,199,56)" fill-opacity="0" d=" M0,-167.5 C92.50800323486328,-167.5 167.5,-92.50800323486328 167.5,0 C167.5,92.50800323486328 92.50800323486328,167.5 0,167.5 C0,167.5 0,167.5 0,167.5"/></g></g><g transform="matrix(1,0,0,1,214.5,214.5)" opacity="1" style="display: block;"><g opacity="0" transform="matrix(1,0,0,1,0,0)"><path stroke-linecap="round" stroke-linejoin="round" fill-opacity="0" class="secondary" stroke="rgb(178,104,54)" stroke-opacity="1" stroke-width="7" d=" M0,129 C71.24500274658203,129 129,71.24500274658203 129,0 C129,-71.24500274658203 71.24500274658203,-129 0,-129 C-71.24500274658203,-129 -129,-71.24500274658203 -129,0 C-129,71.24500274658203 -71.24500274658203,129 0,129z"/></g></g></g></g></svg>