<svg xmlns="http://www.w3.org/2000/svg" xmlns:xlink="http://www.w3.org/1999/xlink" viewBox="0 0 430 430" width="430" height="430" preserveAspectRatio="xMidYMid meet" style="width: 100%; height: 100%; transform: translate3d(0px, 0px, 0px); content-visibility: visible;"><defs><clipPath id="__lottie_element_4993"><rect width="430" height="430" x="0" y="0"/></clipPath><clipPath id="__lottie_element_4995"><path d="M0,0 L430,0 L430,430 L0,430z"/></clipPath><clipPath id="__lottie_element_5000"><path d="M0,0 L430,0 L430,430 L0,430z"/></clipPath></defs><g clip-path="url(#__lottie_element_4993)"><g clip-path="url(#__lottie_element_4995)" transform="matrix(1,0,0,1,0,0)" opacity="1" style="display: block;"><g clip-path="url(#__lottie_element_5000)" transform="matrix(0.9721606373786926,0.23431527614593506,-0.23431527614593506,0.9721606373786926,47.18250274658203,3.9948272705078125)" opacity="1" style="display: block;"><g transform="matrix(1,0,0,1,-35,-34.99998474121094)" opacity="1" style="display: block;"><g opacity="1" transform="matrix(1,0,0,1,217.03199768066406,302.0159912109375)"><path class="primary" fill="rgb(102,237,206)" fill-opacity="1" d=" M-64.3550033569336,-151.66900634765625 C-64.3550033569336,-151.66900634765625 130.29200744628906,-151.66900634765625 130.29200744628906,-151.66900634765625 C130.29200744628906,-151.66900634765625 181.5449981689453,-75.59200286865234 181.5449981689453,-75.59200286865234 C181.5449981689453,-75.59200286865234 -115.60800170898438,-75.59200286865234 -115.60800170898438,-75.59200286865234 M32.96799850463867,75.59300231933594 C32.96799850463867,75.59300231933594 181.5449981689453,-75.59300231933594 181.5449981689453,-75.59300231933594 C181.5449981689453,-75.59300231933594 -115.60800170898438,-75.59300231933594 -115.60800170898438,-75.59300231933594 C-115.60800170898438,-75.59300231933594 32.96799850463867,75.59300231933594 32.96799850463867,75.59300231933594z"/></g></g><g transform="matrix(1,0,0,1,-35,-34.99998474121094)" opacity="0.5" style="mix-blend-mode: multiply; display: none;"><g opacity="1" transform="matrix(1,0,0,1,217.03199768066406,302.0159912109375)"><path class="primary" fill="rgb(102,237,206)" fill-opacity="1" d=" M32.96799850463867,75.59300231933594 C32.96799850463867,75.59300231933594 182.0449981689453,-75.74099731445312 182.0449981689453,-75.74099731445312 C182.0449981689453,-75.74099731445312 109.32923126220703,-75.68667602539062 109.32923126220703,-75.68667602539062 C109.32923126220703,-75.68667602539062 32.96799850463867,75.59300231933594 32.96799850463867,75.59300231933594z M32.96799850463867,75.59300231933594 C32.96799850463867,75.59300231933594 -16.93573570251465,-75.71185302734375 -16.93573570251465,-75.71185302734375 C-16.93573570251465,-75.71185302734375 -105.4900894165039,-75.95405578613281 -105.4900894165039,-75.95405578613281 C-105.4900894165039,-75.95405578613281 32.96799850463867,75.59300231933594 32.96799850463867,75.59300231933594z"/></g></g><g transform="matrix(1,0,0,1,-35,-34.99998474121094)" opacity="0.5" style="mix-blend-mode: multiply; display: none;"><g opacity="1" transform="matrix(1,0,0,1,217.03199768066406,302.0159912109375)"><path class="primary" fill="rgb(102,237,206)" fill-opacity="1" d=" M32.96799850463867,75.59300231933594 C32.96799850463867,75.59300231933594 112.60053253173828,-75.7334213256836 112.60053253173828,-75.7334213256836 C112.60053253173828,-75.7334213256836 -12.14001750946045,-75.70578002929688 -12.14001750946045,-75.70578002929688 C-12.14001750946045,-75.70578002929688 32.96799850463867,75.59300231933594 32.96799850463867,75.59300231933594z M32.96799850463867,75.59300231933594 C32.96799850463867,75.59300231933594 -102.19002532958984,-75.7334213256836 -102.19002532958984,-75.7334213256836 C-102.19002532958984,-75.7334213256836 -115.60800170898438,-75.98200225830078 -115.60800170898438,-75.98200225830078 C-115.60800170898438,-75.98200225830078 32.96799850463867,75.59300231933594 32.96799850463867,75.59300231933594z"/></g></g><g transform="matrix(1,0,0,1,-35,-34.99998474121094)" opacity="0.5" style="mix-blend-mode: multiply; display: block;"><g opacity="1" transform="matrix(1,0,0,1,217.03199768066406,302.0159912109375)"><path class="primary" fill="rgb(102,237,206)" fill-opacity="1" d=" M32.96799850463867,75.59300231933594 C32.96799850463867,75.59300231933594 182.0449981689453,-75.74099731445312 182.0449981689453,-75.74099731445312 C182.0449981689453,-75.74099731445312 165.06796264648438,-75.72742462158203 165.06796264648438,-75.72742462158203 C165.06796264648438,-75.72742462158203 32.96799850463867,75.59300231933594 32.96799850463867,75.59300231933594z M32.96799850463867,75.59300231933594 C32.96799850463867,75.59300231933594 73.22321319580078,-75.65878295898438 73.22321319580078,-75.65878295898438 C73.22321319580078,-75.65878295898438 -49.74140548706055,-75.75800323486328 -49.74140548706055,-75.75800323486328 C-49.74140548706055,-75.75800323486328 32.96799850463867,75.59300231933594 32.96799850463867,75.59300231933594z"/></g></g><g transform="matrix(1,0,0,1,-35,-34.99998474121094)" opacity="0.5" style="mix-blend-mode: multiply; display: none;"><g opacity="1" transform="matrix(1,0,0,1,217.03199768066406,302.0159912109375)"><path class="primary" fill="rgb(102,237,206)" fill-opacity="1" d=" M32.96799850463867,75.59300231933594 C32.96799850463867,75.59300231933594 106.00202941894531,-75.73270416259766 106.00202941894531,-75.73270416259766 C106.00202941894531,-75.73270416259766 -22.73761558532715,-75.70841979980469 -22.73761558532715,-75.70841979980469 C-22.73761558532715,-75.70841979980469 32.96799850463867,75.59300231933594 32.96799850463867,75.59300231933594z M32.96799850463867,75.59300231933594 C32.96799850463867,75.59300231933594 -108.7685317993164,-75.73270416259766 -108.7685317993164,-75.73270416259766 C-108.7685317993164,-75.73270416259766 -115.60800170898438,-75.98200225830078 -115.60800170898438,-75.98200225830078 C-115.60800170898438,-75.98200225830078 32.96799850463867,75.59300231933594 32.96799850463867,75.59300231933594z"/></g></g><g transform="matrix(1,0,0,1,-35,-34.99998474121094)" opacity="0.5" style="mix-blend-mode: multiply; display: none;"><g opacity="1" transform="matrix(1,0,0,1,217.03199768066406,302.0159912109375)"><path class="primary" fill="rgb(102,237,206)" fill-opacity="1" d=" M32.96799850463867,75.59300231933594 C32.96799850463867,75.59300231933594 182.0449981689453,-75.74099731445312 182.0449981689453,-75.74099731445312 C182.0449981689453,-75.74099731445312 101.1678237915039,-75.67955017089844 101.1678237915039,-75.67955017089844 C101.1678237915039,-75.67955017089844 32.96799850463867,75.59300231933594 32.96799850463867,75.59300231933594z M32.96799850463867,75.59300231933594 C32.96799850463867,75.59300231933594 -30.093114852905273,-75.73579406738281 -30.093114852905273,-75.73579406738281 C-30.093114852905273,-75.73579406738281 -113.79988861083984,-75.97700500488281 -113.79988861083984,-75.97700500488281 C-113.79988861083984,-75.97700500488281 32.96799850463867,75.59300231933594 32.96799850463867,75.59300231933594z"/></g></g><g transform="matrix(1,0,0,1,-35,-34.99998474121094)" opacity="0.5" style="mix-blend-mode: multiply; display: none;"><g opacity="1" transform="matrix(1,0,0,1,217.03199768066406,302.0159912109375)"><path class="primary" fill="rgb(102,237,206)" fill-opacity="1" d=" M32.96799850463867,75.59300231933594 C32.96799850463867,75.59300231933594 99.54499816894531,-75.73200225830078 99.54499816894531,-75.73200225830078 C99.54499816894531,-75.73200225830078 -33.108001708984375,-75.71099853515625 -33.108001708984375,-75.71099853515625 C-33.108001708984375,-75.71099853515625 32.96799850463867,75.59300231933594 32.96799850463867,75.59300231933594z M32.96799850463867,75.59300231933594 C32.96799850463867,75.59300231933594 -115.20600128173828,-75.73200225830078 -115.20600128173828,-75.73200225830078 C-115.20600128173828,-75.73200225830078 -115.60800170898438,-75.98200225830078 -115.60800170898438,-75.98200225830078 C-115.60800170898438,-75.98200225830078 32.96799850463867,75.59300231933594 32.96799850463867,75.59300231933594z"/></g></g><g transform="matrix(1,0,0,1,-35,-34.99998474121094)" opacity="0.5" style="mix-blend-mode: multiply; display: none;"><g opacity="1" transform="matrix(1,0,0,1,217.03199768066406,302.0159912109375)"><path class="primary" fill="rgb(102,237,206)" fill-opacity="1" d=" M8.094786643981934,-151.78970336914062 C8.094786643981934,-151.78970336914062 74.121337890625,-151.60569763183594 74.121337890625,-151.60569763183594 C74.121337890625,-151.60569763183594 109.48223114013672,-75.57461547851562 109.48223114013672,-75.57461547851562 C109.48223114013672,-75.57461547851562 -16.613540649414062,-75.76029205322266 -16.613540649414062,-75.76029205322266 M-64.3550033569336,-151.66900634765625 C-64.3550033569336,-151.66900634765625 -56.56666564941406,-151.63816833496094 -56.56666564941406,-151.63816833496094 C-56.56666564941406,-151.63816833496094 -105.4046401977539,-75.71974182128906 -105.4046401977539,-75.71974182128906 C-105.4046401977539,-75.71974182128906 -115.60800170898438,-75.59200286865234 -115.60800170898438,-75.59200286865234"/></g></g><g transform="matrix(1,0,0,1,-35,-34.99998474121094)" opacity="0.5" style="mix-blend-mode: multiply; display: none;"><g opacity="1" transform="matrix(1,0,0,1,217.03199768066406,302.0159912109375)"><path class="primary" fill="rgb(102,237,206)" fill-opacity="1" d=" M-54.010318756103516,-151.86447143554688 C-54.010318756103516,-151.86447143554688 11.236429214477539,-151.64141845703125 11.236429214477539,-151.64141845703125 C11.236429214477539,-151.64141845703125 -11.320893287658691,-75.93029022216797 -11.320893287658691,-75.93029022216797 C-11.320893287658691,-75.93029022216797 -101.8024673461914,-75.87189483642578 -101.8024673461914,-75.87189483642578 M76.49949645996094,-151.84005737304688 C76.49949645996094,-151.84005737304688 130.60400390625,-151.77200317382812 130.60400390625,-151.77200317382812 C130.60400390625,-151.77200317382812 181.4199981689453,-75.61299896240234 181.4199981689453,-75.61299896240234 C181.4199981689453,-75.61299896240234 112.4475326538086,-75.60487365722656 112.4475326538086,-75.60487365722656"/></g></g><g transform="matrix(1,0,0,1,-35,-34.99998474121094)" opacity="0.5" style="mix-blend-mode: multiply; display: block;"><g opacity="1" transform="matrix(1,0,0,1,217.03199768066406,302.0159912109375)"><path class="primary" fill="rgb(102,237,206)" fill-opacity="1" d=" M52.238277435302734,-151.8123779296875 C52.238277435302734,-151.8123779296875 117.58694458007812,-151.63673400878906 117.58694458007812,-151.63673400878906 C117.58694458007812,-151.63673400878906 165.10910034179688,-75.56417083740234 165.10910034179688,-75.56417083740234 C165.10910034179688,-75.56417083740234 72.62271118164062,-75.70497131347656 72.62271118164062,-75.70497131347656 M-64.3550033569336,-151.66900634765625 C-64.3550033569336,-151.66900634765625 -12.206059455871582,-151.57220458984375 -12.206059455871582,-151.57220458984375 C-12.206059455871582,-151.57220458984375 -49.276405334472656,-75.67059326171875 -49.276405334472656,-75.67059326171875 C-49.276405334472656,-75.67059326171875 -115.60800170898438,-75.59200286865234 -115.60800170898438,-75.59200286865234"/></g></g><g transform="matrix(1,0,0,1,-35,-34.99998474121094)" opacity="0.5" style="mix-blend-mode: multiply; display: none;"><g opacity="1" transform="matrix(1,0,0,1,217.03199768066406,302.0159912109375)"><path class="primary" fill="rgb(102,237,206)" fill-opacity="1" d=" M-59.04917526245117,-151.87535095214844 C-59.04917526245117,-151.87535095214844 5.957624912261963,-151.65484619140625 5.957624912261963,-151.65484619140625 C5.957624912261963,-151.65484619140625 -21.95848274230957,-75.92357635498047 -21.95848274230957,-75.92357635498047 C-21.95848274230957,-75.92357635498047 -108.40097045898438,-75.88357543945312 -108.40097045898438,-75.88357543945312 M71.36065673828125,-151.8405303955078 C71.36065673828125,-151.8405303955078 130.60400390625,-151.77200317382812 130.60400390625,-151.77200317382812 C130.60400390625,-151.77200317382812 181.4199981689453,-75.61299896240234 181.4199981689453,-75.61299896240234 C181.4199981689453,-75.61299896240234 105.89653778076172,-75.59735870361328 105.89653778076172,-75.59735870361328"/></g></g><g transform="matrix(1,0,0,1,-35,-34.99998474121094)" opacity="0.5" style="mix-blend-mode: multiply; display: none;"><g opacity="1" transform="matrix(1,0,0,1,217.03199768066406,302.0159912109375)"><path class="primary" fill="rgb(102,237,206)" fill-opacity="1" d=" M1.565658450126648,-151.79405212402344 C1.565658450126648,-151.79405212402344 67.69113159179688,-151.61004638671875 67.69113159179688,-151.61004638671875 C67.69113159179688,-151.61004638671875 101.3208236694336,-75.58807373046875 101.3208236694336,-75.58807373046875 C101.3208236694336,-75.58807373046875 -29.647064208984375,-75.7666244506836 -29.647064208984375,-75.7666244506836 M-64.3550033569336,-151.66900634765625 C-64.3550033569336,-151.66900634765625 -62.99686813354492,-151.63638305664062 -62.99686813354492,-151.63638305664062 C-62.99686813354492,-151.63638305664062 -113.81336212158203,-75.71420288085938 -113.81336212158203,-75.71420288085938 C-113.81336212158203,-75.71420288085938 -115.60800170898438,-75.59200286865234 -115.60800170898438,-75.59200286865234"/></g></g><g transform="matrix(1,0,0,1,-35,-34.99998474121094)" opacity="0.5" style="mix-blend-mode: multiply; display: none;"><g opacity="1" transform="matrix(1,0,0,1,217.03199768066406,302.0159912109375)"><path class="primary" fill="rgb(102,237,206)" fill-opacity="1" d=" M-63.97999954223633,-151.88600158691406 C-63.97999954223633,-151.88600158691406 0.7919999957084656,-151.66799926757812 0.7919999957084656,-151.66799926757812 C0.7919999957084656,-151.66799926757812 -32.36800003051758,-75.91699981689453 -32.36800003051758,-75.91699981689453 C-32.36800003051758,-75.91699981689453 -114.85800170898438,-75.8949966430664 -114.85800170898438,-75.8949966430664 M66.33200073242188,-151.84100341796875 C66.33200073242188,-151.84100341796875 130.60400390625,-151.77200317382812 130.60400390625,-151.77200317382812 C130.60400390625,-151.77200317382812 181.4199981689453,-75.61299896240234 181.4199981689453,-75.61299896240234 C181.4199981689453,-75.61299896240234 99.48600006103516,-75.58999633789062 99.48600006103516,-75.58999633789062"/></g></g></g><g transform="matrix(0.5,0.8660253882408142,-0.8660253882408142,0.5,306.41961669921875,-126.41209411621094)" opacity="1" style="display: block;"><g opacity="1" transform="matrix(1,0,0,1,248.87899780273438,52.14899826049805)"><path stroke-linecap="round" stroke-linejoin="round" fill-opacity="0" class="secondary" stroke="rgb(255,199,56)" stroke-opacity="1" stroke-width="7" d="M0 0"/></g></g><g transform="matrix(0.8660253882408142,0.5,-0.5,0.8660253882408142,123.46290588378906,-126.44761657714844)" opacity="1" style="display: block;"><g opacity="1" transform="matrix(1,0,0,1,248.87899780273438,52.14899826049805)"><path stroke-linecap="round" stroke-linejoin="round" fill-opacity="0" class="secondary" stroke="rgb(255,199,56)" stroke-opacity="1" stroke-width="7" d=" M1,-41.007999420166016 C1,-41.03099822998047 1,-41.04199981689453 1,-41.04199981689453"/></g></g><g transform="matrix(1,0,0,1,-35,-35)" opacity="1" style="display: block;"><g opacity="1" transform="matrix(1,0,0,1,248.87899780273438,52.14899826049805)"><path stroke-linecap="round" stroke-linejoin="round" fill-opacity="0" class="secondary" stroke="rgb(255,199,56)" stroke-opacity="1" stroke-width="7" d=" M1,-35.617000579833984 C1,-39.07500076293945 1,-41.04199981689453 1,-41.04199981689453"/></g></g><g transform="matrix(0.8660253882408142,-0.5,0.5,0.8660253882408142,-126.50909423828125,123.42739868164062)" opacity="1" style="display: block;"><g opacity="1" transform="matrix(1,0,0,1,248.87899780273438,52.14899826049805)"><path stroke-linecap="round" stroke-linejoin="round" fill-opacity="0" class="secondary" stroke="rgb(255,199,56)" stroke-opacity="1" stroke-width="7" d=" M1,-28.152999877929688 C1,-35.03799819946289 1,-39.6510009765625 1,-40.775001525878906"/></g></g><g transform="matrix(0.5,-0.8660253882408142,0.8660253882408142,0.5,-126.54461669921875,306.38409423828125)" opacity="1" style="display: block;"><g opacity="1" transform="matrix(1,0,0,1,248.87899780273438,52.14899826049805)"><path stroke-linecap="round" stroke-linejoin="round" fill-opacity="0" class="secondary" stroke="rgb(255,199,56)" stroke-opacity="1" stroke-width="7" d=" M1,-21.540000915527344 C1,-29.511999130249023 1,-35.72800064086914 1,-38.84199905395508"/></g></g></g></g></svg>