<svg xmlns="http://www.w3.org/2000/svg" xmlns:xlink="http://www.w3.org/1999/xlink" viewBox="0 0 430 430" width="430" height="430" preserveAspectRatio="xMidYMid meet" style="width: 100%; height: 100%; transform: translate3d(0px, 0px, 0px); content-visibility: visible;"><defs><clipPath id="__lottie_element_8425"><rect width="430" height="430" x="0" y="0"/></clipPath><clipPath id="__lottie_element_8427"><path d="M0,0 L430,0 L430,430 L0,430z"/></clipPath><clipPath id="__lottie_element_8432"><path d="M0,0 L430,0 L430,430 L0,430z"/></clipPath><clipPath id="__lottie_element_8439"><path d="M0,0 L430,0 L430,430 L0,430z"/></clipPath><clipPath id="__lottie_element_8443"><path d="M0,0 L430,0 L430,430 L0,430z"/></clipPath></defs><g clip-path="url(#__lottie_element_8425)"><g clip-path="url(#__lottie_element_8427)" transform="matrix(1,0,0,1,0,0)" opacity="1" style="display: block;"><g clip-path="url(#__lottie_element_8432)" transform="matrix(1,0,0,1,0,0)" opacity="1" style="display: block;"><g clip-path="url(#__lottie_element_8439)" transform="matrix(1,0,0,1,0,0)" opacity="1" style="display: block;"><g transform="matrix(1,0,0,1,215,215)" opacity="1" style="display: block;"><g opacity="1" transform="matrix(1,0,0,1,0,0)"><path class="primary" fill="rgb(235,230,239)" fill-opacity="1" d=" M-182,-135 C-183.65699768066406,-135 -185,-133.65699768066406 -185,-132 C-185,-132 -185,132 -185,132 C-185,133.65699768066406 -183.65699768066406,135 -182,135 C-182,135 182,135 182,135 C183.65699768066406,135 185,133.65699768066406 185,132 C185,132 185,-132 185,-132 C185,-133.65699768066406 183.65699768066406,-135 182,-135 C182,-135 -182,-135 -182,-135z"/></g></g><g transform="matrix(1,0,0,1,37.5,215)" opacity="0.5" style="mix-blend-mode: multiply; display: block;"><g opacity="1" transform="matrix(1,0,0,1,0,0)"><path class="primary" fill="rgb(235,230,239)" fill-opacity="1" d=" M-7.5,-135 C-7.5,-135 7.5,-135 7.5,-135 C7.5,-135 7.5,135 7.5,135 C7.5,135 -7.5,135 -7.5,135 C-7.5,135 -7.5,-135 -7.5,-135z"/></g></g><g transform="matrix(1,0,0,1,124.69999694824219,273.3999938964844)" opacity="1" style="display: block;"><g opacity="1" transform="matrix(1,0,0,1,12.75,-108.5)"><path stroke-linecap="round" stroke-linejoin="round" fill-opacity="0" class="secondary" stroke="rgb(58,51,71)" stroke-opacity="1" stroke-width="7" d=" M47.5,35 C47.5,35 -47.5,35 -47.5,35 M47.5,0 C47.5,0 -47.5,0 -47.5,0 M47.5,-35 C47.5,-35 -47.5,-35 -47.5,-35"/></g><g opacity="1" transform="matrix(1,0,0,1,-65,-108.25)"><path stroke-linecap="round" stroke-linejoin="round" fill-opacity="0" class="secondary" stroke="rgb(58,51,71)" stroke-opacity="1" stroke-width="10" d=" M0.05000000074505806,35 C0.05000000074505806,35 -0.05000000074505806,35 -0.05000000074505806,35 M0.05000000074505806,0 C0.05000000074505806,0 -0.05000000074505806,0 -0.05000000074505806,0 M0.05000000074505806,-35 C0.05000000074505806,-35 -0.05000000074505806,-35 -0.05000000074505806,-35"/></g><g opacity="1" transform="matrix(1,0,0,1,0,0)"><path stroke-linecap="round" stroke-linejoin="round" fill-opacity="0" class="senary" stroke="rgb(44,165,141)" stroke-opacity="1" stroke-width="7" d=" M-39.70000076293945,-0.20000000298023224 C-39.70000076293945,-0.20000000298023224 -13.100000381469727,26.399999618530273 -13.100000381469727,26.399999618530273 C-13.100000381469727,26.399999618530273 39.70000076293945,-26.399999618530273 39.70000076293945,-26.399999618530273"/></g></g><g transform="matrix(1,0,0,1,309.70001220703125,373.3999938964844)" opacity="1" style="display: block;"><g opacity="1" transform="matrix(1,0,0,1,-2,-216)"><path stroke-linecap="round" stroke-linejoin="round" fill-opacity="0" class="tertiary" stroke="rgb(242,76,0)" stroke-opacity="1" stroke-width="7" d=" M27.5,-27.5 C27.5,-27.5 -27.5,27.5 -27.5,27.5 M-27.5,-27.5 C-27.5,-27.5 27.5,27.5 27.5,27.5"/></g><g opacity="1" transform="matrix(1,0,0,1,12.75,-108.5)"><path stroke-linecap="round" stroke-linejoin="round" fill-opacity="0" class="secondary" stroke="rgb(58,51,71)" stroke-opacity="1" stroke-width="7" d=" M47.5,35 C47.5,35 -47.5,35 -47.5,35 M47.5,0 C47.5,0 -47.5,0 -47.5,0 M47.5,-35 C47.5,-35 -47.5,-35 -47.5,-35"/></g><g opacity="1" transform="matrix(1,0,0,1,-65,-108.25)"><path stroke-linecap="round" stroke-linejoin="round" fill-opacity="0" class="secondary" stroke="rgb(58,51,71)" stroke-opacity="1" stroke-width="10" d=" M0.05000000074505806,35 C0.05000000074505806,35 -0.05000000074505806,35 -0.05000000074505806,35 M0.05000000074505806,0 C0.05000000074505806,0 -0.05000000074505806,0 -0.05000000074505806,0 M0.05000000074505806,-35 C0.05000000074505806,-35 -0.05000000074505806,-35 -0.05000000074505806,-35"/></g></g></g><g clip-path="url(#__lottie_element_8443)" transform="matrix(1,0,0,1,0,0)" opacity="1" style="display: block;"><g transform="matrix(1,0,0,1,215,215)" opacity="1" style="display: block;"><g opacity="1" transform="matrix(1,0,0,1,0,0)"><path class="primary" fill="rgb(235,230,239)" fill-opacity="1" d=" M-0.25,-135 C-0.5421844720840454,-134.779541015625 -0.10743868350982666,-134.6239471435547 -0.10743868350982666,-132.96694946289062 C-0.10743868350982666,-132.96694946289062 0,132 0,132 C0,133.65699768066406 -0.2778853178024292,134.08419799804688 0.01859670877456665,133.87188720703125 C29.993989944458008,116.8965835571289 168.89248657226562,121.14041137695312 168.89248657226562,121.14041137695312 C170.5494842529297,121.14041137695312 171.89248657226562,119.79740905761719 171.89248657226562,118.14041137695312 C171.89248657226562,118.14041137695312 171.9999237060547,-145.85958862304688 171.9999237060547,-145.85958862304688 C171.9999237060547,-147.51658630371094 170.65692138671875,-148.85958862304688 168.9999237060547,-148.85958862304688 C168.9999237060547,-148.85958862304688 27.576618194580078,-151.54556274414062 -0.25,-135z"/></g></g><g transform="matrix(1,0,0,1,309.70001220703125,373.3999938964844)" opacity="1" style="display: block;"><g opacity="1" transform="matrix(1,0,0,1,-2,-216)"><path stroke-linecap="round" stroke-linejoin="round" fill-opacity="0" class="tertiary" stroke="rgb(242,76,0)" stroke-opacity="1" stroke-width="7" d=" M16.426509857177734,-40.793174743652344 C16.426509857177734,-40.793174743652344 -33.50453186035156,20.229839324951172 -33.50453186035156,20.229839324951172 M-33.50453186035156,-34.77016067504883 C-33.50453186035156,-34.77016067504883 16.426509857177734,14.206826210021973 16.426509857177734,14.206826210021973"/></g><g opacity="1" transform="matrix(1,0,0,1,12.75,-108.5)"><path stroke-linecap="round" stroke-linejoin="round" fill-opacity="0" class="secondary" stroke="rgb(58,51,71)" stroke-opacity="1" stroke-width="7" d=" M36.8476676940918,24.219173431396484 C23.481008529663086,21.921274185180664 -51.54399108886719,28.9030704498291 -51.54399108886719,28.9030704498291 M36.8369255065918,-10.89729118347168 C22.659317016601562,-11.452104568481445 -51.5444221496582,-6.126153945922852 -51.5444221496582,-6.126153945922852 M36.59626388549805,-47.783912658691406 C23.206825256347656,-48.110958099365234 -51.592124938964844,-41.5997428894043 -51.592124938964844,-41.5997428894043"/></g><g opacity="1" transform="matrix(1,0,0,1,-65,-108.25)"><path stroke-linecap="round" stroke-linejoin="round" fill-opacity="0" class="secondary" stroke="rgb(58,51,71)" stroke-opacity="1" stroke-width="10" d=" M-1.8808879852294922,32.04672622680664 C-1.8808879852294922,32.04672622680664 -1.9740118980407715,32.050594329833984 -1.9740118980407715,32.050594329833984 M-1.8783094882965088,-2.954993486404419 C-1.8783094882965088,-2.954993486404419 -1.9710036516189575,-2.9506959915161133 -1.9710036516189575,-2.9506959915161133 M-1.8598300218582153,-37.97991943359375 C-1.8598300218582153,-37.97991943359375 -1.9529539346694946,-37.97433090209961 -1.9529539346694946,-37.97433090209961"/></g></g></g></g><g transform="matrix(1,0,0,1,215,215)" opacity="0.5" style="mix-blend-mode: multiply; display: block;"><g opacity="1" transform="matrix(1,0,0,1,0,0)"><path stroke-linecap="butt" stroke-linejoin="miter" fill-opacity="0" stroke-miterlimit="4" class="primary" stroke="rgb(235,230,239)" stroke-opacity="1" stroke-width="7" d=" M0,135 C0,135 0,-135 0,-135"/></g></g></g></g></svg>