<svg xmlns="http://www.w3.org/2000/svg" xmlns:xlink="http://www.w3.org/1999/xlink" viewBox="0 0 430 430" width="430" height="430" preserveAspectRatio="xMidYMid meet" style="width: 100%; height: 100%; transform: translate3d(0px, 0px, 0px); content-visibility: visible;"><defs><clipPath id="__lottie_element_8812"><rect width="430" height="430" x="0" y="0"/></clipPath><clipPath id="__lottie_element_8814"><path d="M0,0 L430,0 L430,430 L0,430z"/></clipPath><g id="__lottie_element_8845"><g transform="matrix(0.9995943307876587,-0.028480717912316322,0.028480717912316322,0.9995943307876587,126.701416015625,358.4960021972656)" opacity="1" style="display: block;"><g opacity="1" transform="matrix(1,0,0,1,0,0)"><path fill="rgb(249,201,192)" fill-opacity="1" d=" M22.246498107910156,35.367820739746094 C22.246498107910156,35.367820739746094 -66.54299926757812,16.83099937438965 -66.54299926757812,16.83099937438965 C-66.88800048828125,16.554000854492188 -67.16699981689453,16.204999923706055 -67.36100006103516,15.807000160217285 C-67.55500030517578,15.409000396728516 -67.65699768066406,14.972999572753906 -67.66300201416016,14.531000137329102 C-67.66300201416016,14.531000137329102 -72.16300201416016,-25.339000701904297 -72.16300201416016,-25.339000701904297 C-72.16300201416016,-25.339000701904297 12.163000106811523,-25.839000701904297 12.163000106811523,-25.839000701904297 C12.163000106811523,-25.839000701904297 15.79003620147705,18.65558433532715 23.915538787841797,32.044681549072266 C24.311298370361328,33.0968017578125 22.769498825073242,35.79082107543945 22.246498107910156,35.367820739746094z"/></g></g></g><mask id="__lottie_element_8845_1" mask-type="alpha"><use xmlns:ns1="http://www.w3.org/1999/xlink" ns1:href="#__lottie_element_8845"/></mask></defs><g clip-path="url(#__lottie_element_8812)"><g clip-path="url(#__lottie_element_8814)" transform="matrix(1,0,0,1,0,0)" opacity="1" style="display: block;"><g transform="matrix(0.9993294477462769,0.036614831537008286,-0.036614831537008286,0.9993294477462769,350.4303283691406,224.55453491210938)" opacity="1" style="display: block;"><g opacity="1" transform="matrix(1,0,0,1,0,0)"><path class="tertiary" fill="rgb(242,76,0)" fill-opacity="1" d=" M21.024999618530273,111.1500015258789 C21.024999618530273,111.1500015258789 21.024999618530273,-111.1500015258789 21.024999618530273,-111.1500015258789 C21.024999618530273,-111.1500015258789 -21.024999618530273,-111.1500015258789 -21.024999618530273,-111.1500015258789 C-21.024999618530273,-111.1500015258789 -21.024999618530273,111.1500015258789 -21.024999618530273,111.1500015258789"/></g></g><g transform="matrix(0.9993294477462769,0.036614831537008286,-0.036614831537008286,0.9993294477462769,339.9253845214844,224.1696319580078)" opacity="0.5" style="mix-blend-mode: multiply; display: block;"><g opacity="1" transform="matrix(1,0,0,1,0,0)"><path class="tertiary" fill="rgb(242,76,0)" fill-opacity="1" d=" M-10.51200008392334,-111.1500015258789 C-10.51200008392334,-111.1500015258789 -10.51200008392334,111.1500015258789 -10.51200008392334,111.1500015258789 C-10.51200008392334,111.1500015258789 10.51200008392334,111.1500015258789 10.51200008392334,111.1500015258789 C10.51200008392334,111.1500015258789 10.51200008392334,-111.1500015258789 10.51200008392334,-111.1500015258789 C10.51200008392334,-111.1500015258789 -10.51200008392334,-111.1500015258789 -10.51200008392334,-111.1500015258789z"/></g></g><g transform="matrix(0.9993294477462769,0.036614831537008286,-0.036614831537008286,0.9993294477462769,345.6615295410156,355.3926696777344)" opacity="1" style="display: block;"><g opacity="1" transform="matrix(1,0,0,1,0,0)"><path class="primary" fill="rgb(58,51,71)" fill-opacity="1" d=" M-21,-19.184999465942383 C-21,-19.184999465942383 -21,16.184999465942383 -21,16.184999465942383 C-21,16.981000900268555 -20.68400001525879,17.743000030517578 -20.121000289916992,18.305999755859375 C-19.558000564575195,18.868999481201172 -18.79599952697754,19.184999465942383 -18,19.184999465942383 C-18,19.184999465942383 18,19.184999465942383 18,19.184999465942383 C18.79599952697754,19.184999465942383 19.558000564575195,18.868999481201172 20.121000289916992,18.305999755859375 C20.68400001525879,17.743000030517578 21,16.981000900268555 21,16.184999465942383 C21,16.184999465942383 21,-19.184999465942383 21,-19.184999465942383"/></g></g><g transform="matrix(0.9993294477462769,0.036614831537008286,-0.036614831537008286,0.9993294477462769,335.1685485839844,355.0082092285156)" opacity="0.5" style="mix-blend-mode: multiply; display: block;"><g opacity="1" transform="matrix(1,0,0,1,0,0)"><path class="primary" fill="rgb(58,51,71)" fill-opacity="1" d=" M10.5,19.184999465942383 C10.5,19.184999465942383 10.5,-19.184999465942383 10.5,-19.184999465942383 C10.5,-19.184999465942383 -10.5,-19.184999465942383 -10.5,-19.184999465942383 C-10.5,-19.184999465942383 -10.5,16.184999465942383 -10.5,16.184999465942383 C-10.5,16.981000900268555 -10.184000015258789,17.743000030517578 -9.621000289916992,18.305999755859375 C-9.057999610900879,18.868999481201172 -8.295999526977539,19.184999465942383 -7.5,19.184999465942383 C-7.5,19.184999465942383 10.5,19.184999465942383 10.5,19.184999465942383z"/></g></g><g transform="matrix(0.9993294477462769,0.036614831537008286,-0.036614831537008286,0.9993294477462769,355.4638977050781,87.30979919433594)" opacity="1" style="display: block;"><g opacity="1" transform="matrix(1,0,0,1,0,0)"><path class="secondary" fill="rgb(235,230,239)" fill-opacity="1" d=" M21.030000686645508,26.777000427246094 C21.030000686645508,26.777000427246094 2.8299999237060547,-24.773000717163086 2.8299999237060547,-24.773000717163086 C2.8299999237060547,-24.773000717163086 2.8299999237060547,-24.773000717163086 2.8299999237060547,-24.773000717163086 C2.624000072479248,-25.358999252319336 2.240999937057495,-25.865999221801758 1.7339999675750732,-26.225000381469727 C1.2269999980926514,-26.583999633789062 0.6209999918937683,-26.777000427246094 0,-26.777000427246094 C-0.6209999918937683,-26.777000427246094 -1.2269999980926514,-26.583999633789062 -1.7339999675750732,-26.225000381469727 C-2.240999937057495,-25.865999221801758 -2.624000072479248,-25.358999252319336 -2.8299999237060547,-24.773000717163086 C-2.8299999237060547,-24.773000717163086 -21.030000686645508,26.777000427246094 -21.030000686645508,26.777000427246094 C-21.030000686645508,26.777000427246094 21.030000686645508,26.777000427246094 21.030000686645508,26.777000427246094z"/></g></g><g transform="matrix(0.9993294477462769,0.036614831537008286,-0.036614831537008286,0.9993294477462769,344.9559631347656,86.92479705810547)" opacity="0.5" style="mix-blend-mode: multiply; display: block;"><g opacity="1" transform="matrix(1,0,0,1,0,0)"><path class="secondary" fill="rgb(235,230,239)" fill-opacity="1" d=" M7.684999942779541,-24.773000717163086 C7.684999942779541,-24.773000717163086 -10.515000343322754,26.777000427246094 -10.515000343322754,26.777000427246094 C-10.515000343322754,26.777000427246094 10.515000343322754,26.777000427246094 10.515000343322754,26.777000427246094 C10.515000343322754,26.777000427246094 10.515000343322754,-26.777000427246094 10.515000343322754,-26.777000427246094 C9.894000053405762,-26.777000427246094 9.288000106811523,-26.583999633789062 8.781000137329102,-26.225000381469727 C8.27400016784668,-25.865999221801758 7.890999794006348,-25.358999252319336 7.684999942779541,-24.773000717163086z"/></g></g><g transform="matrix(0.9994701743125916,-0.03254804387688637,0.03254804387688637,0.9994701743125916,206.89566040039062,213.26719665527344)" opacity="1" style="display: block;"><path class="tertiary" fill="rgb(242,76,0)" fill-opacity="1" d=" M-96.78399658203125,117.49800109863281 C-96.78399658203125,128.42999267578125 -95.79798889160156,140.857421875 -92.605712890625,152.94931030273438 C-84.25518798828125,158.8937225341797 -71.72219848632812,164.59962463378906 -62.78758239746094,169.29025268554688 C-55.224124908447266,161.0892333984375 -50.4378776550293,156.25428771972656 -42.94981002807617,148.33816528320312 C-46.401798248291016,137.22052001953125 -46.01996612548828,125.56629943847656 -46.79199981689453,117.49800109863281"/><g opacity="1" transform="matrix(1,0,0,1,0,0)"/></g><g mask="url(#__lottie_element_8845_1)" style="mix-blend-mode: multiply; display: block;"><g transform="matrix(0.9994701743125916,-0.03254804387688637,0.03254804387688637,0.9994701743125916,206.89566040039062,213.26719665527344)" opacity="0.5"><path class="tertiary" fill="rgb(242,76,0)" fill-opacity="1" d=" M-96.78399658203125,117.49800109863281 C-96.78399658203125,128.42999267578125 -95.79798889160156,140.857421875 -92.605712890625,152.94931030273438 C-84.25518798828125,158.8937225341797 -71.72219848632812,164.59962463378906 -62.78758239746094,169.29025268554688 C-55.224124908447266,161.0892333984375 -50.4378776550293,156.25428771972656 -42.94981002807617,148.33816528320312 C-46.401798248291016,137.22052001953125 -46.01996612548828,125.56629943847656 -46.79199981689453,117.49800109863281"/><g opacity="1" transform="matrix(1,0,0,1,0,0)"/></g></g><g transform="matrix(0.9995943307876587,-0.028480717912316322,0.028480717912316322,0.9995943307876587,159.6184539794922,195.81350708007812)" opacity="1" style="display: block;"><g opacity="1" transform="matrix(1,0,0,1,0,0)"><path class="quaternary" fill="rgb(75,179,253)" fill-opacity="1" d=" M71.79000091552734,-136.14999389648438 C71.79000091552734,-136.14999389648438 -97.27999877929688,-136.14999389648438 -97.27999877929688,-136.14999389648438 C-97.27999877929688,-136.14999389648438 -97.27999877929688,-136.14999389648438 -97.27999877929688,-136.14999389648438 C-98.07599639892578,-136.14999389648438 -98.83799743652344,-135.83399963378906 -99.4010009765625,-135.27099609375 C-99.96399688720703,-134.70799255371094 -100.27999877929688,-133.9459991455078 -100.27999877929688,-133.14999389648438 C-100.27999877929688,-133.14999389648438 -100.27999877929688,133.14999389648438 -100.27999877929688,133.14999389648438 C-100.27999877929688,133.9459991455078 -99.96399688720703,134.70799255371094 -99.4010009765625,135.27099609375 C-98.83799743652344,135.83399963378906 -98.07599639892578,136.14999389648438 -97.27999877929688,136.14999389648438 C-97.27999877929688,136.14999389648438 71.77999877929688,136.14999389648438 71.77999877929688,136.14999389648438 C79.33899688720703,136.14999389648438 86.58799743652344,133.1479949951172 91.93299865722656,127.8030014038086 C97.27799987792969,122.45800018310547 100.27999877929688,115.20899963378906 100.27999877929688,107.6500015258789 C100.27999877929688,107.6500015258789 100.27999877929688,-107.6500015258789 100.27999877929688,-107.6500015258789 C100.27999877929688,-115.20700073242188 97.27899932861328,-122.45500183105469 91.93599700927734,-127.79900360107422 C86.59300231933594,-133.14300537109375 79.34700012207031,-136.14700317382812 71.79000091552734,-136.14999389648438z"/></g></g><g transform="matrix(0.9995943307876587,-0.028480717912316322,0.028480717912316322,0.9995943307876587,112.13865661621094,203.51890563964844)" opacity="0.5" style="mix-blend-mode: multiply; display: block;"><g opacity="1" transform="matrix(1,0,0,1,0,0)"><path class="quaternary" fill="rgb(75,179,253)" fill-opacity="1" d=" M-49.599998474121094,129.80999755859375 C-49.599998474121094,129.80999755859375 52.599998474121094,129.80999755859375 52.599998474121094,129.80999755859375 C-41.529998779296875,129.80999755859375 -51.880001068115234,-109.26000213623047 -52.599998474121094,-129.80999755859375 C-52.599998474121094,-129.80999755859375 -52.599998474121094,126.80999755859375 -52.599998474121094,126.80999755859375 C-52.599998474121094,127.60600280761719 -52.284000396728516,128.3679962158203 -51.72100067138672,128.93099975585938 C-51.15800094604492,129.49400329589844 -50.395999908447266,129.80999755859375 -49.599998474121094,129.80999755859375z"/></g></g><g transform="matrix(0.9993294477462769,0.036614831537008286,-0.036614831537008286,0.9993294477462769,224.87680053710938,208.2864990234375)" opacity="1" style="display: block;"><g opacity="1" transform="matrix(1,0,0,1,0,0)"><path stroke-linecap="butt" stroke-linejoin="miter" fill-opacity="0" stroke-miterlimit="4" class="secondary" stroke="rgb(235,230,239)" stroke-opacity="1" stroke-width="7" d=" M105.01799774169922,121.75 C105.01799774169922,121.75 147.07200622558594,121.75 147.07200622558594,121.75"/></g></g><g transform="matrix(0.9995943307876587,-0.028480717912316322,0.028480717912316322,0.9995943307876587,206.9208984375,213.4834747314453)" opacity="1" style="display: block;"><g opacity="1" transform="matrix(1,0,0,1,0,0)"><path stroke-linecap="round" stroke-linejoin="round" fill-opacity="0" class="secondary" stroke="rgb(235,230,239)" stroke-opacity="1" stroke-width="7" d=" M3.140000104904175,123.53399658203125 C3.140000104904175,123.53399658203125 3.140000104904175,-160.84300231933594 3.140000104904175,-160.84300231933594"/></g><g opacity="1" transform="matrix(1,0,0,1,0,0)"><g opacity="1" transform="matrix(1,0,0,1,0,0)"><path stroke-linecap="round" stroke-linejoin="round" fill-opacity="0" class="primary" stroke="rgb(58,51,71)" stroke-opacity="1" stroke-width="7" d=" M-160.11900329589844,-113.63200378417969 C-160.11900329589844,-113.63200378417969 -133.43299865722656,-113.63200378417969 -133.43299865722656,-113.63200378417969"/></g><g opacity="1" transform="matrix(1,0,0,1,0,0)"><path stroke-linecap="round" stroke-linejoin="round" fill-opacity="0" class="primary" stroke="rgb(58,51,71)" stroke-opacity="1" stroke-width="7" d=" M-160.11900329589844,-66.14299774169922 C-160.11900329589844,-66.14299774169922 -133.43299865722656,-66.14299774169922 -133.43299865722656,-66.14299774169922"/></g><g opacity="1" transform="matrix(1,0,0,1,0,0)"><path stroke-linecap="round" stroke-linejoin="round" fill-opacity="0" class="primary" stroke="rgb(58,51,71)" stroke-opacity="1" stroke-width="7" d=" M-160.11900329589844,-18.65399932861328 C-160.11900329589844,-18.65399932861328 -133.43299865722656,-18.65399932861328 -133.43299865722656,-18.65399932861328"/></g><g opacity="1" transform="matrix(1,0,0,1,0,0)"><path stroke-linecap="round" stroke-linejoin="round" fill-opacity="0" class="primary" stroke="rgb(58,51,71)" stroke-opacity="1" stroke-width="7" d=" M-160.11900329589844,28.833999633789062 C-160.11900329589844,28.833999633789062 -133.43299865722656,28.833999633789062 -133.43299865722656,28.833999633789062"/></g><g opacity="1" transform="matrix(1,0,0,1,0,0)"><path stroke-linecap="round" stroke-linejoin="round" fill-opacity="0" class="primary" stroke="rgb(58,51,71)" stroke-opacity="1" stroke-width="7" d=" M-160.11900329589844,76.322998046875 C-160.11900329589844,76.322998046875 -133.43299865722656,76.322998046875 -133.43299865722656,76.322998046875"/></g></g></g></g></g></svg>