<svg xmlns="http://www.w3.org/2000/svg" xmlns:xlink="http://www.w3.org/1999/xlink" viewBox="0 0 430 430" width="430" height="430" preserveAspectRatio="xMidYMid meet" style="width: 100%; height: 100%; transform: translate3d(0px, 0px, 0px); content-visibility: visible;"><defs><clipPath id="__lottie_element_3733"><rect width="430" height="430" x="0" y="0"/></clipPath><clipPath id="__lottie_element_3735"><path d="M0,0 L430,0 L430,430 L0,430z"/></clipPath></defs><g clip-path="url(#__lottie_element_3733)"><g clip-path="url(#__lottie_element_3735)" transform="matrix(1,0,0,1,0,0)" opacity="1" style="display: block;"><g transform="matrix(0.9967231750488281,-0.08088807761669159,0.08088807761669159,0.9967231750488281,205.7515411376953,225.24032592773438)" opacity="1" style="display: block;"><g opacity="1" transform="matrix(1,0,0,1,0,0)"><path class="secondary" fill="rgb(235,230,239)" fill-opacity="1" d=" M80.2249984741211,-106.47000122070312 C80.2249984741211,-106.47000122070312 -80.2249984741211,-106.47000122070312 -80.2249984741211,-106.47000122070312 C-138.98500061035156,-106.47000122070312 -186.69500732421875,-58.7599983215332 -186.69500732421875,0 C-186.69500732421875,0 -186.69500732421875,103.47000122070312 -186.69500732421875,103.47000122070312 C-186.69500732421875,105.12999725341797 -185.35499572753906,106.47000122070312 -183.69500732421875,106.47000122070312 C-183.69500732421875,106.47000122070312 80.2249984741211,106.47000122070312 80.2249984741211,106.47000122070312 C138.98500061035156,106.47000122070312 186.69500732421875,58.7599983215332 186.69500732421875,0 C186.69500732421875,-58.7599983215332 138.98500061035156,-106.47000122070312 80.2249984741211,-106.47000122070312z"/></g><g opacity="0.5" transform="matrix(1,0,0,1,-113.5,0)" style="mix-blend-mode: multiply;"><path class="secondary" fill="rgb(235,230,239)" fill-opacity="1" d=" M-33.185001373291016,0 C-33.185001373291016,-58.79999923706055 14.484999656677246,-106.47000122070312 73.28500366210938,-106.47000122070312 C73.28500366210938,-106.47000122070312 33.185001373291016,-106.47000122070312 33.185001373291016,-106.47000122070312 C-25.614999771118164,-106.47000122070312 -73.28500366210938,-58.79999923706055 -73.28500366210938,0 C-73.28500366210938,0 -73.28500366210938,103.47000122070312 -73.28500366210938,103.47000122070312 C-73.28500366210938,105.12999725341797 -71.94499969482422,106.47000122070312 -70.28500366210938,106.47000122070312 C-70.28500366210938,106.47000122070312 -33.185001373291016,106.47000122070312 -33.185001373291016,106.47000122070312 C-33.185001373291016,106.47000122070312 -33.185001373291016,0 -33.185001373291016,0z"/></g></g><g transform="matrix(0.9967231750488281,-0.08088807761669159,0.08088807761669159,0.9967231750488281,205.71109008789062,224.74195861816406)" opacity="1" style="display: block;"><g opacity="1" transform="matrix(1,0,0,1,0,0)"><path stroke-linecap="round" stroke-linejoin="round" fill-opacity="0" class="primary" stroke="rgb(18,19,49)" stroke-opacity="1" stroke-width="7" d=" M4.739999771118164,33.5 C4.739999771118164,33.5 100.26000213623047,33.5 100.26000213623047,33.5 M-112.76000213623047,33.459999084472656 C-112.76000213623047,33.459999084472656 -29.739999771118164,33.380001068115234 -29.739999771118164,33.380001068115234 M-112.56500244140625,-6.289999961853027 C-112.56500244140625,-6.289999961853027 99.95500183105469,-6.53000020980835 99.95500183105469,-6.53000020980835"/></g><g opacity="1" transform="matrix(1,0,0,1,0,0)"><path stroke-linecap="round" stroke-linejoin="round" fill-opacity="0" class="primary" stroke="rgb(18,19,49)" stroke-opacity="1" stroke-width="7" d=" M80.2249984741211,-106.47000122070312 C80.2249984741211,-106.47000122070312 -80.2249984741211,-106.47000122070312 -80.2249984741211,-106.47000122070312 C-138.98500061035156,-106.47000122070312 -186.69500732421875,-58.7599983215332 -186.69500732421875,0 C-186.69500732421875,0 -186.69500732421875,106.47000122070312 -186.69500732421875,106.47000122070312 C-186.69500732421875,106.47000122070312 80.2249984741211,106.47000122070312 80.2249984741211,106.47000122070312 C138.98500061035156,106.47000122070312 186.69500732421875,58.7599983215332 186.69500732421875,0 C186.69500732421875,-58.7599983215332 138.98500061035156,-106.47000122070312 80.2249984741211,-106.47000122070312z"/></g></g><g transform="matrix(0.9973623752593994,0.07258394360542297,-0.07258394360542297,0.9973623752593994,302.5888977050781,198.5312042236328)" opacity="1" style="display: block;"><g opacity="1" transform="matrix(1,0,0,1,0,0)"><path class="quaternary" fill="rgb(58,51,71)" fill-opacity="1" d=" M0.3499999940395355,-27.5049991607666 C-15.649999618530273,-27.5049991607666 -17.260000228881836,-10.28499984741211 -17.260000228881836,-10.28499984741211 C-17.260000228881836,1.0750000476837158 -9.529999732971191,10.28499984741211 0,10.28499984741211 C9.529999732971191,10.28499984741211 17.260000228881836,1.0750000476837158 17.260000228881836,-10.28499984741211 C17.260000228881836,-21.645000457763672 8.350000381469727,-27.5049991607666 0.3499999940395355,-27.5049991607666z"/><path stroke-linecap="round" stroke-linejoin="round" fill-opacity="0" class="primary" stroke="rgb(18,19,49)" stroke-opacity="1" stroke-width="7" d=" M0.3499999940395355,-27.5049991607666 C-15.649999618530273,-27.5049991607666 -17.260000228881836,-10.28499984741211 -17.260000228881836,-10.28499984741211 C-17.260000228881836,1.0750000476837158 -9.529999732971191,10.28499984741211 0,10.28499984741211 C9.529999732971191,10.28499984741211 17.260000228881836,1.0750000476837158 17.260000228881836,-10.28499984741211 C17.260000228881836,-21.645000457763672 8.350000381469727,-27.5049991607666 0.3499999940395355,-27.5049991607666z"/></g></g><g transform="matrix(0.9980738759040833,0.062037039548158646,-0.062037039548158646,0.9980738759040833,307.71405029296875,133.9154815673828)" opacity="1" style="display: block;"><g opacity="1" transform="matrix(1,0,0,1,0,0)"><path class="tertiary" fill="rgb(255,199,56)" fill-opacity="1" d=" M59.96099853515625,50.33000183105469 C59.96099853515625,50.33000183105469 38.32099914550781,18.860000610351562 38.32099914550781,18.860000610351562 C38.32099914550781,18.860000610351562 38.32099914550781,-16.709999084472656 38.32099914550781,-16.709999084472656 C38.32099914550781,-37.869998931884766 21.17099952697754,-55.029998779296875 0.0010000000474974513,-55.029998779296875 C-21.159000396728516,-55.029998779296875 -38.319000244140625,-37.880001068115234 -38.319000244140625,-16.709999084472656 C-38.319000244140625,-16.709999084472656 -38.319000244140625,18.860000610351562 -38.319000244140625,18.860000610351562 C-38.319000244140625,18.860000610351562 -59.95899963378906,50.33000183105469 -59.95899963378906,50.33000183105469 C-61.32899856567383,52.31999969482422 -59.909000396728516,55.029998779296875 -57.48899841308594,55.029998779296875 C-57.48899841308594,55.029998779296875 57.49100112915039,55.029998779296875 57.49100112915039,55.029998779296875 C59.9010009765625,55.029998779296875 61.33100128173828,52.31999969482422 59.96099853515625,50.33000183105469z"/></g><g opacity="0.5" transform="matrix(1,0,0,1,-18.875,-10.656000137329102)" style="mix-blend-mode: multiply;"><path class="tertiary" fill="rgb(255,199,56)" fill-opacity="1" d=" M10.821999549865723,17.56599998474121 C10.821999549865723,17.56599998474121 34.832000732421875,17.56599998474121 34.832000732421875,17.56599998474121 C34.832000732421875,17.56599998474121 34.821998596191406,17.54599952697754 34.821998596191406,17.54599952697754 C38.571998596191406,17.54599952697754 41.61199951171875,20.586000442504883 41.61199951171875,24.336000442504883 C41.61199951171875,28.086000442504883 38.571998596191406,31.125999450683594 34.821998596191406,31.125999450683594 C34.821998596191406,31.125999450683594 8.60200023651123,31.125999450683594 8.60200023651123,31.125999450683594 C5.3420000076293945,31.125999450683594 2.302000045776367,32.736000061035156 0.4519999921321869,35.41600036621094 C0.4519999921321869,35.41600036621094 -20.368000030517578,65.69599914550781 -20.368000030517578,65.69599914550781 C-20.368000030517578,65.69599914550781 -38.608001708984375,65.69599914550781 -38.608001708984375,65.69599914550781 C-41.018001556396484,65.69599914550781 -42.448001861572266,62.986000061035156 -41.077999114990234,60.99599838256836 C-41.077999114990234,60.99599838256836 -19.437999725341797,29.525999069213867 -19.437999725341797,29.525999069213867 C-19.437999725341797,29.525999069213867 -19.437999725341797,-6.044000148773193 -19.437999725341797,-6.044000148773193 C-19.437999725341797,-25.52400016784668 -4.8979997634887695,-41.59400177001953 13.92199993133545,-44.034000396728516 C13.92199993133545,-44.14400100708008 17.325000762939453,-44.36000061035156 18.865999221801758,-44.361000061035156 C20.54400062561035,-44.36199951171875 23.86199951171875,-44.14400100708008 23.86199951171875,-44.034000396728516 C26.281999588012695,-43.7140007019043 28.621999740600586,-43.183998107910156 30.871999740600586,-42.444000244140625 C15.562000274658203,-37.42399978637695 4.51200008392334,-23.013999938964844 4.51200008392334,-6.033999919891357 C4.51200008392334,-6.033999919891357 4.51200008392334,11.255999565124512 4.51200008392334,11.255999565124512 C4.51200008392334,14.746000289916992 7.3420000076293945,17.56599998474121 10.821999549865723,17.56599998474121z"/></g></g><g transform="matrix(0.9980738759040833,0.062037039548158646,-0.062037039548158646,0.9980738759040833,307.7410888671875,133.41619873046875)" opacity="1" style="display: block;"><g opacity="1" transform="matrix(1,0,0,1,0,0)"><path stroke-linecap="round" stroke-linejoin="round" fill-opacity="0" class="primary" stroke="rgb(18,19,49)" stroke-opacity="1" stroke-width="7" d=" M0,-71.91999816894531 C0,-71.91999816894531 0,-55.58000183105469 0,-55.58000183105469"/></g><g opacity="1" transform="matrix(1,0,0,1,0,0)"><path stroke-linecap="round" stroke-linejoin="round" fill-opacity="0" class="primary" stroke="rgb(18,19,49)" stroke-opacity="1" stroke-width="7" d=" M63.19499969482422,55.029998779296875 C63.19499969482422,55.029998779296875 38.32500076293945,18.860000610351562 38.32500076293945,18.860000610351562 C38.32500076293945,18.860000610351562 38.314998626708984,18.860000610351562 38.314998626708984,18.860000610351562 C38.314998626708984,18.860000610351562 38.314998626708984,-16.709999084472656 38.314998626708984,-16.709999084472656 C38.314998626708984,-37.869998931884766 21.165000915527344,-55.029998779296875 -0.004999999888241291,-55.029998779296875 C-21.165000915527344,-55.029998779296875 -38.32500076293945,-37.880001068115234 -38.32500076293945,-16.709999084472656 C-38.32500076293945,-16.709999084472656 -38.32500076293945,18.860000610351562 -38.32500076293945,18.860000610351562 C-38.32500076293945,18.860000610351562 -63.19499969482422,55.029998779296875 -63.19499969482422,55.029998779296875 C-63.19499969482422,55.029998779296875 63.19499969482422,55.029998779296875 63.19499969482422,55.029998779296875z"/></g></g></g></g></svg>