<svg xmlns="http://www.w3.org/2000/svg" xmlns:xlink="http://www.w3.org/1999/xlink" viewBox="0 0 430 430" width="430" height="430" preserveAspectRatio="xMidYMid meet" style="width: 100%; height: 100%; transform: translate3d(0px, 0px, 0px); content-visibility: visible;"><defs><clipPath id="__lottie_element_1517"><rect width="430" height="430" x="0" y="0"/></clipPath><clipPath id="__lottie_element_1519"><path d="M0,0 L430,0 L430,430 L0,430z"/></clipPath></defs><g clip-path="url(#__lottie_element_1517)"><g clip-path="url(#__lottie_element_1519)" transform="matrix(1,0,0,1,0,0)" opacity="1" style="display: block;"><g transform="matrix(1,0,0,1,215,275)" opacity="1" style="display: block;"><g opacity="1" transform="matrix(1,0,0,1,0,0)"><path class="secondary" fill="rgb(235,230,239)" fill-opacity="1" d=" M-115,120 C-115,120 115,120 115,120 C126.0459976196289,120 135,111.0459976196289 135,100 C135,100 135,-100 135,-100 C135,-111.0459976196289 126.0459976196289,-120 115,-120 C115,-120 65,-120 65,-120 C53.96200180053711,-120 36.03799819946289,-120 25,-120 C25,-120 -25,-120 -25,-120 C-36.03799819946289,-120 -53.96200180053711,-120 -65,-120 C-65,-120 -115,-120 -115,-120 C-126.0459976196289,-120 -135,-111.0459976196289 -135,-100 C-135,-100 -135,100 -135,100 C-135,111.0459976196289 -126.0459976196289,120 -115,120z"/></g></g><g transform="matrix(1,0,0,1,215,275)" opacity="0.5" style="mix-blend-mode: multiply; display: block;"><g opacity="1" transform="matrix(1,0,0,1,0,0)"><path class="secondary" fill="rgb(235,230,239)" fill-opacity="1" d=" M-80,80 C-80,80 135,80 135,80 C135,80 135,100 135,100 C135,111.0459976196289 126.0459976196289,120 115,120 C115,120 -115,120 -115,120 C-126.0459976196289,120 -135,111.0459976196289 -135,100 C-135,100 -135,-100 -135,-100 C-135,-111.0459976196289 -126.0459976196289,-120 -115,-120 C-115,-120 -95,-120 -95,-120 C-95,-120 -95,65 -95,65 C-95,73.28399658203125 -88.28399658203125,80 -80,80z"/></g></g><g transform="matrix(1,0,0,1,215,148.4010009765625)" opacity="1" style="display: block;"><g opacity="1" transform="matrix(1,0,0,1,0,0)"><path class="primary" fill="rgb(255,199,56)" fill-opacity="1" d=" M2.3429999351501465,-125.4729995727539 C1.1419999599456787,-126.9739990234375 -1.1419999599456787,-126.9739990234375 -2.3429999351501465,-125.4729995727539 C-2.3429999351501465,-125.4729995727539 -84.10099792480469,-23.274999618530273 -84.10099792480469,-23.274999618530273 C-85.6719970703125,-21.31100082397461 -84.27400207519531,-18.400999069213867 -81.75800323486328,-18.400999069213867 C-81.75800323486328,-18.400999069213867 -35,-18.400999069213867 -35,-18.400999069213867 C-35,-18.400999069213867 -35,116.5989990234375 -35,116.5989990234375 C-35,122.12200164794922 -30.523000717163086,126.5989990234375 -25,126.5989990234375 C-25,126.5989990234375 25,126.5989990234375 25,126.5989990234375 C30.523000717163086,126.5989990234375 35,122.12200164794922 35,116.5989990234375 C35,116.5989990234375 35,-18.400999069213867 35,-18.400999069213867 C35,-18.400999069213867 81.75800323486328,-18.400999069213867 81.75800323486328,-18.400999069213867 C84.27400207519531,-18.400999069213867 85.6719970703125,-21.31100082397461 84.10099792480469,-23.274999618530273 C84.10099792480469,-23.274999618530273 2.3429999351501465,-125.4729995727539 2.3429999351501465,-125.4729995727539z"/></g><g opacity="1" transform="matrix(1,0,0,1,-43,0)" style="mix-blend-mode: multiply;"><path class="primary" fill="rgb(255,199,56)" fill-opacity="0.5" d=" M7.85099983215332,116.5989990234375 C7.85099983215332,122.12200164794922 12.32800006866455,126.5989990234375 17.85099983215332,126.5989990234375 C17.85099983215332,126.5989990234375 42.85100173950195,126.5989990234375 42.85100173950195,126.5989990234375 C42.85100173950195,126.5989990234375 42.85100173950195,-126.5989990234375 42.85100173950195,-126.5989990234375 C41.97999954223633,-126.5989990234375 41.108001708984375,-126.2239990234375 40.507999420166016,-125.4729995727539 C40.507999420166016,-125.4729995727539 -41.25,-23.274999618530273 -41.25,-23.274999618530273 C-41.707000732421875,-22.702999114990234 -41.91299819946289,-22.052000045776367 -41.91299819946289,-21.415000915527344 C-41.91299819946289,-20.820999145507812 -41.73400115966797,-20.240999221801758 -41.41299819946289,-19.75 C-40.89500045776367,-18.95800018310547 -40.00899887084961,-18.400999069213867 -38.90800094604492,-18.400999069213867 C-38.90800094604492,-18.400999069213867 7.85099983215332,-18.400999069213867 7.85099983215332,-18.400999069213867 C7.85099983215332,-18.400999069213867 7.85099983215332,116.5989990234375 7.85099983215332,116.5989990234375z"/></g></g></g></g></svg>