<svg xmlns="http://www.w3.org/2000/svg" xmlns:xlink="http://www.w3.org/1999/xlink" viewBox="0 0 430 430" width="430" height="430" preserveAspectRatio="xMidYMid meet" style="width: 100%; height: 100%; transform: translate3d(0px, 0px, 0px); content-visibility: visible;"><defs><clipPath id="__lottie_element_99"><rect width="430" height="430" x="0" y="0"/></clipPath><clipPath id="__lottie_element_101"><path d="M0,0 L430,0 L430,430 L0,430z"/></clipPath><g id="__lottie_element_122"><g transform="matrix(7.066625595092773,0,0,4.2570037841796875,215.0001220703125,322.5694580078125)" opacity="1" style="display: block;"><g opacity="1" transform="matrix(1,0,0,1,-0.25,18.25)"><path class="primary" fill="rgb(18,19,49)" fill-opacity="1" d=" M0,-19 C10.486100196838379,-19 19,-10.486100196838379 19,0 C19,10.486100196838379 10.486100196838379,19 0,19 C-10.486100196838379,19 -19,10.486100196838379 -19,0 C-19,-10.486100196838379 -10.486100196838379,-19 0,-19z"/><path stroke-linecap="butt" stroke-linejoin="miter" fill-opacity="0" stroke-miterlimit="4" stroke="rgb(235,0,80)" stroke-opacity="1" stroke-width="0" d=" M0,-19 C10.486100196838379,-19 19,-10.486100196838379 19,0 C19,10.486100196838379 10.486100196838379,19 0,19 C-10.486100196838379,19 -19,10.486100196838379 -19,0 C-19,-10.486100196838379 -10.486100196838379,-19 0,-19z"/></g></g></g><mask id="__lottie_element_122_1" mask-type="alpha"><use xmlns:ns1="http://www.w3.org/1999/xlink" ns1:href="#__lottie_element_122"/></mask></defs><g clip-path="url(#__lottie_element_99)"><g clip-path="url(#__lottie_element_101)" transform="matrix(1,0,0,1,0,0)" opacity="1" style="display: block;"><g transform="matrix(1.0000118017196655,0,0,1.0000118017196655,214.99807739257812,216.02781677246094)" opacity="1" style="display: block;"><g opacity="1" transform="matrix(1,0,0,1,0,0)"><path class="secondary" fill="rgb(255,199,56)" fill-opacity="1" d=" M0,175 C96.6500015258789,175 175,96.6500015258789 175,0 C175,-96.6500015258789 96.6500015258789,-175 0,-175 C-96.6500015258789,-175 -175,-96.6500015258789 -175,0 C-175,96.6500015258789 -96.6500015258789,175 0,175z"/></g></g><g transform="matrix(1.0000118017196655,0,0,1.0000118017196655,192.67437744140625,230.14402770996094)" opacity="0.5" style="mix-blend-mode: multiply; display: block;"><g opacity="1" transform="matrix(1,0,0,1,0,0)"><path class="secondary" fill="rgb(255,199,56)" fill-opacity="1" d=" M57.32500076293945,130.88400268554688 C92.49600219726562,130.88400268554688 125.24400329589844,120.50800323486328 152.6750030517578,102.6510009765625 C120.63400268554688,138.39500427246094 74.10600280761719,160.88400268554688 22.325000762939453,160.88400268554688 C-74.32499694824219,160.88400268554688 -152.6750030517578,82.53399658203125 -152.6750030517578,-14.116000175476074 C-152.6750030517578,-75.59500122070312 -120.9729995727539,-129.6699981689453 -73.02400207519531,-160.88400268554688 C-100.78800201416016,-129.91099548339844 -117.67500305175781,-88.98500061035156 -117.67500305175781,-44.11600112915039 C-117.67500305175781,52.534000396728516 -39.32500076293945,130.88400268554688 57.32500076293945,130.88400268554688z"/></g></g><g transform="matrix(4.2570037841796875,0,0,4.2570037841796875,215.70997619628906,232.6059112548828)" opacity="1" style="display: block;"><g opacity="1" transform="matrix(-1,0,0,1,0,0)"><path stroke-linecap="round" stroke-linejoin="round" fill-opacity="0" class="primary" stroke="rgb(58,51,71)" stroke-opacity="1" stroke-width="1.8" d=" M-21.04199981689453,-11.625 C-21.04199981689453,-11.625 -14.666999816894531,-9.375 -14.666999816894531,-9.375 C-14.666999816894531,-9.375 -20.16699981689453,-6.375 -20.16699981689453,-6.375"/></g><g opacity="1" transform="matrix(1,0,0,1,0,0)"><path stroke-linecap="round" stroke-linejoin="round" fill-opacity="0" class="primary" stroke="rgb(58,51,71)" stroke-opacity="1" stroke-width="1.8" d=" M-21.04199981689453,-11.625 C-21.04199981689453,-11.625 -14.666999816894531,-9.375 -14.666999816894531,-9.375 C-14.666999816894531,-9.375 -20.16699981689453,-6.375 -20.16699981689453,-6.375"/></g></g><g transform="matrix(4.2570037841796875,0,0,4.2570037841796875,215.0001220703125,214.513916015625)" opacity="1" style="display: block;"><g opacity="1" transform="matrix(1,0,0,1,0,0)"><path class="primary" fill="rgb(58,51,71)" fill-opacity="1" d=" M15.125,12.390000343322754 C15.125,12.390000343322754 -14.875,12.390000343322754 -14.875,12.390000343322754 C-14.875,12.390000343322754 -13.503000259399414,27.610000610351562 0.6740000247955322,27.610000610351562 C14.85099983215332,27.610000610351562 15.125,12.390000343322754 15.125,12.390000343322754z"/><path stroke-linecap="round" stroke-linejoin="round" fill-opacity="0" class="primary" stroke="rgb(58,51,71)" stroke-opacity="1" stroke-width="1.8" d=" M15.125,12.390000343322754 C15.125,12.390000343322754 -14.875,12.390000343322754 -14.875,12.390000343322754 C-14.875,12.390000343322754 -13.503000259399414,27.610000610351562 0.6740000247955322,27.610000610351562 C14.85099983215332,27.610000610351562 15.125,12.390000343322754 15.125,12.390000343322754z"/></g></g><g mask="url(#__lottie_element_122_1)" style="display: block;"><g transform="matrix(4.2570037841796875,0,0,4.2570037841796875,215.0001220703125,214.513916015625)" opacity="1"><g opacity="1" transform="matrix(1,0,0,1,0,0)"><path class="tertiary" fill="rgb(242,139,168)" fill-opacity="1" d=" M15.125,12.390000343322754 C15.125,12.390000343322754 -14.875,12.390000343322754 -14.875,12.390000343322754 C-14.875,12.390000343322754 -13.503000259399414,27.610000610351562 0.6740000247955322,27.610000610351562 C14.85099983215332,27.610000610351562 15.125,12.390000343322754 15.125,12.390000343322754z"/><path stroke-linecap="round" stroke-linejoin="round" fill-opacity="0" class="primary" stroke="rgb(58,51,71)" stroke-opacity="1" stroke-width="1.8" d=" M15.125,12.390000343322754 C15.125,12.390000343322754 -14.875,12.390000343322754 -14.875,12.390000343322754 C-14.875,12.390000343322754 -13.503000259399414,27.610000610351562 0.6740000247955322,27.610000610351562 C14.85099983215332,27.610000610351562 15.125,12.390000343322754 15.125,12.390000343322754z"/></g></g></g></g></g></svg>