<svg xmlns="http://www.w3.org/2000/svg" xmlns:xlink="http://www.w3.org/1999/xlink" viewBox="0 0 430 430" width="430" height="430" preserveAspectRatio="xMidYMid meet" style="width: 100%; height: 100%; transform: translate3d(0px, 0px, 0px); content-visibility: visible;"><defs><clipPath id="__lottie_element_6941"><rect width="430" height="430" x="0" y="0"/></clipPath><clipPath id="__lottie_element_6943"><path d="M0,0 L430,0 L430,430 L0,430z"/></clipPath></defs><g clip-path="url(#__lottie_element_6941)"><g clip-path="url(#__lottie_element_6943)" transform="matrix(1,0,0,1,0,0)" opacity="1" style="display: block;"><g transform="matrix(1,0,0,1,215,215.4949951171875)" opacity="1" style="display: block;"><g opacity="1" transform="matrix(1,0,0,1,0,0)"><path class="primary" fill="rgb(235,230,239)" fill-opacity="1" d=" M183.80999755859375,-138.60499572753906 C183.80999755859375,-138.60499572753906 -183.80999755859375,-138.60499572753906 -183.80999755859375,-138.60499572753906 C-185.7429962158203,-138.60499572753906 -187.30999755859375,-137.03799438476562 -187.30999755859375,-135.10499572753906 C-187.30999755859375,-135.10499572753906 -187.30999755859375,135.10499572753906 -187.30999755859375,135.10499572753906 C-187.30999755859375,137.03799438476562 -185.7429962158203,138.60499572753906 -183.80999755859375,138.60499572753906 C-183.80999755859375,138.60499572753906 183.80999755859375,138.60499572753906 183.80999755859375,138.60499572753906 C185.7429962158203,138.60499572753906 187.30999755859375,137.03799438476562 187.30999755859375,135.10499572753906 C187.30999755859375,135.10499572753906 187.30999755859375,-135.10499572753906 187.30999755859375,-135.10499572753906 C187.30999755859375,-137.03799438476562 185.7429962158203,-138.60499572753906 183.80999755859375,-138.60499572753906z"/></g></g><g transform="matrix(1,0,0,1,215,215.5)" opacity="0.5" style="mix-blend-mode: multiply; display: block;"><g opacity="1" transform="matrix(1,0,0,1,0,0)"><path class="primary" fill="rgb(235,230,239)" fill-opacity="1" d=" M-169.93299865722656,125.4739990234375 C-169.5,125.66899871826172 -169.03399658203125,125.7760009765625 -168.55999755859375,125.79000091552734 C-168.55999755859375,125.79000091552734 187.30999755859375,125.79000091552734 187.30999755859375,125.79000091552734 C187.30999755859375,125.79000091552734 187.30999755859375,135.11000061035156 187.30999755859375,135.11000061035156 C187.30999755859375,136.03799438476562 186.9409942626953,136.9290008544922 186.28500366210938,137.5850067138672 C185.62899780273438,138.24099731445312 184.73800659179688,138.61000061035156 183.80999755859375,138.61000061035156 C183.80999755859375,138.61000061035156 -183.80999755859375,138.61000061035156 -183.80999755859375,138.61000061035156 C-184.73800659179688,138.61000061035156 -185.62899780273438,138.24099731445312 -186.28500366210938,137.5850067138672 C-186.9409942626953,136.9290008544922 -187.30999755859375,136.03799438476562 -187.30999755859375,135.11000061035156 C-187.30999755859375,135.11000061035156 -187.30999755859375,-135.11000061035156 -187.30999755859375,-135.11000061035156 C-187.30999755859375,-136.03799438476562 -186.9409942626953,-136.9290008544922 -186.28500366210938,-137.5850067138672 C-185.62899780273438,-138.24099731445312 -184.73800659179688,-138.61000061035156 -183.80999755859375,-138.61000061035156 C-183.80999755859375,-138.61000061035156 -172.05999755859375,-138.61000061035156 -172.05999755859375,-138.61000061035156 C-172.05999755859375,-138.61000061035156 -172.05999755859375,122.06999969482422 -172.05999755859375,122.06999969482422 C-172.0749969482422,122.54399871826172 -171.99600219726562,123.01599884033203 -171.8280029296875,123.45999908447266 C-171.66000366210938,123.90399932861328 -171.406005859375,124.30999755859375 -171.08099365234375,124.65499877929688 C-170.75599670410156,125 -170.36599731445312,125.27899932861328 -169.93299865722656,125.4739990234375z"/></g></g><g transform="matrix(3.5,0,0,3.5,229,215)" opacity="1" style="display: block;"><g opacity="1" transform="matrix(1,0,0,1,0,0)"><path stroke-linecap="round" stroke-linejoin="round" fill-opacity="0" class="secondary" stroke="rgb(44,165,141)" stroke-opacity="1" stroke-width="2.15" d=" M-40.38399887084961,22.384000778198242 C-40.38399887084961,22.384000778198242 -14.00100040435791,-4.001999855041504 -14.00100040435791,-4.001999855041504 C-14.00100040435791,-4.001999855041504 0.12300000339746475,9.881999969482422 0.12300000339746475,9.881999969482422 C0.12300000339746475,9.881999969482422 31.93899917602539,-21.941999435424805 31.93899917602539,-21.941999435424805"/></g></g><g transform="matrix(3.5,0,0,3.5,178.03500366210938,259.4184875488281)" opacity="1" style="display: block;"><g opacity="1" transform="matrix(1,0,0,1,14.564998626708984,-12.724998474121094)"><path stroke-linecap="round" stroke-linejoin="round" fill-opacity="0" class="secondary" stroke="rgb(44,165,141)" stroke-opacity="1" stroke-width="2.15" d=" M23.5310001373291,-23.483999252319336 C23.5310001373291,-23.483999252319336 33.53099822998047,-23.483999252319336 33.53099822998047,-23.483999252319336 C33.53099822998047,-23.483999252319336 33.53099822998047,-13.5 33.53099822998047,-13.5"/></g></g></g></g></svg>