<svg xmlns="http://www.w3.org/2000/svg" xmlns:xlink="http://www.w3.org/1999/xlink" viewBox="0 0 430 430" width="430" height="430" preserveAspectRatio="xMidYMid meet" style="width: 100%; height: 100%; transform: translate3d(0px, 0px, 0px); content-visibility: visible;"><defs><clipPath id="__lottie_element_2457"><rect width="430" height="430" x="0" y="0"/></clipPath><clipPath id="__lottie_element_2459"><path d="M0,0 L430,0 L430,430 L0,430z"/></clipPath><g id="__lottie_element_2473"><g transform="matrix(0.997020959854126,-0.0771305114030838,0.0771305114030838,0.997020959854126,107.98422241210938,-73.15238952636719)" opacity="1" style="display: block;"><g opacity="0" transform="matrix(1,0,0,1,0,0)"><g opacity="1" transform="matrix(1,0,0,1,141,195)"><path fill="rgb(255,199,56)" fill-opacity="1" d=" M14.5,44 C33.54199981689453,44 49,28.54199981689453 49,9.5 C49,-9.541999816894531 33.54199981689453,-25 14.5,-25 C-4.541999816894531,-25 -20,-9.541999816894531 -20,9.5 C-20,28.54199981689453 -4.541999816894531,44 14.5,44z"/><g opacity="1" transform="matrix(1,0,0,1,0,0)"/></g><g opacity="1" transform="matrix(1,0,0,1,156,320)"><path fill="rgb(75,179,253)" fill-opacity="1" d=" M-75,23 C-75,23 -75,1 -75,1 C-75,-26.61400032043457 -52.61399841308594,-49 -25,-49 C-25,-49 25,-49 25,-49 C52.61399841308594,-49 75,-26.61400032043457 75,1 C75,1 75,23 75,23"/></g></g></g></g><filter id="__lottie_element_2483" filterUnits="objectBoundingBox" x="0%" y="0%" width="100%" height="100%"><feComponentTransfer in="SourceGraphic"><feFuncA type="table" tableValues="1.0 0.0"/></feComponentTransfer></filter><mask id="__lottie_element_2473_2" mask-type="alpha"><g filter="url(#__lottie_element_2483)"><rect width="430" height="430" x="0" y="0" fill="#ffffff" opacity="0"/><use xmlns:ns1="http://www.w3.org/1999/xlink" ns1:href="#__lottie_element_2473"/></g></mask><g id="__lottie_element_2545"><g transform="matrix(0.8513435125350952,-0.01616273820400238,0.01616273820400238,0.8513435125350952,0.971343994140625,71.98942565917969)" opacity="1" style="display: none;"><g opacity="1" transform="matrix(1,0,0,1,0,0)"><g opacity="1" transform="matrix(1,0,0,1,141,195)"><path fill="rgb(255,199,56)" fill-opacity="1" d=" M14.5,44 C33.54199981689453,44 49,28.54199981689453 49,9.5 C49,-9.541999816894531 33.54199981689453,-25 14.5,-25 C-4.541999816894531,-25 -20,-9.541999816894531 -20,9.5 C-20,28.54199981689453 -4.541999816894531,44 14.5,44z"/><g opacity="1" transform="matrix(1,0,0,1,0,0)"/></g><g opacity="1" transform="matrix(1,0,0,1,156,320)"><path fill="rgb(75,179,253)" fill-opacity="1" d=" M-75,23 C-75,23 -75,1 -75,1 C-75,-26.61400032043457 -52.61399841308594,-49 -25,-49 C-25,-49 25,-49 25,-49 C52.61399841308594,-49 75,-26.61400032043457 75,1 C75,1 75,23 75,23"/></g></g></g></g><filter id="__lottie_element_2551" filterUnits="objectBoundingBox" x="0%" y="0%" width="100%" height="100%"><feComponentTransfer in="SourceGraphic"><feFuncA type="table" tableValues="1.0 0.0"/></feComponentTransfer></filter><mask id="__lottie_element_2545_2" mask-type="alpha"><g filter="url(#__lottie_element_2551)"><rect width="430" height="430" x="0" y="0" fill="#ffffff" opacity="0"/><use xmlns:ns2="http://www.w3.org/1999/xlink" ns2:href="#__lottie_element_2545"/></g></mask></defs><g clip-path="url(#__lottie_element_2457)"><g clip-path="url(#__lottie_element_2459)" transform="matrix(1,0,0,1,0,0)" opacity="1" style="display: block;"><g transform="matrix(0.7799999713897705,-0.00013934842718299478,0.00013934842718299478,0.7799999713897705,199.4739227294922,-80.5902328491211)" opacity="1" style="display: none;"><g opacity="1" transform="matrix(1,0,0,1,156,365.9989929199219)"><g opacity="1" transform="matrix(1,0,0,1,0,0)"><path class="primary" fill="rgb(235,230,239)" fill-opacity="1" d=" M110,-30 C110,-30 -110,-30 -110,-30 C-110,-30 -110,27 -110,27 C-110,28.656999588012695 -108.65699768066406,30 -107,30 C-107,30 107,30 107,30 C108.65699768066406,30 110,28.656999588012695 110,27 C110,27 110,-30 110,-30z"/></g></g><g opacity="1" transform="matrix(1,0,0,1,156,238.49899291992188)"><g opacity="1" transform="matrix(1,0,0,1,0,0)"><path class="secondary" fill="rgb(249,201,192)" fill-opacity="1" d=" M-110,102.5 C-110,102.5 110,102.5 110,102.5 C110,102.5 110,100.1500015258789 110,100.1500015258789 C110,100.1500015258789 98.0250015258789,100.1500015258789 98.0250015258789,100.1500015258789 C98.0250015258789,100.1500015258789 98.0250015258789,42.54899978637695 98.0250015258789,42.54899978637695 C98.0250015258789,42.54899978637695 110,42.54899978637695 110,42.54899978637695 C110,42.54899978637695 110,-99.5 110,-99.5 C110,-101.15699768066406 108.65699768066406,-102.5 107,-102.5 C107,-102.5 -107,-102.5 -107,-102.5 C-108.65699768066406,-102.5 -110,-101.15699768066406 -110,-99.5 C-110,-99.5 -110,81.11199951171875 -110,81.11199951171875 C-110,81.11199951171875 -100.6500015258789,96.0009994506836 -100.6500015258789,96.0009994506836 C-100.6500015258789,96.0009994506836 -110,102.5 -110,102.5z"/></g></g><g opacity="0.5" transform="matrix(1,0,0,1,61,365.9989929199219)" style="mix-blend-mode: multiply;"><g opacity="1" transform="matrix(1,0,0,1,0,0)"><path class="primary" fill="rgb(235,230,239)" fill-opacity="1" d=" M-15,-30 C-15,-30 15,-30 15,-30 C15,-30 15,30 15,30 C15,30 -12,30 -12,30 C-13.656999588012695,30 -15,28.656999588012695 -15,27 C-15,27 -15,-30 -15,-30z"/></g></g><g opacity="0.5" transform="matrix(1,0,0,1,61,238.49899291992188)" style="mix-blend-mode: multiply;"><g opacity="1" transform="matrix(1,0,0,1,0,0)"><path class="secondary" fill="rgb(249,201,192)" fill-opacity="1" d=" M-12,-102.5 C-12,-102.5 15,-102.5 15,-102.5 C15,-102.5 15,102.5 15,102.5 C15,102.5 -15,102.5 -15,102.5 C-15,102.5 -8.822999954223633,93.31600189208984 -8.822999954223633,93.31600189208984 C-8.822999954223633,93.31600189208984 -15,80.86799621582031 -15,80.86799621582031 C-15,80.86799621582031 -15,-99.5 -15,-99.5 C-15,-101.15699768066406 -13.656999588012695,-102.5 -12,-102.5z"/></g></g><g opacity="1" transform="matrix(1,0,0,1,141,195)"><g opacity="1" transform="matrix(1,0,0,1,0,0)"><path class="tertiary" fill="rgb(242,76,0)" fill-opacity="1" d=" M0,25 C13.798999786376953,25 25,13.798999786376953 25,0 C25,-13.798999786376953 13.798999786376953,-25 0,-25 C-13.798999786376953,-25 -25,-13.798999786376953 -25,0 C-25,13.798999786376953 -13.798999786376953,25 0,25z"/></g></g><g opacity="0.5" transform="matrix(1,0,0,1,138.71400451660156,195.2949981689453)" style="mix-blend-mode: multiply;"><g opacity="1" transform="matrix(1,0,0,1,0,0)"><path class="tertiary" fill="rgb(242,76,0)" fill-opacity="1" d=" M17.285999298095703,14.704000473022461 C19.149999618530273,14.704000473022461 20.965999603271484,14.5 22.714000701904297,14.112000465393066 C18.18600082397461,20.51799964904785 10.720999717712402,24.70400047302246 2.2860000133514404,24.70400047302246 C-11.512999534606934,24.70400047302246 -22.714000701904297,13.503000259399414 -22.714000701904297,-0.29600000381469727 C-22.714000701904297,-12.230999946594238 -14.333999633789062,-22.222999572753906 -3.1419999599456787,-24.70400047302246 C-6.020999908447266,-20.631000518798828 -7.714000225067139,-15.65999984741211 -7.714000225067139,-10.295999526977539 C-7.714000225067139,3.503000020980835 3.486999988555908,14.704000473022461 17.285999298095703,14.704000473022461z"/></g></g><g opacity="1" transform="matrix(1,0,0,1,156,281.12799072265625)"><g opacity="1" transform="matrix(1,0,0,1,0,0)"><path class="quaternary" fill="rgb(44,165,141)" fill-opacity="1" d=" M110,-1.281000018119812 C110,-1.281000018119812 52.66899871826172,-58.986000061035156 52.66899871826172,-58.986000061035156 C51.49599838256836,-60.16699981689453 49.584999084472656,-60.16699981689453 48.4119987487793,-58.986000061035156 C48.4119987487793,-58.986000061035156 -13.006999969482422,2.8340001106262207 -13.006999969482422,2.8340001106262207 C-13.006999969482422,2.8340001106262207 -42.465999603271484,-26.81800079345703 -42.465999603271484,-26.81800079345703 C-43.638999938964844,-27.999000549316406 -45.54999923706055,-27.999000549316406 -46.722999572753906,-26.81800079345703 C-46.722999572753906,-26.81800079345703 -110,36.87200164794922 -110,36.87200164794922 C-110,36.87200164794922 -110,59.87200164794922 -110,59.87200164794922 C-110,59.87200164794922 110,59.87200164794922 110,59.87200164794922 C110,59.87200164794922 110,-1.281000018119812 110,-1.281000018119812z"/></g></g><g opacity="0.5" transform="matrix(1,0,0,1,61,314.4020080566406)" style="mix-blend-mode: multiply;"><g opacity="1" transform="matrix(1,0,0,1,0,0)"><path class="secondary" fill="rgb(249,201,192)" fill-opacity="1" d=" M-15,3.5980000495910645 C-15,3.5980000495910645 15,-26.597999572753906 15,-26.597999572753906 C15,-26.597999572753906 15,26.597999572753906 15,26.597999572753906 C15,26.597999572753906 -15,26.597999572753906 -15,26.597999572753906 C-15,26.597999572753906 -15,3.5980000495910645 -15,3.5980000495910645z"/></g></g><g opacity="0.5" transform="matrix(1,0,0,1,101.99700164794922,306.1549987792969)" style="mix-blend-mode: multiply;"><g opacity="1" transform="matrix(1,0,0,1,0,0)"><path class="quaternary" fill="rgb(44,165,141)" fill-opacity="1" d=" M40.99700164794922,-22.194000244140625 C40.99700164794922,-22.194000244140625 -15.996999740600586,34.845001220703125 -15.996999740600586,34.845001220703125 C-15.996999740600586,34.845001220703125 -40.99700164794922,34.84400177001953 -40.99700164794922,34.84400177001953 C-40.99700164794922,34.84400177001953 28.42799949645996,-34.845001220703125 28.42799949645996,-34.845001220703125 C28.42799949645996,-34.845001220703125 40.99700164794922,-22.194000244140625 40.99700164794922,-22.194000244140625z"/></g></g></g><g transform="matrix(0.9830111265182495,0.18354566395282745,-0.18354566395282745,0.9830111265182495,38.51396942138672,-46.08053970336914)" opacity="1" style="display: block;"><g opacity="1" transform="matrix(1,0,0,1,256.4110107421875,154.6439971923828)"><g opacity="1" transform="matrix(1,0,0,1,0,0)"><path class="septenary" fill="rgb(58,51,71)" fill-opacity="1" d=" M-130.22000122070312,-71.65299987792969 C-131.82000732421875,-71.2239990234375 -132.77099609375,-69.5790023803711 -132.3419952392578,-67.97899627685547 C-132.3419952392578,-67.97899627685547 -80.05899810791016,127.14299774169922 -80.05899810791016,127.14299774169922 C-80.05899810791016,127.14299774169922 132.44500732421875,70.2030029296875 132.44500732421875,70.2030029296875 C132.44500732421875,70.2030029296875 80.16200256347656,-124.91899871826172 80.16200256347656,-124.91899871826172 C79.73300170898438,-126.51899719238281 78.08799743652344,-127.46900177001953 76.48799896240234,-127.04000091552734 C76.48799896240234,-127.04000091552734 -130.22000122070312,-71.65299987792969 -130.22000122070312,-71.65299987792969z"/></g></g><g opacity="0.5" transform="matrix(1,0,0,1,167.7449951171875,178.06500244140625)" style="mix-blend-mode: multiply;"><g opacity="1" transform="matrix(1,0,0,1,0,0)"><path class="septenary" fill="rgb(58,51,71)" fill-opacity="1" d=" M-41.55400085449219,-95.0739974975586 C-41.55400085449219,-95.0739974975586 -9.276000022888184,-103.72200012207031 -9.276000022888184,-103.72200012207031 C-9.276000022888184,-103.72200012207031 43.77899932861328,94.28199768066406 43.77899932861328,94.28199768066406 C43.77899932861328,94.28199768066406 8.607000350952148,103.72200012207031 8.607000350952148,103.72200012207031 C8.607000350952148,103.72200012207031 -43.67599868774414,-91.39900207519531 -43.67599868774414,-91.39900207519531 C-44.10499954223633,-92.9990005493164 -43.15399932861328,-94.6449966430664 -41.55400085449219,-95.0739974975586z"/></g></g></g><g transform="matrix(0.997020959854126,-0.0771305114030838,0.0771305114030838,0.997020959854126,87.98422241210938,-73.15238952636719)" opacity="1" style="display: block;"><g opacity="0" transform="matrix(1,0,0,1,0,0)"><g opacity="1" transform="matrix(1,0,0,1,141,195)"><path class="senary" fill="rgb(255,199,56)" fill-opacity="1" d=" M14.5,44 C33.54199981689453,44 49,28.54199981689453 49,9.5 C49,-9.541999816894531 33.54199981689453,-25 14.5,-25 C-4.541999816894531,-25 -20,-9.541999816894531 -20,9.5 C-20,28.54199981689453 -4.541999816894531,44 14.5,44z"/><g opacity="1" transform="matrix(1,0,0,1,0,0)"/></g><g opacity="1" transform="matrix(1,0,0,1,156,320)"><path class="quinary" fill="rgb(75,179,253)" fill-opacity="1" d=" M-75,23 C-75,23 -75,1 -75,1 C-75,-26.61400032043457 -52.61399841308594,-49 -25,-49 C-25,-49 25,-49 25,-49 C52.61399841308594,-49 75,-26.61400032043457 75,1 C75,1 75,23 75,23"/></g></g></g><g mask="url(#__lottie_element_2473_2)" style="mix-blend-mode: multiply; display: block;"><g transform="matrix(0.997020959854126,-0.0771305114030838,0.0771305114030838,0.997020959854126,87.98422241210938,-73.15238952636719)" opacity="0.5"><g opacity="0" transform="matrix(1,0,0,1,0,0)"><g opacity="1" transform="matrix(1,0,0,1,141,195)"><path class="senary" fill="rgb(255,199,56)" fill-opacity="1" d=" M14.5,44 C33.54199981689453,44 49,28.54199981689453 49,9.5 C49,-9.541999816894531 33.54199981689453,-25 14.5,-25 C-4.541999816894531,-25 -20,-9.541999816894531 -20,9.5 C-20,28.54199981689453 -4.541999816894531,44 14.5,44z"/><g opacity="1" transform="matrix(1,0,0,1,0,0)"/></g><g opacity="1" transform="matrix(1,0,0,1,156,320)"><path class="quinary" fill="rgb(75,179,253)" fill-opacity="1" d=" M-75,23 C-75,23 -75,1 -75,1 C-75,-26.61400032043457 -52.61399841308594,-49 -25,-49 C-25,-49 25,-49 25,-49 C52.61399841308594,-49 75,-26.61400032043457 75,1 C75,1 75,23 75,23"/></g></g></g></g><g transform="matrix(0.7559714317321777,0.19492460787296295,-0.19492460787296295,0.7559714317321777,151.4504852294922,-55.1370735168457)" opacity="1" style="display: none;"><g opacity="1" transform="matrix(1,0,0,1,289.24200439453125,279.010009765625)"><g opacity="1" transform="matrix(1,0,0,1,0,0)"><path class="primary" fill="rgb(235,230,239)" fill-opacity="1" d=" M99.3290023803711,-55.224998474121094 C99.3290023803711,-55.224998474121094 -113.17400360107422,1.715000033378601 -113.17400360107422,1.715000033378601 C-113.17400360107422,1.715000033378601 -99.43199920654297,53.000999450683594 -99.43199920654297,53.000999450683594 C-99.00299835205078,54.60100173950195 -97.35800170898438,55.55099868774414 -95.75800323486328,55.12200164794922 C-95.75800323486328,55.12200164794922 110.94999694824219,-0.26499998569488525 110.94999694824219,-0.26499998569488525 C112.55000305175781,-0.6940000057220459 113.5,-2.3399999141693115 113.07099914550781,-3.940000057220459 C113.07099914550781,-3.940000057220459 99.3290023803711,-55.224998474121094 99.3290023803711,-55.224998474121094z"/></g></g><g opacity="1" transform="matrix(1,0,0,1,200.9409942626953,303.0929870605469)" style="mix-blend-mode: multiply;"><g opacity="1" transform="matrix(1,0,0,1,0,0)"><path class="primary" fill="rgb(235,230,239)" fill-opacity="1" d=" M10.380999565124512,-31.815000534057617 C10.380999565124512,-31.815000534057617 -24.874000549316406,-22.368000030517578 -24.874000549316406,-22.368000030517578 C-24.874000549316406,-22.368000030517578 -10.355999946594238,31.815000534057617 -10.355999946594238,31.815000534057617 C-10.355999946594238,31.815000534057617 24.874000549316406,22.27400016784668 24.874000549316406,22.27400016784668 C24.874000549316406,22.27400016784668 10.380999565124512,-31.815000534057617 10.380999565124512,-31.815000534057617z"/></g></g></g><g transform="matrix(0.9830111265182495,0.18354566395282745,-0.18354566395282745,0.9830111265182495,38.51396942138672,-46.08053970336914)" opacity="1" style="display: block;"><g opacity="1" transform="matrix(1,0,0,1,289.24200439453125,279.010009765625)"><g opacity="1" transform="matrix(1,0,0,1,0,0)"><path class="primary" fill="rgb(235,230,239)" fill-opacity="1" d=" M99.3290023803711,-55.224998474121094 C99.3290023803711,-55.224998474121094 -113.17400360107422,1.715000033378601 -113.17400360107422,1.715000033378601 C-113.17400360107422,1.715000033378601 -99.43199920654297,53.000999450683594 -99.43199920654297,53.000999450683594 C-99.00299835205078,54.60100173950195 -97.35800170898438,55.55099868774414 -95.75800323486328,55.12200164794922 C-95.75800323486328,55.12200164794922 110.94999694824219,-0.26499998569488525 110.94999694824219,-0.26499998569488525 C112.55000305175781,-0.6940000057220459 113.5,-2.3399999141693115 113.07099914550781,-3.940000057220459 C113.07099914550781,-3.940000057220459 99.3290023803711,-55.224998474121094 99.3290023803711,-55.224998474121094z"/></g></g><g opacity="1" transform="matrix(1,0,0,1,200.9409942626953,303.0929870605469)" style="mix-blend-mode: multiply;"><g opacity="1" transform="matrix(1,0,0,1,0,0)"><path class="primary" fill="rgb(235,230,239)" fill-opacity="1" d=" M10.380999565124512,-31.815000534057617 C10.380999565124512,-31.815000534057617 -24.874000549316406,-22.368000030517578 -24.874000549316406,-22.368000030517578 C-24.874000549316406,-22.368000030517578 -10.355999946594238,31.815000534057617 -10.355999946594238,31.815000534057617 C-10.355999946594238,31.815000534057617 24.874000549316406,22.27400016784668 24.874000549316406,22.27400016784668 C24.874000549316406,22.27400016784668 10.380999565124512,-31.815000534057617 10.380999565124512,-31.815000534057617z"/></g></g></g><g transform="matrix(0.8513435125350952,-0.01616273820400238,0.01616273820400238,0.8513435125350952,-19.0174560546875,71.98942565917969)" opacity="1" style="display: none;"><g opacity="1" transform="matrix(1,0,0,1,156,266)"><g opacity="1" transform="matrix(1,0,0,1,0,0)"/></g><g opacity="1" transform="matrix(1,0,0,1,0,0)"><g opacity="1" transform="matrix(1,0,0,1,141,195)"><path class="senary" fill="rgb(255,199,56)" fill-opacity="1" d=" M14.5,44 C33.54199981689453,44 49,28.54199981689453 49,9.5 C49,-9.541999816894531 33.54199981689453,-25 14.5,-25 C-4.541999816894531,-25 -20,-9.541999816894531 -20,9.5 C-20,28.54199981689453 -4.541999816894531,44 14.5,44z"/><g opacity="1" transform="matrix(1,0,0,1,0,0)"/></g><g opacity="1" transform="matrix(1,0,0,1,156,320)"><path class="quinary" fill="rgb(75,179,253)" fill-opacity="1" d=" M-75,23 C-75,23 -75,1 -75,1 C-75,-26.61400032043457 -52.61399841308594,-49 -25,-49 C-25,-49 25,-49 25,-49 C52.61399841308594,-49 75,-26.61400032043457 75,1 C75,1 75,23 75,23"/></g></g><g opacity="1" transform="matrix(1,0,0,1,156,341)"><g opacity="1" transform="matrix(1,0,0,1,0,0)"/></g></g><g mask="url(#__lottie_element_2545_2)" style="mix-blend-mode: multiply; display: none;"><g transform="matrix(0.8513435125350952,-0.01616273820400238,0.01616273820400238,0.8513435125350952,-19.0174560546875,71.98942565917969)" opacity="0.5"><g opacity="1" transform="matrix(1,0,0,1,156,266)"><g opacity="1" transform="matrix(1,0,0,1,0,0)"/></g><g opacity="1" transform="matrix(1,0,0,1,0,0)"><g opacity="1" transform="matrix(1,0,0,1,141,195)"><path class="senary" fill="rgb(255,199,56)" fill-opacity="1" d=" M14.5,44 C33.54199981689453,44 49,28.54199981689453 49,9.5 C49,-9.541999816894531 33.54199981689453,-25 14.5,-25 C-4.541999816894531,-25 -20,-9.541999816894531 -20,9.5 C-20,28.54199981689453 -4.541999816894531,44 14.5,44z"/><g opacity="1" transform="matrix(1,0,0,1,0,0)"/></g><g opacity="1" transform="matrix(1,0,0,1,156,320)"><path class="quinary" fill="rgb(75,179,253)" fill-opacity="1" d=" M-75,23 C-75,23 -75,1 -75,1 C-75,-26.61400032043457 -52.61399841308594,-49 -25,-49 C-25,-49 25,-49 25,-49 C52.61399841308594,-49 75,-26.61400032043457 75,1 C75,1 75,23 75,23"/></g></g><g opacity="1" transform="matrix(1,0,0,1,156,341)"><g opacity="1" transform="matrix(1,0,0,1,0,0)"/></g></g></g><g transform="matrix(0.8265178799629211,0.20473191142082214,-0.20473191142082214,0.8265178799629211,-62.4112548828125,92.55071258544922)" opacity="1" style="display: none;"><g opacity="1" transform="matrix(1,0,0,1,289.24200439453125,279.010009765625)"><g opacity="1" transform="matrix(1,0,0,1,0,0)"><path class="primary" fill="rgb(235,230,239)" fill-opacity="1" d=" M99.3290023803711,-55.224998474121094 C99.3290023803711,-55.224998474121094 -113.17400360107422,1.715000033378601 -113.17400360107422,1.715000033378601 C-113.17400360107422,1.715000033378601 -99.43199920654297,53.000999450683594 -99.43199920654297,53.000999450683594 C-99.00299835205078,54.60100173950195 -97.35800170898438,55.55099868774414 -95.75800323486328,55.12200164794922 C-95.75800323486328,55.12200164794922 110.94999694824219,-0.26499998569488525 110.94999694824219,-0.26499998569488525 C112.55000305175781,-0.6940000057220459 113.5,-2.3399999141693115 113.07099914550781,-3.940000057220459 C113.07099914550781,-3.940000057220459 99.3290023803711,-55.224998474121094 99.3290023803711,-55.224998474121094z"/></g></g><g opacity="1" transform="matrix(1,0,0,1,200.9409942626953,303.0929870605469)" style="mix-blend-mode: multiply;"><g opacity="1" transform="matrix(1,0,0,1,0,0)"><path class="primary" fill="rgb(235,230,239)" fill-opacity="1" d=" M10.380999565124512,-31.815000534057617 C10.380999565124512,-31.815000534057617 -24.874000549316406,-22.368000030517578 -24.874000549316406,-22.368000030517578 C-24.874000549316406,-22.368000030517578 -10.355999946594238,31.815000534057617 -10.355999946594238,31.815000534057617 C-10.355999946594238,31.815000534057617 24.874000549316406,22.27400016784668 24.874000549316406,22.27400016784668 C24.874000549316406,22.27400016784668 10.380999565124512,-31.815000534057617 10.380999565124512,-31.815000534057617z"/></g></g></g><g transform="matrix(0.7634361982345581,-0.16325940191745758,0.16325940191745758,0.7634361982345581,-46.49903869628906,120.375244140625)" opacity="1" style="display: none;"><g opacity="1" transform="matrix(1,0,0,1,156,365.9989929199219)"><g opacity="1" transform="matrix(1,0,0,1,0,0)"><path class="primary" fill="rgb(235,230,239)" fill-opacity="1" d=" M110,-30 C110,-30 -110,-30 -110,-30 C-110,-30 -110,27 -110,27 C-110,28.656999588012695 -108.65699768066406,30 -107,30 C-107,30 107,30 107,30 C108.65699768066406,30 110,28.656999588012695 110,27 C110,27 110,-30 110,-30z"/></g></g><g opacity="1" transform="matrix(1,0,0,1,156,238.49899291992188)"><g opacity="1" transform="matrix(1,0,0,1,0,0)"><path class="secondary" fill="rgb(249,201,192)" fill-opacity="1" d=" M-110,102.5 C-110,102.5 110,102.5 110,102.5 C110,102.5 110,100.1500015258789 110,100.1500015258789 C110,100.1500015258789 98.0250015258789,100.1500015258789 98.0250015258789,100.1500015258789 C98.0250015258789,100.1500015258789 98.0250015258789,42.54899978637695 98.0250015258789,42.54899978637695 C98.0250015258789,42.54899978637695 110,42.54899978637695 110,42.54899978637695 C110,42.54899978637695 110,-99.5 110,-99.5 C110,-101.15699768066406 108.65699768066406,-102.5 107,-102.5 C107,-102.5 -107,-102.5 -107,-102.5 C-108.65699768066406,-102.5 -110,-101.15699768066406 -110,-99.5 C-110,-99.5 -110,81.11199951171875 -110,81.11199951171875 C-110,81.11199951171875 -100.6500015258789,96.0009994506836 -100.6500015258789,96.0009994506836 C-100.6500015258789,96.0009994506836 -110,102.5 -110,102.5z"/></g></g><g opacity="0.5" transform="matrix(1,0,0,1,61,365.9989929199219)" style="mix-blend-mode: multiply;"><g opacity="1" transform="matrix(1,0,0,1,0,0)"><path class="primary" fill="rgb(235,230,239)" fill-opacity="1" d=" M-15,-30 C-15,-30 15,-30 15,-30 C15,-30 15,30 15,30 C15,30 -12,30 -12,30 C-13.656999588012695,30 -15,28.656999588012695 -15,27 C-15,27 -15,-30 -15,-30z"/></g></g><g opacity="0.5" transform="matrix(1,0,0,1,61,238.49899291992188)" style="mix-blend-mode: multiply;"><g opacity="1" transform="matrix(1,0,0,1,0,0)"><path class="secondary" fill="rgb(249,201,192)" fill-opacity="1" d=" M-12,-102.5 C-12,-102.5 15,-102.5 15,-102.5 C15,-102.5 15,102.5 15,102.5 C15,102.5 -15,102.5 -15,102.5 C-15,102.5 -8.822999954223633,93.31600189208984 -8.822999954223633,93.31600189208984 C-8.822999954223633,93.31600189208984 -15,80.86799621582031 -15,80.86799621582031 C-15,80.86799621582031 -15,-99.5 -15,-99.5 C-15,-101.15699768066406 -13.656999588012695,-102.5 -12,-102.5z"/></g></g><g opacity="1" transform="matrix(1,0,0,1,141,195)"><g opacity="1" transform="matrix(1,0,0,1,0,0)"><path class="tertiary" fill="rgb(242,76,0)" fill-opacity="1" d=" M0,25 C13.798999786376953,25 25,13.798999786376953 25,0 C25,-13.798999786376953 13.798999786376953,-25 0,-25 C-13.798999786376953,-25 -25,-13.798999786376953 -25,0 C-25,13.798999786376953 -13.798999786376953,25 0,25z"/></g></g><g opacity="0.5" transform="matrix(1,0,0,1,138.71400451660156,195.2949981689453)" style="mix-blend-mode: multiply;"><g opacity="1" transform="matrix(1,0,0,1,0,0)"><path class="tertiary" fill="rgb(242,76,0)" fill-opacity="1" d=" M17.285999298095703,14.704000473022461 C19.149999618530273,14.704000473022461 20.965999603271484,14.5 22.714000701904297,14.112000465393066 C18.18600082397461,20.51799964904785 10.720999717712402,24.70400047302246 2.2860000133514404,24.70400047302246 C-11.512999534606934,24.70400047302246 -22.714000701904297,13.503000259399414 -22.714000701904297,-0.29600000381469727 C-22.714000701904297,-12.230999946594238 -14.333999633789062,-22.222999572753906 -3.1419999599456787,-24.70400047302246 C-6.020999908447266,-20.631000518798828 -7.714000225067139,-15.65999984741211 -7.714000225067139,-10.295999526977539 C-7.714000225067139,3.503000020980835 3.486999988555908,14.704000473022461 17.285999298095703,14.704000473022461z"/></g></g><g opacity="1" transform="matrix(1,0,0,1,156,281.12799072265625)"><g opacity="1" transform="matrix(1,0,0,1,0,0)"><path class="quaternary" fill="rgb(44,165,141)" fill-opacity="1" d=" M110,-1.281000018119812 C110,-1.281000018119812 52.66899871826172,-58.986000061035156 52.66899871826172,-58.986000061035156 C51.49599838256836,-60.16699981689453 49.584999084472656,-60.16699981689453 48.4119987487793,-58.986000061035156 C48.4119987487793,-58.986000061035156 -13.006999969482422,2.8340001106262207 -13.006999969482422,2.8340001106262207 C-13.006999969482422,2.8340001106262207 -42.465999603271484,-26.81800079345703 -42.465999603271484,-26.81800079345703 C-43.638999938964844,-27.999000549316406 -45.54999923706055,-27.999000549316406 -46.722999572753906,-26.81800079345703 C-46.722999572753906,-26.81800079345703 -110,36.87200164794922 -110,36.87200164794922 C-110,36.87200164794922 -110,59.87200164794922 -110,59.87200164794922 C-110,59.87200164794922 110,59.87200164794922 110,59.87200164794922 C110,59.87200164794922 110,-1.281000018119812 110,-1.281000018119812z"/></g></g><g opacity="0.5" transform="matrix(1,0,0,1,61,314.4020080566406)" style="mix-blend-mode: multiply;"><g opacity="1" transform="matrix(1,0,0,1,0,0)"><path class="secondary" fill="rgb(249,201,192)" fill-opacity="1" d=" M-15,3.5980000495910645 C-15,3.5980000495910645 15,-26.597999572753906 15,-26.597999572753906 C15,-26.597999572753906 15,26.597999572753906 15,26.597999572753906 C15,26.597999572753906 -15,26.597999572753906 -15,26.597999572753906 C-15,26.597999572753906 -15,3.5980000495910645 -15,3.5980000495910645z"/></g></g><g opacity="0.5" transform="matrix(1,0,0,1,101.99700164794922,306.1549987792969)" style="mix-blend-mode: multiply;"><g opacity="1" transform="matrix(1,0,0,1,0,0)"><path class="quaternary" fill="rgb(44,165,141)" fill-opacity="1" d=" M40.99700164794922,-22.194000244140625 C40.99700164794922,-22.194000244140625 -15.996999740600586,34.845001220703125 -15.996999740600586,34.845001220703125 C-15.996999740600586,34.845001220703125 -40.99700164794922,34.84400177001953 -40.99700164794922,34.84400177001953 C-40.99700164794922,34.84400177001953 28.42799949645996,-34.845001220703125 28.42799949645996,-34.845001220703125 C28.42799949645996,-34.845001220703125 40.99700164794922,-22.194000244140625 40.99700164794922,-22.194000244140625z"/></g></g></g><g transform="matrix(0.9999946355819702,-0.0032780789770185947,0.0032780789770185947,0.9999946355819702,-1.4345855712890625,0.9354248046875)" opacity="1" style="display: block;"><g opacity="1" transform="matrix(1,0,0,1,156,365.9989929199219)"><g opacity="1" transform="matrix(1,0,0,1,0,0)"><path class="primary" fill="rgb(235,230,239)" fill-opacity="1" d=" M110,-30 C110,-30 -110,-30 -110,-30 C-110,-30 -110,27 -110,27 C-110,28.656999588012695 -108.65699768066406,30 -107,30 C-107,30 107,30 107,30 C108.65699768066406,30 110,28.656999588012695 110,27 C110,27 110,-30 110,-30z"/></g></g><g opacity="1" transform="matrix(1,0,0,1,156,238.49899291992188)"><g opacity="1" transform="matrix(1,0,0,1,0,0)"><path class="secondary" fill="rgb(249,201,192)" fill-opacity="1" d=" M-110,102.5 C-110,102.5 110,102.5 110,102.5 C110,102.5 110,100.1500015258789 110,100.1500015258789 C110,100.1500015258789 98.0250015258789,100.1500015258789 98.0250015258789,100.1500015258789 C98.0250015258789,100.1500015258789 98.0250015258789,42.54899978637695 98.0250015258789,42.54899978637695 C98.0250015258789,42.54899978637695 110,42.54899978637695 110,42.54899978637695 C110,42.54899978637695 110,-99.5 110,-99.5 C110,-101.15699768066406 108.65699768066406,-102.5 107,-102.5 C107,-102.5 -107,-102.5 -107,-102.5 C-108.65699768066406,-102.5 -110,-101.15699768066406 -110,-99.5 C-110,-99.5 -110,81.11199951171875 -110,81.11199951171875 C-110,81.11199951171875 -100.6500015258789,96.0009994506836 -100.6500015258789,96.0009994506836 C-100.6500015258789,96.0009994506836 -110,102.5 -110,102.5z"/></g></g><g opacity="0.5" transform="matrix(1,0,0,1,61,365.9989929199219)" style="mix-blend-mode: multiply;"><g opacity="1" transform="matrix(1,0,0,1,0,0)"><path class="primary" fill="rgb(235,230,239)" fill-opacity="1" d=" M-15,-30 C-15,-30 15,-30 15,-30 C15,-30 15,30 15,30 C15,30 -12,30 -12,30 C-13.656999588012695,30 -15,28.656999588012695 -15,27 C-15,27 -15,-30 -15,-30z"/></g></g><g opacity="0.5" transform="matrix(1,0,0,1,61,238.49899291992188)" style="mix-blend-mode: multiply;"><g opacity="1" transform="matrix(1,0,0,1,0,0)"><path class="secondary" fill="rgb(249,201,192)" fill-opacity="1" d=" M-12,-102.5 C-12,-102.5 15,-102.5 15,-102.5 C15,-102.5 15,102.5 15,102.5 C15,102.5 -15,102.5 -15,102.5 C-15,102.5 -8.822999954223633,93.31600189208984 -8.822999954223633,93.31600189208984 C-8.822999954223633,93.31600189208984 -15,80.86799621582031 -15,80.86799621582031 C-15,80.86799621582031 -15,-99.5 -15,-99.5 C-15,-101.15699768066406 -13.656999588012695,-102.5 -12,-102.5z"/></g></g><g opacity="1" transform="matrix(1,0,0,1,141,195)"><g opacity="1" transform="matrix(1,0,0,1,0,0)"><path class="tertiary" fill="rgb(242,76,0)" fill-opacity="1" d=" M0,25 C13.798999786376953,25 25,13.798999786376953 25,0 C25,-13.798999786376953 13.798999786376953,-25 0,-25 C-13.798999786376953,-25 -25,-13.798999786376953 -25,0 C-25,13.798999786376953 -13.798999786376953,25 0,25z"/></g></g><g opacity="0.5" transform="matrix(1,0,0,1,138.71400451660156,195.2949981689453)" style="mix-blend-mode: multiply;"><g opacity="1" transform="matrix(1,0,0,1,0,0)"><path class="tertiary" fill="rgb(242,76,0)" fill-opacity="1" d=" M17.285999298095703,14.704000473022461 C19.149999618530273,14.704000473022461 20.965999603271484,14.5 22.714000701904297,14.112000465393066 C18.18600082397461,20.51799964904785 10.720999717712402,24.70400047302246 2.2860000133514404,24.70400047302246 C-11.512999534606934,24.70400047302246 -22.714000701904297,13.503000259399414 -22.714000701904297,-0.29600000381469727 C-22.714000701904297,-12.230999946594238 -14.333999633789062,-22.222999572753906 -3.1419999599456787,-24.70400047302246 C-6.020999908447266,-20.631000518798828 -7.714000225067139,-15.65999984741211 -7.714000225067139,-10.295999526977539 C-7.714000225067139,3.503000020980835 3.486999988555908,14.704000473022461 17.285999298095703,14.704000473022461z"/></g></g><g opacity="1" transform="matrix(1,0,0,1,156,281.12799072265625)"><g opacity="1" transform="matrix(1,0,0,1,0,0)"><path class="quaternary" fill="rgb(44,165,141)" fill-opacity="1" d=" M110,-1.281000018119812 C110,-1.281000018119812 52.66899871826172,-58.986000061035156 52.66899871826172,-58.986000061035156 C51.49599838256836,-60.16699981689453 49.584999084472656,-60.16699981689453 48.4119987487793,-58.986000061035156 C48.4119987487793,-58.986000061035156 -13.006999969482422,2.8340001106262207 -13.006999969482422,2.8340001106262207 C-13.006999969482422,2.8340001106262207 -42.465999603271484,-26.81800079345703 -42.465999603271484,-26.81800079345703 C-43.638999938964844,-27.999000549316406 -45.54999923706055,-27.999000549316406 -46.722999572753906,-26.81800079345703 C-46.722999572753906,-26.81800079345703 -110,36.87200164794922 -110,36.87200164794922 C-110,36.87200164794922 -110,59.87200164794922 -110,59.87200164794922 C-110,59.87200164794922 110,59.87200164794922 110,59.87200164794922 C110,59.87200164794922 110,-1.281000018119812 110,-1.281000018119812z"/></g></g><g opacity="0.5" transform="matrix(1,0,0,1,61,314.4020080566406)" style="mix-blend-mode: multiply;"><g opacity="1" transform="matrix(1,0,0,1,0,0)"><path class="secondary" fill="rgb(249,201,192)" fill-opacity="1" d=" M-15,3.5980000495910645 C-15,3.5980000495910645 15,-26.597999572753906 15,-26.597999572753906 C15,-26.597999572753906 15,26.597999572753906 15,26.597999572753906 C15,26.597999572753906 -15,26.597999572753906 -15,26.597999572753906 C-15,26.597999572753906 -15,3.5980000495910645 -15,3.5980000495910645z"/></g></g><g opacity="0.5" transform="matrix(1,0,0,1,101.99700164794922,306.1549987792969)" style="mix-blend-mode: multiply;"><g opacity="1" transform="matrix(1,0,0,1,0,0)"><path class="quaternary" fill="rgb(44,165,141)" fill-opacity="1" d=" M40.99700164794922,-22.194000244140625 C40.99700164794922,-22.194000244140625 -15.996999740600586,34.845001220703125 -15.996999740600586,34.845001220703125 C-15.996999740600586,34.845001220703125 -40.99700164794922,34.84400177001953 -40.99700164794922,34.84400177001953 C-40.99700164794922,34.84400177001953 28.42799949645996,-34.845001220703125 28.42799949645996,-34.845001220703125 C28.42799949645996,-34.845001220703125 40.99700164794922,-22.194000244140625 40.99700164794922,-22.194000244140625z"/></g></g></g></g></g></svg>